G04 #@! TF.GenerationSoftware,KiCad,Pcbnew,(5.1.4)-1*
G04 #@! TF.CreationDate,2019-11-23T21:45:35+09:00*
G04 #@! TF.ProjectId,sakure10m,73616b75-7265-4313-906d-2e6b69636164,rev?*
G04 #@! TF.SameCoordinates,Original*
G04 #@! TF.FileFunction,Soldermask,Top*
G04 #@! TF.FilePolarity,Negative*
%FSLAX46Y46*%
G04 Gerber Fmt 4.6, Leading zero omitted, Abs format (unit mm)*
G04 Created by KiCad (PCBNEW (5.1.4)-1) date 2019-11-23 21:45:35*
%MOMM*%
%LPD*%
G04 APERTURE LIST*
%ADD10C,0.100000*%
G04 APERTURE END LIST*
D10*
G36*
X87456564Y-113639389D02*
G01*
X87647833Y-113718615D01*
X87647835Y-113718616D01*
X87819973Y-113833635D01*
X87966365Y-113980027D01*
X88081385Y-114152167D01*
X88160611Y-114343436D01*
X88201000Y-114546484D01*
X88201000Y-114753516D01*
X88160611Y-114956564D01*
X88087231Y-115133719D01*
X88081384Y-115147835D01*
X87966365Y-115319973D01*
X87819973Y-115466365D01*
X87647835Y-115581384D01*
X87647834Y-115581385D01*
X87647833Y-115581385D01*
X87456564Y-115660611D01*
X87253516Y-115701000D01*
X87046484Y-115701000D01*
X86843436Y-115660611D01*
X86652167Y-115581385D01*
X86652166Y-115581385D01*
X86652165Y-115581384D01*
X86480027Y-115466365D01*
X86333635Y-115319973D01*
X86218616Y-115147835D01*
X86212769Y-115133719D01*
X86139389Y-114956564D01*
X86099000Y-114753516D01*
X86099000Y-114546484D01*
X86139389Y-114343436D01*
X86218615Y-114152167D01*
X86333635Y-113980027D01*
X86480027Y-113833635D01*
X86652165Y-113718616D01*
X86652167Y-113718615D01*
X86843436Y-113639389D01*
X87046484Y-113599000D01*
X87253516Y-113599000D01*
X87456564Y-113639389D01*
X87456564Y-113639389D01*
G37*
G36*
X80956564Y-113639389D02*
G01*
X81147833Y-113718615D01*
X81147835Y-113718616D01*
X81319973Y-113833635D01*
X81466365Y-113980027D01*
X81581385Y-114152167D01*
X81660611Y-114343436D01*
X81701000Y-114546484D01*
X81701000Y-114753516D01*
X81660611Y-114956564D01*
X81587231Y-115133719D01*
X81581384Y-115147835D01*
X81466365Y-115319973D01*
X81319973Y-115466365D01*
X81147835Y-115581384D01*
X81147834Y-115581385D01*
X81147833Y-115581385D01*
X80956564Y-115660611D01*
X80753516Y-115701000D01*
X80546484Y-115701000D01*
X80343436Y-115660611D01*
X80152167Y-115581385D01*
X80152166Y-115581385D01*
X80152165Y-115581384D01*
X79980027Y-115466365D01*
X79833635Y-115319973D01*
X79718616Y-115147835D01*
X79712769Y-115133719D01*
X79639389Y-114956564D01*
X79599000Y-114753516D01*
X79599000Y-114546484D01*
X79639389Y-114343436D01*
X79718615Y-114152167D01*
X79833635Y-113980027D01*
X79980027Y-113833635D01*
X80152165Y-113718616D01*
X80152167Y-113718615D01*
X80343436Y-113639389D01*
X80546484Y-113599000D01*
X80753516Y-113599000D01*
X80956564Y-113639389D01*
X80956564Y-113639389D01*
G37*
G36*
X161124549Y-113271116D02*
G01*
X161235734Y-113293232D01*
X161445203Y-113379997D01*
X161633720Y-113505960D01*
X161794040Y-113666280D01*
X161920003Y-113854797D01*
X162006768Y-114064266D01*
X162051000Y-114286636D01*
X162051000Y-114513364D01*
X162006768Y-114735734D01*
X161920003Y-114945203D01*
X161794040Y-115133720D01*
X161633720Y-115294040D01*
X161445203Y-115420003D01*
X161235734Y-115506768D01*
X161124549Y-115528884D01*
X161013365Y-115551000D01*
X160786635Y-115551000D01*
X160675451Y-115528884D01*
X160564266Y-115506768D01*
X160354797Y-115420003D01*
X160166280Y-115294040D01*
X160005960Y-115133720D01*
X159879997Y-114945203D01*
X159793232Y-114735734D01*
X159749000Y-114513364D01*
X159749000Y-114286636D01*
X159793232Y-114064266D01*
X159879997Y-113854797D01*
X160005960Y-113666280D01*
X160166280Y-113505960D01*
X160354797Y-113379997D01*
X160564266Y-113293232D01*
X160675451Y-113271116D01*
X160786635Y-113249000D01*
X161013365Y-113249000D01*
X161124549Y-113271116D01*
X161124549Y-113271116D01*
G37*
G36*
X74124549Y-113271116D02*
G01*
X74235734Y-113293232D01*
X74445203Y-113379997D01*
X74633720Y-113505960D01*
X74794040Y-113666280D01*
X74920003Y-113854797D01*
X75006768Y-114064266D01*
X75051000Y-114286636D01*
X75051000Y-114513364D01*
X75006768Y-114735734D01*
X74920003Y-114945203D01*
X74794040Y-115133720D01*
X74633720Y-115294040D01*
X74445203Y-115420003D01*
X74235734Y-115506768D01*
X74124549Y-115528884D01*
X74013365Y-115551000D01*
X73786635Y-115551000D01*
X73675451Y-115528884D01*
X73564266Y-115506768D01*
X73354797Y-115420003D01*
X73166280Y-115294040D01*
X73005960Y-115133720D01*
X72879997Y-114945203D01*
X72793232Y-114735734D01*
X72749000Y-114513364D01*
X72749000Y-114286636D01*
X72793232Y-114064266D01*
X72879997Y-113854797D01*
X73005960Y-113666280D01*
X73166280Y-113505960D01*
X73354797Y-113379997D01*
X73564266Y-113293232D01*
X73675451Y-113271116D01*
X73786635Y-113249000D01*
X74013365Y-113249000D01*
X74124549Y-113271116D01*
X74124549Y-113271116D01*
G37*
G36*
X80956564Y-109139389D02*
G01*
X81147833Y-109218615D01*
X81147835Y-109218616D01*
X81319973Y-109333635D01*
X81466365Y-109480027D01*
X81581385Y-109652167D01*
X81660611Y-109843436D01*
X81701000Y-110046484D01*
X81701000Y-110253516D01*
X81660611Y-110456564D01*
X81605020Y-110590772D01*
X81581384Y-110647835D01*
X81466365Y-110819973D01*
X81319973Y-110966365D01*
X81147835Y-111081384D01*
X81147834Y-111081385D01*
X81147833Y-111081385D01*
X80956564Y-111160611D01*
X80753516Y-111201000D01*
X80546484Y-111201000D01*
X80343436Y-111160611D01*
X80152167Y-111081385D01*
X80152166Y-111081385D01*
X80152165Y-111081384D01*
X79980027Y-110966365D01*
X79833635Y-110819973D01*
X79718616Y-110647835D01*
X79694980Y-110590772D01*
X79639389Y-110456564D01*
X79599000Y-110253516D01*
X79599000Y-110046484D01*
X79639389Y-109843436D01*
X79718615Y-109652167D01*
X79833635Y-109480027D01*
X79980027Y-109333635D01*
X80152165Y-109218616D01*
X80152167Y-109218615D01*
X80343436Y-109139389D01*
X80546484Y-109099000D01*
X80753516Y-109099000D01*
X80956564Y-109139389D01*
X80956564Y-109139389D01*
G37*
G36*
X87456564Y-109139389D02*
G01*
X87647833Y-109218615D01*
X87647835Y-109218616D01*
X87819973Y-109333635D01*
X87966365Y-109480027D01*
X88081385Y-109652167D01*
X88160611Y-109843436D01*
X88201000Y-110046484D01*
X88201000Y-110253516D01*
X88160611Y-110456564D01*
X88105020Y-110590772D01*
X88081384Y-110647835D01*
X87966365Y-110819973D01*
X87819973Y-110966365D01*
X87647835Y-111081384D01*
X87647834Y-111081385D01*
X87647833Y-111081385D01*
X87456564Y-111160611D01*
X87253516Y-111201000D01*
X87046484Y-111201000D01*
X86843436Y-111160611D01*
X86652167Y-111081385D01*
X86652166Y-111081385D01*
X86652165Y-111081384D01*
X86480027Y-110966365D01*
X86333635Y-110819973D01*
X86218616Y-110647835D01*
X86194980Y-110590772D01*
X86139389Y-110456564D01*
X86099000Y-110253516D01*
X86099000Y-110046484D01*
X86139389Y-109843436D01*
X86218615Y-109652167D01*
X86333635Y-109480027D01*
X86480027Y-109333635D01*
X86652165Y-109218616D01*
X86652167Y-109218615D01*
X86843436Y-109139389D01*
X87046484Y-109099000D01*
X87253516Y-109099000D01*
X87456564Y-109139389D01*
X87456564Y-109139389D01*
G37*
G36*
X150339472Y-109531120D02*
G01*
X150439746Y-109572655D01*
X150439747Y-109572656D01*
X150529993Y-109632956D01*
X150606741Y-109709704D01*
X150606742Y-109709706D01*
X150667042Y-109799951D01*
X150708577Y-109900225D01*
X150729751Y-110006676D01*
X150729751Y-110115216D01*
X150708577Y-110221667D01*
X150667042Y-110321941D01*
X150667041Y-110321942D01*
X150606741Y-110412188D01*
X150529993Y-110488936D01*
X150484563Y-110519291D01*
X150439746Y-110549237D01*
X150339472Y-110590772D01*
X150233021Y-110611946D01*
X150124481Y-110611946D01*
X150018030Y-110590772D01*
X149917756Y-110549237D01*
X149872939Y-110519291D01*
X149827509Y-110488936D01*
X149750761Y-110412188D01*
X149690461Y-110321942D01*
X149690460Y-110321941D01*
X149648925Y-110221667D01*
X149627751Y-110115216D01*
X149627751Y-110006676D01*
X149648925Y-109900225D01*
X149690460Y-109799951D01*
X149750760Y-109709706D01*
X149750761Y-109709704D01*
X149827509Y-109632956D01*
X149917755Y-109572656D01*
X149917756Y-109572655D01*
X150018030Y-109531120D01*
X150124481Y-109509946D01*
X150233021Y-109509946D01*
X150339472Y-109531120D01*
X150339472Y-109531120D01*
G37*
G36*
X147421410Y-106096029D02*
G01*
X147570710Y-106125726D01*
X147734682Y-106193646D01*
X147882252Y-106292249D01*
X148007751Y-106417748D01*
X148106354Y-106565318D01*
X148174274Y-106729290D01*
X148208898Y-106903361D01*
X148208898Y-107080843D01*
X148174274Y-107254914D01*
X148106354Y-107418886D01*
X148007751Y-107566456D01*
X147977092Y-107597115D01*
X147961556Y-107616046D01*
X147950005Y-107637657D01*
X147897987Y-107763238D01*
X147788440Y-107927187D01*
X147649013Y-108066614D01*
X147485064Y-108176161D01*
X147302894Y-108251619D01*
X147206198Y-108270853D01*
X147109504Y-108290087D01*
X146912322Y-108290087D01*
X146815628Y-108270853D01*
X146718932Y-108251619D01*
X146536762Y-108176161D01*
X146372813Y-108066614D01*
X146233386Y-107927187D01*
X146123839Y-107763238D01*
X146048381Y-107581068D01*
X146009913Y-107387677D01*
X146009913Y-107190497D01*
X146048381Y-106997106D01*
X146123839Y-106814936D01*
X146233386Y-106650987D01*
X146372813Y-106511560D01*
X146536762Y-106402013D01*
X146662343Y-106349995D01*
X146683954Y-106338444D01*
X146702885Y-106322908D01*
X146733544Y-106292249D01*
X146881114Y-106193646D01*
X147045086Y-106125726D01*
X147194386Y-106096029D01*
X147219156Y-106091102D01*
X147396640Y-106091102D01*
X147421410Y-106096029D01*
X147421410Y-106096029D01*
G37*
G36*
X151498254Y-101427818D02*
G01*
X151871511Y-101582426D01*
X151871513Y-101582427D01*
X152207436Y-101806884D01*
X152493116Y-102092564D01*
X152710403Y-102417756D01*
X152717574Y-102428489D01*
X152872182Y-102801746D01*
X152951000Y-103197993D01*
X152951000Y-103602007D01*
X152872182Y-103998254D01*
X152717574Y-104371511D01*
X152717573Y-104371513D01*
X152493116Y-104707436D01*
X152207436Y-104993116D01*
X151871513Y-105217573D01*
X151871512Y-105217574D01*
X151871511Y-105217574D01*
X151498254Y-105372182D01*
X151102007Y-105451000D01*
X150697993Y-105451000D01*
X150301746Y-105372182D01*
X149928489Y-105217574D01*
X149928488Y-105217574D01*
X149928487Y-105217573D01*
X149592564Y-104993116D01*
X149306884Y-104707436D01*
X149082427Y-104371513D01*
X149082426Y-104371511D01*
X148927818Y-103998254D01*
X148849000Y-103602007D01*
X148849000Y-103197993D01*
X148927818Y-102801746D01*
X149082426Y-102428489D01*
X149089598Y-102417756D01*
X149306884Y-102092564D01*
X149592564Y-101806884D01*
X149928487Y-101582427D01*
X149928489Y-101582426D01*
X150301746Y-101427818D01*
X150697993Y-101349000D01*
X151102007Y-101349000D01*
X151498254Y-101427818D01*
X151498254Y-101427818D01*
G37*
G36*
X157721667Y-102148925D02*
G01*
X157821941Y-102190460D01*
X157821942Y-102190461D01*
X157912188Y-102250761D01*
X157988936Y-102327509D01*
X157988937Y-102327511D01*
X158049237Y-102417756D01*
X158090772Y-102518030D01*
X158111946Y-102624481D01*
X158111946Y-102733021D01*
X158090772Y-102839472D01*
X158049237Y-102939746D01*
X158049236Y-102939747D01*
X157988936Y-103029993D01*
X157912188Y-103106741D01*
X157866758Y-103137096D01*
X157821941Y-103167042D01*
X157721667Y-103208577D01*
X157615216Y-103229751D01*
X157506676Y-103229751D01*
X157400225Y-103208577D01*
X157299951Y-103167042D01*
X157255134Y-103137096D01*
X157209704Y-103106741D01*
X157132956Y-103029993D01*
X157072656Y-102939747D01*
X157072655Y-102939746D01*
X157031120Y-102839472D01*
X157009946Y-102733021D01*
X157009946Y-102624481D01*
X157031120Y-102518030D01*
X157072655Y-102417756D01*
X157132955Y-102327511D01*
X157132956Y-102327509D01*
X157209704Y-102250761D01*
X157299950Y-102190461D01*
X157299951Y-102190460D01*
X157400225Y-102148925D01*
X157506676Y-102127751D01*
X157615216Y-102127751D01*
X157721667Y-102148925D01*
X157721667Y-102148925D01*
G37*
G36*
X115446823Y-100561313D02*
G01*
X115607242Y-100609976D01*
X115727533Y-100674273D01*
X115755078Y-100688996D01*
X115884659Y-100795341D01*
X115991004Y-100924922D01*
X115991005Y-100924924D01*
X116070024Y-101072758D01*
X116118687Y-101233177D01*
X116135117Y-101400000D01*
X116118687Y-101566823D01*
X116070024Y-101727242D01*
X116027454Y-101806884D01*
X115991004Y-101875078D01*
X115884659Y-102004659D01*
X115755078Y-102111004D01*
X115755076Y-102111005D01*
X115607242Y-102190024D01*
X115607239Y-102190025D01*
X115577380Y-102199083D01*
X115446823Y-102238687D01*
X115321804Y-102251000D01*
X115238196Y-102251000D01*
X115113177Y-102238687D01*
X114982620Y-102199083D01*
X114952761Y-102190025D01*
X114952758Y-102190024D01*
X114804924Y-102111005D01*
X114804922Y-102111004D01*
X114675341Y-102004659D01*
X114568996Y-101875078D01*
X114532546Y-101806884D01*
X114489976Y-101727242D01*
X114441313Y-101566823D01*
X114424883Y-101400000D01*
X114441313Y-101233177D01*
X114489976Y-101072758D01*
X114568995Y-100924924D01*
X114568996Y-100924922D01*
X114675341Y-100795341D01*
X114804922Y-100688996D01*
X114832467Y-100674273D01*
X114952758Y-100609976D01*
X115113177Y-100561313D01*
X115238196Y-100549000D01*
X115321804Y-100549000D01*
X115446823Y-100561313D01*
X115446823Y-100561313D01*
G37*
G36*
X123751000Y-102251000D02*
G01*
X122049000Y-102251000D01*
X122049000Y-100549000D01*
X123751000Y-100549000D01*
X123751000Y-102251000D01*
X123751000Y-102251000D01*
G37*
G36*
X155081068Y-98548381D02*
G01*
X155263238Y-98623839D01*
X155427187Y-98733386D01*
X155566614Y-98872813D01*
X155676161Y-99036762D01*
X155751619Y-99218932D01*
X155790087Y-99412323D01*
X155790087Y-99609503D01*
X155751619Y-99802894D01*
X155676161Y-99985064D01*
X155566614Y-100149013D01*
X155427187Y-100288440D01*
X155263238Y-100397987D01*
X155263237Y-100397988D01*
X155263236Y-100397988D01*
X155137657Y-100450005D01*
X155116046Y-100461556D01*
X155097115Y-100477092D01*
X155066456Y-100507751D01*
X154918886Y-100606354D01*
X154754914Y-100674274D01*
X154605614Y-100703971D01*
X154580844Y-100708898D01*
X154403360Y-100708898D01*
X154378590Y-100703971D01*
X154229290Y-100674274D01*
X154065318Y-100606354D01*
X153917748Y-100507751D01*
X153792249Y-100382252D01*
X153693646Y-100234682D01*
X153625726Y-100070710D01*
X153591102Y-99896639D01*
X153591102Y-99719157D01*
X153625726Y-99545086D01*
X153693646Y-99381114D01*
X153792249Y-99233544D01*
X153822908Y-99202885D01*
X153838444Y-99183954D01*
X153849995Y-99162343D01*
X153902012Y-99036764D01*
X153920268Y-99009442D01*
X154011560Y-98872813D01*
X154150987Y-98733386D01*
X154314936Y-98623839D01*
X154497106Y-98548381D01*
X154593802Y-98529147D01*
X154690496Y-98509913D01*
X154887678Y-98509913D01*
X155081068Y-98548381D01*
X155081068Y-98548381D01*
G37*
G36*
X123751000Y-98251000D02*
G01*
X122049000Y-98251000D01*
X122049000Y-96549000D01*
X123751000Y-96549000D01*
X123751000Y-98251000D01*
X123751000Y-98251000D01*
G37*
G36*
X77446823Y-96561313D02*
G01*
X77607242Y-96609976D01*
X77739906Y-96680886D01*
X77755078Y-96688996D01*
X77884659Y-96795341D01*
X77991004Y-96924922D01*
X77991005Y-96924924D01*
X78070024Y-97072758D01*
X78118687Y-97233177D01*
X78135117Y-97400000D01*
X78118687Y-97566823D01*
X78070024Y-97727242D01*
X77999114Y-97859906D01*
X77991004Y-97875078D01*
X77884659Y-98004659D01*
X77755078Y-98111004D01*
X77755076Y-98111005D01*
X77607242Y-98190024D01*
X77446823Y-98238687D01*
X77321804Y-98251000D01*
X77238196Y-98251000D01*
X77113177Y-98238687D01*
X76952758Y-98190024D01*
X76804924Y-98111005D01*
X76804922Y-98111004D01*
X76675341Y-98004659D01*
X76568996Y-97875078D01*
X76560886Y-97859906D01*
X76489976Y-97727242D01*
X76441313Y-97566823D01*
X76424883Y-97400000D01*
X76441313Y-97233177D01*
X76489976Y-97072758D01*
X76568995Y-96924924D01*
X76568996Y-96924922D01*
X76675341Y-96795341D01*
X76804922Y-96688996D01*
X76820094Y-96680886D01*
X76952758Y-96609976D01*
X77113177Y-96561313D01*
X77238196Y-96549000D01*
X77321804Y-96549000D01*
X77446823Y-96561313D01*
X77446823Y-96561313D01*
G37*
G36*
X85751000Y-98251000D02*
G01*
X84049000Y-98251000D01*
X84049000Y-96549000D01*
X85751000Y-96549000D01*
X85751000Y-98251000D01*
X85751000Y-98251000D01*
G37*
G36*
X96446823Y-96561313D02*
G01*
X96607242Y-96609976D01*
X96739906Y-96680886D01*
X96755078Y-96688996D01*
X96884659Y-96795341D01*
X96991004Y-96924922D01*
X96991005Y-96924924D01*
X97070024Y-97072758D01*
X97118687Y-97233177D01*
X97135117Y-97400000D01*
X97118687Y-97566823D01*
X97070024Y-97727242D01*
X96999114Y-97859906D01*
X96991004Y-97875078D01*
X96884659Y-98004659D01*
X96755078Y-98111004D01*
X96755076Y-98111005D01*
X96607242Y-98190024D01*
X96446823Y-98238687D01*
X96321804Y-98251000D01*
X96238196Y-98251000D01*
X96113177Y-98238687D01*
X95952758Y-98190024D01*
X95804924Y-98111005D01*
X95804922Y-98111004D01*
X95675341Y-98004659D01*
X95568996Y-97875078D01*
X95560886Y-97859906D01*
X95489976Y-97727242D01*
X95441313Y-97566823D01*
X95424883Y-97400000D01*
X95441313Y-97233177D01*
X95489976Y-97072758D01*
X95568995Y-96924924D01*
X95568996Y-96924922D01*
X95675341Y-96795341D01*
X95804922Y-96688996D01*
X95820094Y-96680886D01*
X95952758Y-96609976D01*
X96113177Y-96561313D01*
X96238196Y-96549000D01*
X96321804Y-96549000D01*
X96446823Y-96561313D01*
X96446823Y-96561313D01*
G37*
G36*
X104751000Y-98251000D02*
G01*
X103049000Y-98251000D01*
X103049000Y-96549000D01*
X104751000Y-96549000D01*
X104751000Y-98251000D01*
X104751000Y-98251000D01*
G37*
G36*
X115446823Y-96561313D02*
G01*
X115607242Y-96609976D01*
X115739906Y-96680886D01*
X115755078Y-96688996D01*
X115884659Y-96795341D01*
X115991004Y-96924922D01*
X115991005Y-96924924D01*
X116070024Y-97072758D01*
X116118687Y-97233177D01*
X116135117Y-97400000D01*
X116118687Y-97566823D01*
X116070024Y-97727242D01*
X115999114Y-97859906D01*
X115991004Y-97875078D01*
X115884659Y-98004659D01*
X115755078Y-98111004D01*
X115755076Y-98111005D01*
X115607242Y-98190024D01*
X115446823Y-98238687D01*
X115321804Y-98251000D01*
X115238196Y-98251000D01*
X115113177Y-98238687D01*
X114952758Y-98190024D01*
X114804924Y-98111005D01*
X114804922Y-98111004D01*
X114675341Y-98004659D01*
X114568996Y-97875078D01*
X114560886Y-97859906D01*
X114489976Y-97727242D01*
X114441313Y-97566823D01*
X114424883Y-97400000D01*
X114441313Y-97233177D01*
X114489976Y-97072758D01*
X114568995Y-96924924D01*
X114568996Y-96924922D01*
X114675341Y-96795341D01*
X114804922Y-96688996D01*
X114820094Y-96680886D01*
X114952758Y-96609976D01*
X115113177Y-96561313D01*
X115238196Y-96549000D01*
X115321804Y-96549000D01*
X115446823Y-96561313D01*
X115446823Y-96561313D01*
G37*
G36*
X79840721Y-93070174D02*
G01*
X79940995Y-93111709D01*
X79940996Y-93111710D01*
X80031242Y-93172010D01*
X80107990Y-93248758D01*
X80107991Y-93248760D01*
X80168291Y-93339005D01*
X80209826Y-93439279D01*
X80231000Y-93545730D01*
X80231000Y-93654270D01*
X80209826Y-93760721D01*
X80168291Y-93860995D01*
X80168290Y-93860996D01*
X80107990Y-93951242D01*
X80031242Y-94027990D01*
X79985812Y-94058345D01*
X79940995Y-94088291D01*
X79840721Y-94129826D01*
X79734270Y-94151000D01*
X79625730Y-94151000D01*
X79519279Y-94129826D01*
X79419005Y-94088291D01*
X79374188Y-94058345D01*
X79328758Y-94027990D01*
X79252010Y-93951242D01*
X79191710Y-93860996D01*
X79191709Y-93860995D01*
X79150174Y-93760721D01*
X79129000Y-93654270D01*
X79129000Y-93545730D01*
X79150174Y-93439279D01*
X79191709Y-93339005D01*
X79252009Y-93248760D01*
X79252010Y-93248758D01*
X79328758Y-93172010D01*
X79419004Y-93111710D01*
X79419005Y-93111709D01*
X79519279Y-93070174D01*
X79625730Y-93049000D01*
X79734270Y-93049000D01*
X79840721Y-93070174D01*
X79840721Y-93070174D01*
G37*
G36*
X90280721Y-93070174D02*
G01*
X90380995Y-93111709D01*
X90380996Y-93111710D01*
X90471242Y-93172010D01*
X90547990Y-93248758D01*
X90547991Y-93248760D01*
X90608291Y-93339005D01*
X90649826Y-93439279D01*
X90671000Y-93545730D01*
X90671000Y-93654270D01*
X90649826Y-93760721D01*
X90608291Y-93860995D01*
X90608290Y-93860996D01*
X90547990Y-93951242D01*
X90471242Y-94027990D01*
X90425812Y-94058345D01*
X90380995Y-94088291D01*
X90280721Y-94129826D01*
X90174270Y-94151000D01*
X90065730Y-94151000D01*
X89959279Y-94129826D01*
X89859005Y-94088291D01*
X89814188Y-94058345D01*
X89768758Y-94027990D01*
X89692010Y-93951242D01*
X89631710Y-93860996D01*
X89631709Y-93860995D01*
X89590174Y-93760721D01*
X89569000Y-93654270D01*
X89569000Y-93545730D01*
X89590174Y-93439279D01*
X89631709Y-93339005D01*
X89692009Y-93248760D01*
X89692010Y-93248758D01*
X89768758Y-93172010D01*
X89859004Y-93111710D01*
X89859005Y-93111709D01*
X89959279Y-93070174D01*
X90065730Y-93049000D01*
X90174270Y-93049000D01*
X90280721Y-93070174D01*
X90280721Y-93070174D01*
G37*
G36*
X109280721Y-93070174D02*
G01*
X109380995Y-93111709D01*
X109380996Y-93111710D01*
X109471242Y-93172010D01*
X109547990Y-93248758D01*
X109547991Y-93248760D01*
X109608291Y-93339005D01*
X109649826Y-93439279D01*
X109671000Y-93545730D01*
X109671000Y-93654270D01*
X109649826Y-93760721D01*
X109608291Y-93860995D01*
X109608290Y-93860996D01*
X109547990Y-93951242D01*
X109471242Y-94027990D01*
X109425812Y-94058345D01*
X109380995Y-94088291D01*
X109280721Y-94129826D01*
X109174270Y-94151000D01*
X109065730Y-94151000D01*
X108959279Y-94129826D01*
X108859005Y-94088291D01*
X108814188Y-94058345D01*
X108768758Y-94027990D01*
X108692010Y-93951242D01*
X108631710Y-93860996D01*
X108631709Y-93860995D01*
X108590174Y-93760721D01*
X108569000Y-93654270D01*
X108569000Y-93545730D01*
X108590174Y-93439279D01*
X108631709Y-93339005D01*
X108692009Y-93248760D01*
X108692010Y-93248758D01*
X108768758Y-93172010D01*
X108859004Y-93111710D01*
X108859005Y-93111709D01*
X108959279Y-93070174D01*
X109065730Y-93049000D01*
X109174270Y-93049000D01*
X109280721Y-93070174D01*
X109280721Y-93070174D01*
G37*
G36*
X128280721Y-93070174D02*
G01*
X128380995Y-93111709D01*
X128380996Y-93111710D01*
X128471242Y-93172010D01*
X128547990Y-93248758D01*
X128547991Y-93248760D01*
X128608291Y-93339005D01*
X128649826Y-93439279D01*
X128671000Y-93545730D01*
X128671000Y-93654270D01*
X128649826Y-93760721D01*
X128608291Y-93860995D01*
X128608290Y-93860996D01*
X128547990Y-93951242D01*
X128471242Y-94027990D01*
X128425812Y-94058345D01*
X128380995Y-94088291D01*
X128280721Y-94129826D01*
X128174270Y-94151000D01*
X128065730Y-94151000D01*
X127959279Y-94129826D01*
X127859005Y-94088291D01*
X127814188Y-94058345D01*
X127768758Y-94027990D01*
X127692010Y-93951242D01*
X127631710Y-93860996D01*
X127631709Y-93860995D01*
X127590174Y-93760721D01*
X127569000Y-93654270D01*
X127569000Y-93545730D01*
X127590174Y-93439279D01*
X127631709Y-93339005D01*
X127692009Y-93248760D01*
X127692010Y-93248758D01*
X127768758Y-93172010D01*
X127859004Y-93111710D01*
X127859005Y-93111709D01*
X127959279Y-93070174D01*
X128065730Y-93049000D01*
X128174270Y-93049000D01*
X128280721Y-93070174D01*
X128280721Y-93070174D01*
G37*
G36*
X117840721Y-93070174D02*
G01*
X117940995Y-93111709D01*
X117940996Y-93111710D01*
X118031242Y-93172010D01*
X118107990Y-93248758D01*
X118107991Y-93248760D01*
X118168291Y-93339005D01*
X118209826Y-93439279D01*
X118231000Y-93545730D01*
X118231000Y-93654270D01*
X118209826Y-93760721D01*
X118168291Y-93860995D01*
X118168290Y-93860996D01*
X118107990Y-93951242D01*
X118031242Y-94027990D01*
X117985812Y-94058345D01*
X117940995Y-94088291D01*
X117840721Y-94129826D01*
X117734270Y-94151000D01*
X117625730Y-94151000D01*
X117519279Y-94129826D01*
X117419005Y-94088291D01*
X117374188Y-94058345D01*
X117328758Y-94027990D01*
X117252010Y-93951242D01*
X117191710Y-93860996D01*
X117191709Y-93860995D01*
X117150174Y-93760721D01*
X117129000Y-93654270D01*
X117129000Y-93545730D01*
X117150174Y-93439279D01*
X117191709Y-93339005D01*
X117252009Y-93248760D01*
X117252010Y-93248758D01*
X117328758Y-93172010D01*
X117419004Y-93111710D01*
X117419005Y-93111709D01*
X117519279Y-93070174D01*
X117625730Y-93049000D01*
X117734270Y-93049000D01*
X117840721Y-93070174D01*
X117840721Y-93070174D01*
G37*
G36*
X98840721Y-93070174D02*
G01*
X98940995Y-93111709D01*
X98940996Y-93111710D01*
X99031242Y-93172010D01*
X99107990Y-93248758D01*
X99107991Y-93248760D01*
X99168291Y-93339005D01*
X99209826Y-93439279D01*
X99231000Y-93545730D01*
X99231000Y-93654270D01*
X99209826Y-93760721D01*
X99168291Y-93860995D01*
X99168290Y-93860996D01*
X99107990Y-93951242D01*
X99031242Y-94027990D01*
X98985812Y-94058345D01*
X98940995Y-94088291D01*
X98840721Y-94129826D01*
X98734270Y-94151000D01*
X98625730Y-94151000D01*
X98519279Y-94129826D01*
X98419005Y-94088291D01*
X98374188Y-94058345D01*
X98328758Y-94027990D01*
X98252010Y-93951242D01*
X98191710Y-93860996D01*
X98191709Y-93860995D01*
X98150174Y-93760721D01*
X98129000Y-93654270D01*
X98129000Y-93545730D01*
X98150174Y-93439279D01*
X98191709Y-93339005D01*
X98252009Y-93248760D01*
X98252010Y-93248758D01*
X98328758Y-93172010D01*
X98419004Y-93111710D01*
X98419005Y-93111709D01*
X98519279Y-93070174D01*
X98625730Y-93049000D01*
X98734270Y-93049000D01*
X98840721Y-93070174D01*
X98840721Y-93070174D01*
G37*
G36*
X123498254Y-87427818D02*
G01*
X123871511Y-87582426D01*
X123871513Y-87582427D01*
X124207436Y-87806884D01*
X124493116Y-88092564D01*
X124717574Y-88428489D01*
X124872182Y-88801746D01*
X124951000Y-89197993D01*
X124951000Y-89602007D01*
X124872182Y-89998254D01*
X124742839Y-90310515D01*
X124717573Y-90371513D01*
X124493116Y-90707436D01*
X124207436Y-90993116D01*
X123871513Y-91217573D01*
X123871512Y-91217574D01*
X123871511Y-91217574D01*
X123498254Y-91372182D01*
X123102007Y-91451000D01*
X122697993Y-91451000D01*
X122301746Y-91372182D01*
X121928489Y-91217574D01*
X121928488Y-91217574D01*
X121928487Y-91217573D01*
X121592564Y-90993116D01*
X121306884Y-90707436D01*
X121082427Y-90371513D01*
X121057161Y-90310515D01*
X120927818Y-89998254D01*
X120849000Y-89602007D01*
X120849000Y-89197993D01*
X120927818Y-88801746D01*
X121082426Y-88428489D01*
X121306884Y-88092564D01*
X121592564Y-87806884D01*
X121928487Y-87582427D01*
X121928489Y-87582426D01*
X122301746Y-87427818D01*
X122697993Y-87349000D01*
X123102007Y-87349000D01*
X123498254Y-87427818D01*
X123498254Y-87427818D01*
G37*
G36*
X104498254Y-87427818D02*
G01*
X104871511Y-87582426D01*
X104871513Y-87582427D01*
X105207436Y-87806884D01*
X105493116Y-88092564D01*
X105717574Y-88428489D01*
X105872182Y-88801746D01*
X105951000Y-89197993D01*
X105951000Y-89602007D01*
X105872182Y-89998254D01*
X105742839Y-90310515D01*
X105717573Y-90371513D01*
X105493116Y-90707436D01*
X105207436Y-90993116D01*
X104871513Y-91217573D01*
X104871512Y-91217574D01*
X104871511Y-91217574D01*
X104498254Y-91372182D01*
X104102007Y-91451000D01*
X103697993Y-91451000D01*
X103301746Y-91372182D01*
X102928489Y-91217574D01*
X102928488Y-91217574D01*
X102928487Y-91217573D01*
X102592564Y-90993116D01*
X102306884Y-90707436D01*
X102082427Y-90371513D01*
X102057161Y-90310515D01*
X101927818Y-89998254D01*
X101849000Y-89602007D01*
X101849000Y-89197993D01*
X101927818Y-88801746D01*
X102082426Y-88428489D01*
X102306884Y-88092564D01*
X102592564Y-87806884D01*
X102928487Y-87582427D01*
X102928489Y-87582426D01*
X103301746Y-87427818D01*
X103697993Y-87349000D01*
X104102007Y-87349000D01*
X104498254Y-87427818D01*
X104498254Y-87427818D01*
G37*
G36*
X85498254Y-87427818D02*
G01*
X85871511Y-87582426D01*
X85871513Y-87582427D01*
X86207436Y-87806884D01*
X86493116Y-88092564D01*
X86717574Y-88428489D01*
X86872182Y-88801746D01*
X86951000Y-89197993D01*
X86951000Y-89602007D01*
X86872182Y-89998254D01*
X86742839Y-90310515D01*
X86717573Y-90371513D01*
X86493116Y-90707436D01*
X86207436Y-90993116D01*
X85871513Y-91217573D01*
X85871512Y-91217574D01*
X85871511Y-91217574D01*
X85498254Y-91372182D01*
X85102007Y-91451000D01*
X84697993Y-91451000D01*
X84301746Y-91372182D01*
X83928489Y-91217574D01*
X83928488Y-91217574D01*
X83928487Y-91217573D01*
X83592564Y-90993116D01*
X83306884Y-90707436D01*
X83082427Y-90371513D01*
X83057161Y-90310515D01*
X82927818Y-89998254D01*
X82849000Y-89602007D01*
X82849000Y-89197993D01*
X82927818Y-88801746D01*
X83082426Y-88428489D01*
X83306884Y-88092564D01*
X83592564Y-87806884D01*
X83928487Y-87582427D01*
X83928489Y-87582426D01*
X84301746Y-87427818D01*
X84697993Y-87349000D01*
X85102007Y-87349000D01*
X85498254Y-87427818D01*
X85498254Y-87427818D01*
G37*
G36*
X156713000Y-91213000D02*
G01*
X155087000Y-91213000D01*
X155087000Y-89587000D01*
X156713000Y-89587000D01*
X156713000Y-91213000D01*
X156713000Y-91213000D01*
G37*
G36*
X117691981Y-88437468D02*
G01*
X117812310Y-88487311D01*
X117817560Y-88489485D01*
X117841009Y-88496598D01*
X117865395Y-88499000D01*
X117908742Y-88499000D01*
X117933512Y-88503927D01*
X118082812Y-88533624D01*
X118246784Y-88601544D01*
X118394354Y-88700147D01*
X118519853Y-88825646D01*
X118618456Y-88973216D01*
X118686376Y-89137188D01*
X118721000Y-89311259D01*
X118721000Y-89488741D01*
X118686376Y-89662812D01*
X118618456Y-89826784D01*
X118519853Y-89974354D01*
X118394354Y-90099853D01*
X118246784Y-90198456D01*
X118082812Y-90266376D01*
X117933512Y-90296073D01*
X117908742Y-90301000D01*
X117865395Y-90301000D01*
X117841009Y-90303402D01*
X117817560Y-90310515D01*
X117691981Y-90362532D01*
X117595285Y-90381766D01*
X117498591Y-90401000D01*
X117301409Y-90401000D01*
X117204715Y-90381766D01*
X117108019Y-90362532D01*
X116925849Y-90287074D01*
X116761900Y-90177527D01*
X116622473Y-90038100D01*
X116512926Y-89874151D01*
X116437468Y-89691981D01*
X116399000Y-89498590D01*
X116399000Y-89301410D01*
X116437468Y-89108019D01*
X116512926Y-88925849D01*
X116622473Y-88761900D01*
X116761900Y-88622473D01*
X116925849Y-88512926D01*
X117108019Y-88437468D01*
X117301409Y-88399000D01*
X117498591Y-88399000D01*
X117691981Y-88437468D01*
X117691981Y-88437468D01*
G37*
G36*
X79691981Y-88437468D02*
G01*
X79812310Y-88487311D01*
X79817560Y-88489485D01*
X79841009Y-88496598D01*
X79865395Y-88499000D01*
X79908742Y-88499000D01*
X79933512Y-88503927D01*
X80082812Y-88533624D01*
X80246784Y-88601544D01*
X80394354Y-88700147D01*
X80519853Y-88825646D01*
X80618456Y-88973216D01*
X80686376Y-89137188D01*
X80721000Y-89311259D01*
X80721000Y-89488741D01*
X80686376Y-89662812D01*
X80618456Y-89826784D01*
X80519853Y-89974354D01*
X80394354Y-90099853D01*
X80246784Y-90198456D01*
X80082812Y-90266376D01*
X79933512Y-90296073D01*
X79908742Y-90301000D01*
X79865395Y-90301000D01*
X79841009Y-90303402D01*
X79817560Y-90310515D01*
X79691981Y-90362532D01*
X79595285Y-90381766D01*
X79498591Y-90401000D01*
X79301409Y-90401000D01*
X79204715Y-90381766D01*
X79108019Y-90362532D01*
X78925849Y-90287074D01*
X78761900Y-90177527D01*
X78622473Y-90038100D01*
X78512926Y-89874151D01*
X78437468Y-89691981D01*
X78399000Y-89498590D01*
X78399000Y-89301410D01*
X78437468Y-89108019D01*
X78512926Y-88925849D01*
X78622473Y-88761900D01*
X78761900Y-88622473D01*
X78925849Y-88512926D01*
X79108019Y-88437468D01*
X79301409Y-88399000D01*
X79498591Y-88399000D01*
X79691981Y-88437468D01*
X79691981Y-88437468D01*
G37*
G36*
X90691981Y-88437468D02*
G01*
X90874151Y-88512926D01*
X91038100Y-88622473D01*
X91177527Y-88761900D01*
X91287074Y-88925849D01*
X91362532Y-89108019D01*
X91401000Y-89301410D01*
X91401000Y-89498590D01*
X91362532Y-89691981D01*
X91287074Y-89874151D01*
X91177527Y-90038100D01*
X91038100Y-90177527D01*
X90874151Y-90287074D01*
X90691981Y-90362532D01*
X90595285Y-90381766D01*
X90498591Y-90401000D01*
X90301409Y-90401000D01*
X90204715Y-90381766D01*
X90108019Y-90362532D01*
X89982440Y-90310515D01*
X89958991Y-90303402D01*
X89934605Y-90301000D01*
X89891258Y-90301000D01*
X89866488Y-90296073D01*
X89717188Y-90266376D01*
X89553216Y-90198456D01*
X89405646Y-90099853D01*
X89280147Y-89974354D01*
X89181544Y-89826784D01*
X89113624Y-89662812D01*
X89079000Y-89488741D01*
X89079000Y-89311259D01*
X89113624Y-89137188D01*
X89181544Y-88973216D01*
X89280147Y-88825646D01*
X89405646Y-88700147D01*
X89553216Y-88601544D01*
X89717188Y-88533624D01*
X89866488Y-88503927D01*
X89891258Y-88499000D01*
X89934605Y-88499000D01*
X89958991Y-88496598D01*
X89982440Y-88489485D01*
X89987690Y-88487311D01*
X90108019Y-88437468D01*
X90301409Y-88399000D01*
X90498591Y-88399000D01*
X90691981Y-88437468D01*
X90691981Y-88437468D01*
G37*
G36*
X98691981Y-88437468D02*
G01*
X98812310Y-88487311D01*
X98817560Y-88489485D01*
X98841009Y-88496598D01*
X98865395Y-88499000D01*
X98908742Y-88499000D01*
X98933512Y-88503927D01*
X99082812Y-88533624D01*
X99246784Y-88601544D01*
X99394354Y-88700147D01*
X99519853Y-88825646D01*
X99618456Y-88973216D01*
X99686376Y-89137188D01*
X99721000Y-89311259D01*
X99721000Y-89488741D01*
X99686376Y-89662812D01*
X99618456Y-89826784D01*
X99519853Y-89974354D01*
X99394354Y-90099853D01*
X99246784Y-90198456D01*
X99082812Y-90266376D01*
X98933512Y-90296073D01*
X98908742Y-90301000D01*
X98865395Y-90301000D01*
X98841009Y-90303402D01*
X98817560Y-90310515D01*
X98691981Y-90362532D01*
X98595285Y-90381766D01*
X98498591Y-90401000D01*
X98301409Y-90401000D01*
X98204715Y-90381766D01*
X98108019Y-90362532D01*
X97925849Y-90287074D01*
X97761900Y-90177527D01*
X97622473Y-90038100D01*
X97512926Y-89874151D01*
X97437468Y-89691981D01*
X97399000Y-89498590D01*
X97399000Y-89301410D01*
X97437468Y-89108019D01*
X97512926Y-88925849D01*
X97622473Y-88761900D01*
X97761900Y-88622473D01*
X97925849Y-88512926D01*
X98108019Y-88437468D01*
X98301409Y-88399000D01*
X98498591Y-88399000D01*
X98691981Y-88437468D01*
X98691981Y-88437468D01*
G37*
G36*
X109691981Y-88437468D02*
G01*
X109874151Y-88512926D01*
X110038100Y-88622473D01*
X110177527Y-88761900D01*
X110287074Y-88925849D01*
X110362532Y-89108019D01*
X110401000Y-89301410D01*
X110401000Y-89498590D01*
X110362532Y-89691981D01*
X110287074Y-89874151D01*
X110177527Y-90038100D01*
X110038100Y-90177527D01*
X109874151Y-90287074D01*
X109691981Y-90362532D01*
X109595285Y-90381766D01*
X109498591Y-90401000D01*
X109301409Y-90401000D01*
X109204715Y-90381766D01*
X109108019Y-90362532D01*
X108982440Y-90310515D01*
X108958991Y-90303402D01*
X108934605Y-90301000D01*
X108891258Y-90301000D01*
X108866488Y-90296073D01*
X108717188Y-90266376D01*
X108553216Y-90198456D01*
X108405646Y-90099853D01*
X108280147Y-89974354D01*
X108181544Y-89826784D01*
X108113624Y-89662812D01*
X108079000Y-89488741D01*
X108079000Y-89311259D01*
X108113624Y-89137188D01*
X108181544Y-88973216D01*
X108280147Y-88825646D01*
X108405646Y-88700147D01*
X108553216Y-88601544D01*
X108717188Y-88533624D01*
X108866488Y-88503927D01*
X108891258Y-88499000D01*
X108934605Y-88499000D01*
X108958991Y-88496598D01*
X108982440Y-88489485D01*
X108987690Y-88487311D01*
X109108019Y-88437468D01*
X109301409Y-88399000D01*
X109498591Y-88399000D01*
X109691981Y-88437468D01*
X109691981Y-88437468D01*
G37*
G36*
X128691981Y-88437468D02*
G01*
X128874151Y-88512926D01*
X129038100Y-88622473D01*
X129177527Y-88761900D01*
X129287074Y-88925849D01*
X129362532Y-89108019D01*
X129401000Y-89301410D01*
X129401000Y-89498590D01*
X129362532Y-89691981D01*
X129287074Y-89874151D01*
X129177527Y-90038100D01*
X129038100Y-90177527D01*
X128874151Y-90287074D01*
X128691981Y-90362532D01*
X128595285Y-90381766D01*
X128498591Y-90401000D01*
X128301409Y-90401000D01*
X128204715Y-90381766D01*
X128108019Y-90362532D01*
X127982440Y-90310515D01*
X127958991Y-90303402D01*
X127934605Y-90301000D01*
X127891258Y-90301000D01*
X127866488Y-90296073D01*
X127717188Y-90266376D01*
X127553216Y-90198456D01*
X127405646Y-90099853D01*
X127280147Y-89974354D01*
X127181544Y-89826784D01*
X127113624Y-89662812D01*
X127079000Y-89488741D01*
X127079000Y-89311259D01*
X127113624Y-89137188D01*
X127181544Y-88973216D01*
X127280147Y-88825646D01*
X127405646Y-88700147D01*
X127553216Y-88601544D01*
X127717188Y-88533624D01*
X127866488Y-88503927D01*
X127891258Y-88499000D01*
X127934605Y-88499000D01*
X127958991Y-88496598D01*
X127982440Y-88489485D01*
X127987690Y-88487311D01*
X128108019Y-88437468D01*
X128301409Y-88399000D01*
X128498591Y-88399000D01*
X128691981Y-88437468D01*
X128691981Y-88437468D01*
G37*
G36*
X156713000Y-88673000D02*
G01*
X155087000Y-88673000D01*
X155087000Y-87047000D01*
X156713000Y-87047000D01*
X156713000Y-88673000D01*
X156713000Y-88673000D01*
G37*
G36*
X156713000Y-86133000D02*
G01*
X155087000Y-86133000D01*
X155087000Y-84507000D01*
X156713000Y-84507000D01*
X156713000Y-86133000D01*
X156713000Y-86133000D01*
G37*
G36*
X161124549Y-77271116D02*
G01*
X161235734Y-77293232D01*
X161445203Y-77379997D01*
X161633720Y-77505960D01*
X161794040Y-77666280D01*
X161920003Y-77854797D01*
X162006768Y-78064266D01*
X162051000Y-78286636D01*
X162051000Y-78513364D01*
X162006768Y-78735734D01*
X161920003Y-78945203D01*
X161794040Y-79133720D01*
X161633720Y-79294040D01*
X161445203Y-79420003D01*
X161235734Y-79506768D01*
X161124549Y-79528884D01*
X161013365Y-79551000D01*
X160786635Y-79551000D01*
X160675451Y-79528884D01*
X160564266Y-79506768D01*
X160354797Y-79420003D01*
X160166280Y-79294040D01*
X160005960Y-79133720D01*
X159879997Y-78945203D01*
X159793232Y-78735734D01*
X159749000Y-78513364D01*
X159749000Y-78286636D01*
X159793232Y-78064266D01*
X159879997Y-77854797D01*
X160005960Y-77666280D01*
X160166280Y-77505960D01*
X160354797Y-77379997D01*
X160564266Y-77293232D01*
X160675451Y-77271116D01*
X160786635Y-77249000D01*
X161013365Y-77249000D01*
X161124549Y-77271116D01*
X161124549Y-77271116D01*
G37*
G36*
X142124549Y-77271116D02*
G01*
X142235734Y-77293232D01*
X142445203Y-77379997D01*
X142633720Y-77505960D01*
X142794040Y-77666280D01*
X142920003Y-77854797D01*
X143006768Y-78064266D01*
X143051000Y-78286636D01*
X143051000Y-78513364D01*
X143006768Y-78735734D01*
X142920003Y-78945203D01*
X142794040Y-79133720D01*
X142633720Y-79294040D01*
X142445203Y-79420003D01*
X142235734Y-79506768D01*
X142124549Y-79528884D01*
X142013365Y-79551000D01*
X141786635Y-79551000D01*
X141675451Y-79528884D01*
X141564266Y-79506768D01*
X141354797Y-79420003D01*
X141166280Y-79294040D01*
X141005960Y-79133720D01*
X140879997Y-78945203D01*
X140793232Y-78735734D01*
X140749000Y-78513364D01*
X140749000Y-78286636D01*
X140793232Y-78064266D01*
X140879997Y-77854797D01*
X141005960Y-77666280D01*
X141166280Y-77505960D01*
X141354797Y-77379997D01*
X141564266Y-77293232D01*
X141675451Y-77271116D01*
X141786635Y-77249000D01*
X142013365Y-77249000D01*
X142124549Y-77271116D01*
X142124549Y-77271116D01*
G37*
G36*
X104751000Y-79251000D02*
G01*
X103049000Y-79251000D01*
X103049000Y-77549000D01*
X104751000Y-77549000D01*
X104751000Y-79251000D01*
X104751000Y-79251000D01*
G37*
G36*
X123751000Y-79251000D02*
G01*
X122049000Y-79251000D01*
X122049000Y-77549000D01*
X123751000Y-77549000D01*
X123751000Y-79251000D01*
X123751000Y-79251000D01*
G37*
G36*
X85751000Y-79251000D02*
G01*
X84049000Y-79251000D01*
X84049000Y-77549000D01*
X85751000Y-77549000D01*
X85751000Y-79251000D01*
X85751000Y-79251000D01*
G37*
G36*
X115446823Y-77561313D02*
G01*
X115607242Y-77609976D01*
X115712579Y-77666280D01*
X115755078Y-77688996D01*
X115884659Y-77795341D01*
X115991004Y-77924922D01*
X115991005Y-77924924D01*
X116070024Y-78072758D01*
X116118687Y-78233177D01*
X116135117Y-78400000D01*
X116118687Y-78566823D01*
X116070024Y-78727242D01*
X115999114Y-78859906D01*
X115991004Y-78875078D01*
X115884659Y-79004659D01*
X115755078Y-79111004D01*
X115755076Y-79111005D01*
X115607242Y-79190024D01*
X115446823Y-79238687D01*
X115321804Y-79251000D01*
X115238196Y-79251000D01*
X115113177Y-79238687D01*
X114952758Y-79190024D01*
X114804924Y-79111005D01*
X114804922Y-79111004D01*
X114675341Y-79004659D01*
X114568996Y-78875078D01*
X114560886Y-78859906D01*
X114489976Y-78727242D01*
X114441313Y-78566823D01*
X114424883Y-78400000D01*
X114441313Y-78233177D01*
X114489976Y-78072758D01*
X114568995Y-77924924D01*
X114568996Y-77924922D01*
X114675341Y-77795341D01*
X114804922Y-77688996D01*
X114847421Y-77666280D01*
X114952758Y-77609976D01*
X115113177Y-77561313D01*
X115238196Y-77549000D01*
X115321804Y-77549000D01*
X115446823Y-77561313D01*
X115446823Y-77561313D01*
G37*
G36*
X77446823Y-77561313D02*
G01*
X77607242Y-77609976D01*
X77712579Y-77666280D01*
X77755078Y-77688996D01*
X77884659Y-77795341D01*
X77991004Y-77924922D01*
X77991005Y-77924924D01*
X78070024Y-78072758D01*
X78118687Y-78233177D01*
X78135117Y-78400000D01*
X78118687Y-78566823D01*
X78070024Y-78727242D01*
X77999114Y-78859906D01*
X77991004Y-78875078D01*
X77884659Y-79004659D01*
X77755078Y-79111004D01*
X77755076Y-79111005D01*
X77607242Y-79190024D01*
X77446823Y-79238687D01*
X77321804Y-79251000D01*
X77238196Y-79251000D01*
X77113177Y-79238687D01*
X76952758Y-79190024D01*
X76804924Y-79111005D01*
X76804922Y-79111004D01*
X76675341Y-79004659D01*
X76568996Y-78875078D01*
X76560886Y-78859906D01*
X76489976Y-78727242D01*
X76441313Y-78566823D01*
X76424883Y-78400000D01*
X76441313Y-78233177D01*
X76489976Y-78072758D01*
X76568995Y-77924924D01*
X76568996Y-77924922D01*
X76675341Y-77795341D01*
X76804922Y-77688996D01*
X76847421Y-77666280D01*
X76952758Y-77609976D01*
X77113177Y-77561313D01*
X77238196Y-77549000D01*
X77321804Y-77549000D01*
X77446823Y-77561313D01*
X77446823Y-77561313D01*
G37*
G36*
X96446823Y-77561313D02*
G01*
X96607242Y-77609976D01*
X96712579Y-77666280D01*
X96755078Y-77688996D01*
X96884659Y-77795341D01*
X96991004Y-77924922D01*
X96991005Y-77924924D01*
X97070024Y-78072758D01*
X97118687Y-78233177D01*
X97135117Y-78400000D01*
X97118687Y-78566823D01*
X97070024Y-78727242D01*
X96999114Y-78859906D01*
X96991004Y-78875078D01*
X96884659Y-79004659D01*
X96755078Y-79111004D01*
X96755076Y-79111005D01*
X96607242Y-79190024D01*
X96446823Y-79238687D01*
X96321804Y-79251000D01*
X96238196Y-79251000D01*
X96113177Y-79238687D01*
X95952758Y-79190024D01*
X95804924Y-79111005D01*
X95804922Y-79111004D01*
X95675341Y-79004659D01*
X95568996Y-78875078D01*
X95560886Y-78859906D01*
X95489976Y-78727242D01*
X95441313Y-78566823D01*
X95424883Y-78400000D01*
X95441313Y-78233177D01*
X95489976Y-78072758D01*
X95568995Y-77924924D01*
X95568996Y-77924922D01*
X95675341Y-77795341D01*
X95804922Y-77688996D01*
X95847421Y-77666280D01*
X95952758Y-77609976D01*
X96113177Y-77561313D01*
X96238196Y-77549000D01*
X96321804Y-77549000D01*
X96446823Y-77561313D01*
X96446823Y-77561313D01*
G37*
G36*
X90280721Y-74070174D02*
G01*
X90380995Y-74111709D01*
X90380996Y-74111710D01*
X90471242Y-74172010D01*
X90547990Y-74248758D01*
X90547991Y-74248760D01*
X90608291Y-74339005D01*
X90649826Y-74439279D01*
X90671000Y-74545730D01*
X90671000Y-74654270D01*
X90649826Y-74760721D01*
X90608291Y-74860995D01*
X90608290Y-74860996D01*
X90547990Y-74951242D01*
X90471242Y-75027990D01*
X90425812Y-75058345D01*
X90380995Y-75088291D01*
X90280721Y-75129826D01*
X90174270Y-75151000D01*
X90065730Y-75151000D01*
X89959279Y-75129826D01*
X89859005Y-75088291D01*
X89814188Y-75058345D01*
X89768758Y-75027990D01*
X89692010Y-74951242D01*
X89631710Y-74860996D01*
X89631709Y-74860995D01*
X89590174Y-74760721D01*
X89569000Y-74654270D01*
X89569000Y-74545730D01*
X89590174Y-74439279D01*
X89631709Y-74339005D01*
X89692009Y-74248760D01*
X89692010Y-74248758D01*
X89768758Y-74172010D01*
X89859004Y-74111710D01*
X89859005Y-74111709D01*
X89959279Y-74070174D01*
X90065730Y-74049000D01*
X90174270Y-74049000D01*
X90280721Y-74070174D01*
X90280721Y-74070174D01*
G37*
G36*
X109280721Y-74070174D02*
G01*
X109380995Y-74111709D01*
X109380996Y-74111710D01*
X109471242Y-74172010D01*
X109547990Y-74248758D01*
X109547991Y-74248760D01*
X109608291Y-74339005D01*
X109649826Y-74439279D01*
X109671000Y-74545730D01*
X109671000Y-74654270D01*
X109649826Y-74760721D01*
X109608291Y-74860995D01*
X109608290Y-74860996D01*
X109547990Y-74951242D01*
X109471242Y-75027990D01*
X109425812Y-75058345D01*
X109380995Y-75088291D01*
X109280721Y-75129826D01*
X109174270Y-75151000D01*
X109065730Y-75151000D01*
X108959279Y-75129826D01*
X108859005Y-75088291D01*
X108814188Y-75058345D01*
X108768758Y-75027990D01*
X108692010Y-74951242D01*
X108631710Y-74860996D01*
X108631709Y-74860995D01*
X108590174Y-74760721D01*
X108569000Y-74654270D01*
X108569000Y-74545730D01*
X108590174Y-74439279D01*
X108631709Y-74339005D01*
X108692009Y-74248760D01*
X108692010Y-74248758D01*
X108768758Y-74172010D01*
X108859004Y-74111710D01*
X108859005Y-74111709D01*
X108959279Y-74070174D01*
X109065730Y-74049000D01*
X109174270Y-74049000D01*
X109280721Y-74070174D01*
X109280721Y-74070174D01*
G37*
G36*
X117840721Y-74070174D02*
G01*
X117940995Y-74111709D01*
X117940996Y-74111710D01*
X118031242Y-74172010D01*
X118107990Y-74248758D01*
X118107991Y-74248760D01*
X118168291Y-74339005D01*
X118209826Y-74439279D01*
X118231000Y-74545730D01*
X118231000Y-74654270D01*
X118209826Y-74760721D01*
X118168291Y-74860995D01*
X118168290Y-74860996D01*
X118107990Y-74951242D01*
X118031242Y-75027990D01*
X117985812Y-75058345D01*
X117940995Y-75088291D01*
X117840721Y-75129826D01*
X117734270Y-75151000D01*
X117625730Y-75151000D01*
X117519279Y-75129826D01*
X117419005Y-75088291D01*
X117374188Y-75058345D01*
X117328758Y-75027990D01*
X117252010Y-74951242D01*
X117191710Y-74860996D01*
X117191709Y-74860995D01*
X117150174Y-74760721D01*
X117129000Y-74654270D01*
X117129000Y-74545730D01*
X117150174Y-74439279D01*
X117191709Y-74339005D01*
X117252009Y-74248760D01*
X117252010Y-74248758D01*
X117328758Y-74172010D01*
X117419004Y-74111710D01*
X117419005Y-74111709D01*
X117519279Y-74070174D01*
X117625730Y-74049000D01*
X117734270Y-74049000D01*
X117840721Y-74070174D01*
X117840721Y-74070174D01*
G37*
G36*
X98840721Y-74070174D02*
G01*
X98940995Y-74111709D01*
X98940996Y-74111710D01*
X99031242Y-74172010D01*
X99107990Y-74248758D01*
X99107991Y-74248760D01*
X99168291Y-74339005D01*
X99209826Y-74439279D01*
X99231000Y-74545730D01*
X99231000Y-74654270D01*
X99209826Y-74760721D01*
X99168291Y-74860995D01*
X99168290Y-74860996D01*
X99107990Y-74951242D01*
X99031242Y-75027990D01*
X98985812Y-75058345D01*
X98940995Y-75088291D01*
X98840721Y-75129826D01*
X98734270Y-75151000D01*
X98625730Y-75151000D01*
X98519279Y-75129826D01*
X98419005Y-75088291D01*
X98374188Y-75058345D01*
X98328758Y-75027990D01*
X98252010Y-74951242D01*
X98191710Y-74860996D01*
X98191709Y-74860995D01*
X98150174Y-74760721D01*
X98129000Y-74654270D01*
X98129000Y-74545730D01*
X98150174Y-74439279D01*
X98191709Y-74339005D01*
X98252009Y-74248760D01*
X98252010Y-74248758D01*
X98328758Y-74172010D01*
X98419004Y-74111710D01*
X98419005Y-74111709D01*
X98519279Y-74070174D01*
X98625730Y-74049000D01*
X98734270Y-74049000D01*
X98840721Y-74070174D01*
X98840721Y-74070174D01*
G37*
G36*
X79840721Y-74070174D02*
G01*
X79940995Y-74111709D01*
X79940996Y-74111710D01*
X80031242Y-74172010D01*
X80107990Y-74248758D01*
X80107991Y-74248760D01*
X80168291Y-74339005D01*
X80209826Y-74439279D01*
X80231000Y-74545730D01*
X80231000Y-74654270D01*
X80209826Y-74760721D01*
X80168291Y-74860995D01*
X80168290Y-74860996D01*
X80107990Y-74951242D01*
X80031242Y-75027990D01*
X79985812Y-75058345D01*
X79940995Y-75088291D01*
X79840721Y-75129826D01*
X79734270Y-75151000D01*
X79625730Y-75151000D01*
X79519279Y-75129826D01*
X79419005Y-75088291D01*
X79374188Y-75058345D01*
X79328758Y-75027990D01*
X79252010Y-74951242D01*
X79191710Y-74860996D01*
X79191709Y-74860995D01*
X79150174Y-74760721D01*
X79129000Y-74654270D01*
X79129000Y-74545730D01*
X79150174Y-74439279D01*
X79191709Y-74339005D01*
X79252009Y-74248760D01*
X79252010Y-74248758D01*
X79328758Y-74172010D01*
X79419004Y-74111710D01*
X79419005Y-74111709D01*
X79519279Y-74070174D01*
X79625730Y-74049000D01*
X79734270Y-74049000D01*
X79840721Y-74070174D01*
X79840721Y-74070174D01*
G37*
G36*
X128280721Y-74070174D02*
G01*
X128380995Y-74111709D01*
X128380996Y-74111710D01*
X128471242Y-74172010D01*
X128547990Y-74248758D01*
X128547991Y-74248760D01*
X128608291Y-74339005D01*
X128649826Y-74439279D01*
X128671000Y-74545730D01*
X128671000Y-74654270D01*
X128649826Y-74760721D01*
X128608291Y-74860995D01*
X128608290Y-74860996D01*
X128547990Y-74951242D01*
X128471242Y-75027990D01*
X128425812Y-75058345D01*
X128380995Y-75088291D01*
X128280721Y-75129826D01*
X128174270Y-75151000D01*
X128065730Y-75151000D01*
X127959279Y-75129826D01*
X127859005Y-75088291D01*
X127814188Y-75058345D01*
X127768758Y-75027990D01*
X127692010Y-74951242D01*
X127631710Y-74860996D01*
X127631709Y-74860995D01*
X127590174Y-74760721D01*
X127569000Y-74654270D01*
X127569000Y-74545730D01*
X127590174Y-74439279D01*
X127631709Y-74339005D01*
X127692009Y-74248760D01*
X127692010Y-74248758D01*
X127768758Y-74172010D01*
X127859004Y-74111710D01*
X127859005Y-74111709D01*
X127959279Y-74070174D01*
X128065730Y-74049000D01*
X128174270Y-74049000D01*
X128280721Y-74070174D01*
X128280721Y-74070174D01*
G37*
G36*
X123498254Y-68427818D02*
G01*
X123871511Y-68582426D01*
X123871513Y-68582427D01*
X124207436Y-68806884D01*
X124493116Y-69092564D01*
X124717574Y-69428489D01*
X124872182Y-69801746D01*
X124951000Y-70197993D01*
X124951000Y-70602007D01*
X124872182Y-70998254D01*
X124742839Y-71310515D01*
X124717573Y-71371513D01*
X124493116Y-71707436D01*
X124207436Y-71993116D01*
X123871513Y-72217573D01*
X123871512Y-72217574D01*
X123871511Y-72217574D01*
X123498254Y-72372182D01*
X123102007Y-72451000D01*
X122697993Y-72451000D01*
X122301746Y-72372182D01*
X121928489Y-72217574D01*
X121928488Y-72217574D01*
X121928487Y-72217573D01*
X121592564Y-71993116D01*
X121306884Y-71707436D01*
X121082427Y-71371513D01*
X121057161Y-71310515D01*
X120927818Y-70998254D01*
X120849000Y-70602007D01*
X120849000Y-70197993D01*
X120927818Y-69801746D01*
X121082426Y-69428489D01*
X121306884Y-69092564D01*
X121592564Y-68806884D01*
X121928487Y-68582427D01*
X121928489Y-68582426D01*
X122301746Y-68427818D01*
X122697993Y-68349000D01*
X123102007Y-68349000D01*
X123498254Y-68427818D01*
X123498254Y-68427818D01*
G37*
G36*
X85498254Y-68427818D02*
G01*
X85871511Y-68582426D01*
X85871513Y-68582427D01*
X86207436Y-68806884D01*
X86493116Y-69092564D01*
X86717574Y-69428489D01*
X86872182Y-69801746D01*
X86951000Y-70197993D01*
X86951000Y-70602007D01*
X86872182Y-70998254D01*
X86742839Y-71310515D01*
X86717573Y-71371513D01*
X86493116Y-71707436D01*
X86207436Y-71993116D01*
X85871513Y-72217573D01*
X85871512Y-72217574D01*
X85871511Y-72217574D01*
X85498254Y-72372182D01*
X85102007Y-72451000D01*
X84697993Y-72451000D01*
X84301746Y-72372182D01*
X83928489Y-72217574D01*
X83928488Y-72217574D01*
X83928487Y-72217573D01*
X83592564Y-71993116D01*
X83306884Y-71707436D01*
X83082427Y-71371513D01*
X83057161Y-71310515D01*
X82927818Y-70998254D01*
X82849000Y-70602007D01*
X82849000Y-70197993D01*
X82927818Y-69801746D01*
X83082426Y-69428489D01*
X83306884Y-69092564D01*
X83592564Y-68806884D01*
X83928487Y-68582427D01*
X83928489Y-68582426D01*
X84301746Y-68427818D01*
X84697993Y-68349000D01*
X85102007Y-68349000D01*
X85498254Y-68427818D01*
X85498254Y-68427818D01*
G37*
G36*
X104498254Y-68427818D02*
G01*
X104871511Y-68582426D01*
X104871513Y-68582427D01*
X105207436Y-68806884D01*
X105493116Y-69092564D01*
X105717574Y-69428489D01*
X105872182Y-69801746D01*
X105951000Y-70197993D01*
X105951000Y-70602007D01*
X105872182Y-70998254D01*
X105742839Y-71310515D01*
X105717573Y-71371513D01*
X105493116Y-71707436D01*
X105207436Y-71993116D01*
X104871513Y-72217573D01*
X104871512Y-72217574D01*
X104871511Y-72217574D01*
X104498254Y-72372182D01*
X104102007Y-72451000D01*
X103697993Y-72451000D01*
X103301746Y-72372182D01*
X102928489Y-72217574D01*
X102928488Y-72217574D01*
X102928487Y-72217573D01*
X102592564Y-71993116D01*
X102306884Y-71707436D01*
X102082427Y-71371513D01*
X102057161Y-71310515D01*
X101927818Y-70998254D01*
X101849000Y-70602007D01*
X101849000Y-70197993D01*
X101927818Y-69801746D01*
X102082426Y-69428489D01*
X102306884Y-69092564D01*
X102592564Y-68806884D01*
X102928487Y-68582427D01*
X102928489Y-68582426D01*
X103301746Y-68427818D01*
X103697993Y-68349000D01*
X104102007Y-68349000D01*
X104498254Y-68427818D01*
X104498254Y-68427818D01*
G37*
G36*
X79595285Y-69418234D02*
G01*
X79691981Y-69437468D01*
X79812310Y-69487311D01*
X79817560Y-69489485D01*
X79841009Y-69496598D01*
X79865395Y-69499000D01*
X79908742Y-69499000D01*
X79933512Y-69503927D01*
X80082812Y-69533624D01*
X80246784Y-69601544D01*
X80394354Y-69700147D01*
X80519853Y-69825646D01*
X80618456Y-69973216D01*
X80686376Y-70137188D01*
X80721000Y-70311259D01*
X80721000Y-70488741D01*
X80686376Y-70662812D01*
X80618456Y-70826784D01*
X80519853Y-70974354D01*
X80394354Y-71099853D01*
X80246784Y-71198456D01*
X80082812Y-71266376D01*
X79933512Y-71296073D01*
X79908742Y-71301000D01*
X79865395Y-71301000D01*
X79841009Y-71303402D01*
X79817560Y-71310515D01*
X79691981Y-71362532D01*
X79595285Y-71381766D01*
X79498591Y-71401000D01*
X79301409Y-71401000D01*
X79204715Y-71381766D01*
X79108019Y-71362532D01*
X78925849Y-71287074D01*
X78761900Y-71177527D01*
X78622473Y-71038100D01*
X78512926Y-70874151D01*
X78437468Y-70691981D01*
X78399000Y-70498590D01*
X78399000Y-70301410D01*
X78437468Y-70108019D01*
X78512926Y-69925849D01*
X78622473Y-69761900D01*
X78761900Y-69622473D01*
X78925849Y-69512926D01*
X79108019Y-69437468D01*
X79204715Y-69418234D01*
X79301409Y-69399000D01*
X79498591Y-69399000D01*
X79595285Y-69418234D01*
X79595285Y-69418234D01*
G37*
G36*
X98595285Y-69418234D02*
G01*
X98691981Y-69437468D01*
X98812310Y-69487311D01*
X98817560Y-69489485D01*
X98841009Y-69496598D01*
X98865395Y-69499000D01*
X98908742Y-69499000D01*
X98933512Y-69503927D01*
X99082812Y-69533624D01*
X99246784Y-69601544D01*
X99394354Y-69700147D01*
X99519853Y-69825646D01*
X99618456Y-69973216D01*
X99686376Y-70137188D01*
X99721000Y-70311259D01*
X99721000Y-70488741D01*
X99686376Y-70662812D01*
X99618456Y-70826784D01*
X99519853Y-70974354D01*
X99394354Y-71099853D01*
X99246784Y-71198456D01*
X99082812Y-71266376D01*
X98933512Y-71296073D01*
X98908742Y-71301000D01*
X98865395Y-71301000D01*
X98841009Y-71303402D01*
X98817560Y-71310515D01*
X98691981Y-71362532D01*
X98595285Y-71381766D01*
X98498591Y-71401000D01*
X98301409Y-71401000D01*
X98204715Y-71381766D01*
X98108019Y-71362532D01*
X97925849Y-71287074D01*
X97761900Y-71177527D01*
X97622473Y-71038100D01*
X97512926Y-70874151D01*
X97437468Y-70691981D01*
X97399000Y-70498590D01*
X97399000Y-70301410D01*
X97437468Y-70108019D01*
X97512926Y-69925849D01*
X97622473Y-69761900D01*
X97761900Y-69622473D01*
X97925849Y-69512926D01*
X98108019Y-69437468D01*
X98204715Y-69418234D01*
X98301409Y-69399000D01*
X98498591Y-69399000D01*
X98595285Y-69418234D01*
X98595285Y-69418234D01*
G37*
G36*
X109595285Y-69418234D02*
G01*
X109691981Y-69437468D01*
X109874151Y-69512926D01*
X110038100Y-69622473D01*
X110177527Y-69761900D01*
X110287074Y-69925849D01*
X110362532Y-70108019D01*
X110401000Y-70301410D01*
X110401000Y-70498590D01*
X110362532Y-70691981D01*
X110287074Y-70874151D01*
X110177527Y-71038100D01*
X110038100Y-71177527D01*
X109874151Y-71287074D01*
X109691981Y-71362532D01*
X109595285Y-71381766D01*
X109498591Y-71401000D01*
X109301409Y-71401000D01*
X109204715Y-71381766D01*
X109108019Y-71362532D01*
X108982440Y-71310515D01*
X108958991Y-71303402D01*
X108934605Y-71301000D01*
X108891258Y-71301000D01*
X108866488Y-71296073D01*
X108717188Y-71266376D01*
X108553216Y-71198456D01*
X108405646Y-71099853D01*
X108280147Y-70974354D01*
X108181544Y-70826784D01*
X108113624Y-70662812D01*
X108079000Y-70488741D01*
X108079000Y-70311259D01*
X108113624Y-70137188D01*
X108181544Y-69973216D01*
X108280147Y-69825646D01*
X108405646Y-69700147D01*
X108553216Y-69601544D01*
X108717188Y-69533624D01*
X108866488Y-69503927D01*
X108891258Y-69499000D01*
X108934605Y-69499000D01*
X108958991Y-69496598D01*
X108982440Y-69489485D01*
X108987690Y-69487311D01*
X109108019Y-69437468D01*
X109204715Y-69418234D01*
X109301409Y-69399000D01*
X109498591Y-69399000D01*
X109595285Y-69418234D01*
X109595285Y-69418234D01*
G37*
G36*
X117595285Y-69418234D02*
G01*
X117691981Y-69437468D01*
X117812310Y-69487311D01*
X117817560Y-69489485D01*
X117841009Y-69496598D01*
X117865395Y-69499000D01*
X117908742Y-69499000D01*
X117933512Y-69503927D01*
X118082812Y-69533624D01*
X118246784Y-69601544D01*
X118394354Y-69700147D01*
X118519853Y-69825646D01*
X118618456Y-69973216D01*
X118686376Y-70137188D01*
X118721000Y-70311259D01*
X118721000Y-70488741D01*
X118686376Y-70662812D01*
X118618456Y-70826784D01*
X118519853Y-70974354D01*
X118394354Y-71099853D01*
X118246784Y-71198456D01*
X118082812Y-71266376D01*
X117933512Y-71296073D01*
X117908742Y-71301000D01*
X117865395Y-71301000D01*
X117841009Y-71303402D01*
X117817560Y-71310515D01*
X117691981Y-71362532D01*
X117595285Y-71381766D01*
X117498591Y-71401000D01*
X117301409Y-71401000D01*
X117204715Y-71381766D01*
X117108019Y-71362532D01*
X116925849Y-71287074D01*
X116761900Y-71177527D01*
X116622473Y-71038100D01*
X116512926Y-70874151D01*
X116437468Y-70691981D01*
X116399000Y-70498590D01*
X116399000Y-70301410D01*
X116437468Y-70108019D01*
X116512926Y-69925849D01*
X116622473Y-69761900D01*
X116761900Y-69622473D01*
X116925849Y-69512926D01*
X117108019Y-69437468D01*
X117204715Y-69418234D01*
X117301409Y-69399000D01*
X117498591Y-69399000D01*
X117595285Y-69418234D01*
X117595285Y-69418234D01*
G37*
G36*
X128595285Y-69418234D02*
G01*
X128691981Y-69437468D01*
X128874151Y-69512926D01*
X129038100Y-69622473D01*
X129177527Y-69761900D01*
X129287074Y-69925849D01*
X129362532Y-70108019D01*
X129401000Y-70301410D01*
X129401000Y-70498590D01*
X129362532Y-70691981D01*
X129287074Y-70874151D01*
X129177527Y-71038100D01*
X129038100Y-71177527D01*
X128874151Y-71287074D01*
X128691981Y-71362532D01*
X128595285Y-71381766D01*
X128498591Y-71401000D01*
X128301409Y-71401000D01*
X128204715Y-71381766D01*
X128108019Y-71362532D01*
X127982440Y-71310515D01*
X127958991Y-71303402D01*
X127934605Y-71301000D01*
X127891258Y-71301000D01*
X127866488Y-71296073D01*
X127717188Y-71266376D01*
X127553216Y-71198456D01*
X127405646Y-71099853D01*
X127280147Y-70974354D01*
X127181544Y-70826784D01*
X127113624Y-70662812D01*
X127079000Y-70488741D01*
X127079000Y-70311259D01*
X127113624Y-70137188D01*
X127181544Y-69973216D01*
X127280147Y-69825646D01*
X127405646Y-69700147D01*
X127553216Y-69601544D01*
X127717188Y-69533624D01*
X127866488Y-69503927D01*
X127891258Y-69499000D01*
X127934605Y-69499000D01*
X127958991Y-69496598D01*
X127982440Y-69489485D01*
X127987690Y-69487311D01*
X128108019Y-69437468D01*
X128204715Y-69418234D01*
X128301409Y-69399000D01*
X128498591Y-69399000D01*
X128595285Y-69418234D01*
X128595285Y-69418234D01*
G37*
G36*
X90595285Y-69418234D02*
G01*
X90691981Y-69437468D01*
X90874151Y-69512926D01*
X91038100Y-69622473D01*
X91177527Y-69761900D01*
X91287074Y-69925849D01*
X91362532Y-70108019D01*
X91401000Y-70301410D01*
X91401000Y-70498590D01*
X91362532Y-70691981D01*
X91287074Y-70874151D01*
X91177527Y-71038100D01*
X91038100Y-71177527D01*
X90874151Y-71287074D01*
X90691981Y-71362532D01*
X90595285Y-71381766D01*
X90498591Y-71401000D01*
X90301409Y-71401000D01*
X90204715Y-71381766D01*
X90108019Y-71362532D01*
X89982440Y-71310515D01*
X89958991Y-71303402D01*
X89934605Y-71301000D01*
X89891258Y-71301000D01*
X89866488Y-71296073D01*
X89717188Y-71266376D01*
X89553216Y-71198456D01*
X89405646Y-71099853D01*
X89280147Y-70974354D01*
X89181544Y-70826784D01*
X89113624Y-70662812D01*
X89079000Y-70488741D01*
X89079000Y-70311259D01*
X89113624Y-70137188D01*
X89181544Y-69973216D01*
X89280147Y-69825646D01*
X89405646Y-69700147D01*
X89553216Y-69601544D01*
X89717188Y-69533624D01*
X89866488Y-69503927D01*
X89891258Y-69499000D01*
X89934605Y-69499000D01*
X89958991Y-69496598D01*
X89982440Y-69489485D01*
X89987690Y-69487311D01*
X90108019Y-69437468D01*
X90204715Y-69418234D01*
X90301409Y-69399000D01*
X90498591Y-69399000D01*
X90595285Y-69418234D01*
X90595285Y-69418234D01*
G37*
G36*
X77446823Y-58561313D02*
G01*
X77607242Y-58609976D01*
X77739906Y-58680886D01*
X77755078Y-58688996D01*
X77884659Y-58795341D01*
X77991004Y-58924922D01*
X77991005Y-58924924D01*
X78070024Y-59072758D01*
X78118687Y-59233177D01*
X78135117Y-59400000D01*
X78118687Y-59566823D01*
X78070024Y-59727242D01*
X77999114Y-59859906D01*
X77991004Y-59875078D01*
X77884659Y-60004659D01*
X77755078Y-60111004D01*
X77755076Y-60111005D01*
X77607242Y-60190024D01*
X77446823Y-60238687D01*
X77321804Y-60251000D01*
X77238196Y-60251000D01*
X77113177Y-60238687D01*
X76952758Y-60190024D01*
X76804924Y-60111005D01*
X76804922Y-60111004D01*
X76675341Y-60004659D01*
X76568996Y-59875078D01*
X76560886Y-59859906D01*
X76489976Y-59727242D01*
X76441313Y-59566823D01*
X76424883Y-59400000D01*
X76441313Y-59233177D01*
X76489976Y-59072758D01*
X76568995Y-58924924D01*
X76568996Y-58924922D01*
X76675341Y-58795341D01*
X76804922Y-58688996D01*
X76820094Y-58680886D01*
X76952758Y-58609976D01*
X77113177Y-58561313D01*
X77238196Y-58549000D01*
X77321804Y-58549000D01*
X77446823Y-58561313D01*
X77446823Y-58561313D01*
G37*
G36*
X85751000Y-60251000D02*
G01*
X84049000Y-60251000D01*
X84049000Y-58549000D01*
X85751000Y-58549000D01*
X85751000Y-60251000D01*
X85751000Y-60251000D01*
G37*
G36*
X104751000Y-60251000D02*
G01*
X103049000Y-60251000D01*
X103049000Y-58549000D01*
X104751000Y-58549000D01*
X104751000Y-60251000D01*
X104751000Y-60251000D01*
G37*
G36*
X123751000Y-60251000D02*
G01*
X122049000Y-60251000D01*
X122049000Y-58549000D01*
X123751000Y-58549000D01*
X123751000Y-60251000D01*
X123751000Y-60251000D01*
G37*
G36*
X115446823Y-58561313D02*
G01*
X115607242Y-58609976D01*
X115739906Y-58680886D01*
X115755078Y-58688996D01*
X115884659Y-58795341D01*
X115991004Y-58924922D01*
X115991005Y-58924924D01*
X116070024Y-59072758D01*
X116118687Y-59233177D01*
X116135117Y-59400000D01*
X116118687Y-59566823D01*
X116070024Y-59727242D01*
X115999114Y-59859906D01*
X115991004Y-59875078D01*
X115884659Y-60004659D01*
X115755078Y-60111004D01*
X115755076Y-60111005D01*
X115607242Y-60190024D01*
X115446823Y-60238687D01*
X115321804Y-60251000D01*
X115238196Y-60251000D01*
X115113177Y-60238687D01*
X114952758Y-60190024D01*
X114804924Y-60111005D01*
X114804922Y-60111004D01*
X114675341Y-60004659D01*
X114568996Y-59875078D01*
X114560886Y-59859906D01*
X114489976Y-59727242D01*
X114441313Y-59566823D01*
X114424883Y-59400000D01*
X114441313Y-59233177D01*
X114489976Y-59072758D01*
X114568995Y-58924924D01*
X114568996Y-58924922D01*
X114675341Y-58795341D01*
X114804922Y-58688996D01*
X114820094Y-58680886D01*
X114952758Y-58609976D01*
X115113177Y-58561313D01*
X115238196Y-58549000D01*
X115321804Y-58549000D01*
X115446823Y-58561313D01*
X115446823Y-58561313D01*
G37*
G36*
X96446823Y-58561313D02*
G01*
X96607242Y-58609976D01*
X96739906Y-58680886D01*
X96755078Y-58688996D01*
X96884659Y-58795341D01*
X96991004Y-58924922D01*
X96991005Y-58924924D01*
X97070024Y-59072758D01*
X97118687Y-59233177D01*
X97135117Y-59400000D01*
X97118687Y-59566823D01*
X97070024Y-59727242D01*
X96999114Y-59859906D01*
X96991004Y-59875078D01*
X96884659Y-60004659D01*
X96755078Y-60111004D01*
X96755076Y-60111005D01*
X96607242Y-60190024D01*
X96446823Y-60238687D01*
X96321804Y-60251000D01*
X96238196Y-60251000D01*
X96113177Y-60238687D01*
X95952758Y-60190024D01*
X95804924Y-60111005D01*
X95804922Y-60111004D01*
X95675341Y-60004659D01*
X95568996Y-59875078D01*
X95560886Y-59859906D01*
X95489976Y-59727242D01*
X95441313Y-59566823D01*
X95424883Y-59400000D01*
X95441313Y-59233177D01*
X95489976Y-59072758D01*
X95568995Y-58924924D01*
X95568996Y-58924922D01*
X95675341Y-58795341D01*
X95804922Y-58688996D01*
X95820094Y-58680886D01*
X95952758Y-58609976D01*
X96113177Y-58561313D01*
X96238196Y-58549000D01*
X96321804Y-58549000D01*
X96446823Y-58561313D01*
X96446823Y-58561313D01*
G37*
G36*
X79840721Y-55070174D02*
G01*
X79940995Y-55111709D01*
X79940996Y-55111710D01*
X80031242Y-55172010D01*
X80107990Y-55248758D01*
X80107991Y-55248760D01*
X80168291Y-55339005D01*
X80209826Y-55439279D01*
X80231000Y-55545730D01*
X80231000Y-55654270D01*
X80209826Y-55760721D01*
X80168291Y-55860995D01*
X80168290Y-55860996D01*
X80107990Y-55951242D01*
X80031242Y-56027990D01*
X79985812Y-56058345D01*
X79940995Y-56088291D01*
X79840721Y-56129826D01*
X79734270Y-56151000D01*
X79625730Y-56151000D01*
X79519279Y-56129826D01*
X79419005Y-56088291D01*
X79374188Y-56058345D01*
X79328758Y-56027990D01*
X79252010Y-55951242D01*
X79191710Y-55860996D01*
X79191709Y-55860995D01*
X79150174Y-55760721D01*
X79129000Y-55654270D01*
X79129000Y-55545730D01*
X79150174Y-55439279D01*
X79191709Y-55339005D01*
X79252009Y-55248760D01*
X79252010Y-55248758D01*
X79328758Y-55172010D01*
X79419004Y-55111710D01*
X79419005Y-55111709D01*
X79519279Y-55070174D01*
X79625730Y-55049000D01*
X79734270Y-55049000D01*
X79840721Y-55070174D01*
X79840721Y-55070174D01*
G37*
G36*
X90280721Y-55070174D02*
G01*
X90380995Y-55111709D01*
X90380996Y-55111710D01*
X90471242Y-55172010D01*
X90547990Y-55248758D01*
X90547991Y-55248760D01*
X90608291Y-55339005D01*
X90649826Y-55439279D01*
X90671000Y-55545730D01*
X90671000Y-55654270D01*
X90649826Y-55760721D01*
X90608291Y-55860995D01*
X90608290Y-55860996D01*
X90547990Y-55951242D01*
X90471242Y-56027990D01*
X90425812Y-56058345D01*
X90380995Y-56088291D01*
X90280721Y-56129826D01*
X90174270Y-56151000D01*
X90065730Y-56151000D01*
X89959279Y-56129826D01*
X89859005Y-56088291D01*
X89814188Y-56058345D01*
X89768758Y-56027990D01*
X89692010Y-55951242D01*
X89631710Y-55860996D01*
X89631709Y-55860995D01*
X89590174Y-55760721D01*
X89569000Y-55654270D01*
X89569000Y-55545730D01*
X89590174Y-55439279D01*
X89631709Y-55339005D01*
X89692009Y-55248760D01*
X89692010Y-55248758D01*
X89768758Y-55172010D01*
X89859004Y-55111710D01*
X89859005Y-55111709D01*
X89959279Y-55070174D01*
X90065730Y-55049000D01*
X90174270Y-55049000D01*
X90280721Y-55070174D01*
X90280721Y-55070174D01*
G37*
G36*
X109280721Y-55070174D02*
G01*
X109380995Y-55111709D01*
X109380996Y-55111710D01*
X109471242Y-55172010D01*
X109547990Y-55248758D01*
X109547991Y-55248760D01*
X109608291Y-55339005D01*
X109649826Y-55439279D01*
X109671000Y-55545730D01*
X109671000Y-55654270D01*
X109649826Y-55760721D01*
X109608291Y-55860995D01*
X109608290Y-55860996D01*
X109547990Y-55951242D01*
X109471242Y-56027990D01*
X109425812Y-56058345D01*
X109380995Y-56088291D01*
X109280721Y-56129826D01*
X109174270Y-56151000D01*
X109065730Y-56151000D01*
X108959279Y-56129826D01*
X108859005Y-56088291D01*
X108814188Y-56058345D01*
X108768758Y-56027990D01*
X108692010Y-55951242D01*
X108631710Y-55860996D01*
X108631709Y-55860995D01*
X108590174Y-55760721D01*
X108569000Y-55654270D01*
X108569000Y-55545730D01*
X108590174Y-55439279D01*
X108631709Y-55339005D01*
X108692009Y-55248760D01*
X108692010Y-55248758D01*
X108768758Y-55172010D01*
X108859004Y-55111710D01*
X108859005Y-55111709D01*
X108959279Y-55070174D01*
X109065730Y-55049000D01*
X109174270Y-55049000D01*
X109280721Y-55070174D01*
X109280721Y-55070174D01*
G37*
G36*
X98840721Y-55070174D02*
G01*
X98940995Y-55111709D01*
X98940996Y-55111710D01*
X99031242Y-55172010D01*
X99107990Y-55248758D01*
X99107991Y-55248760D01*
X99168291Y-55339005D01*
X99209826Y-55439279D01*
X99231000Y-55545730D01*
X99231000Y-55654270D01*
X99209826Y-55760721D01*
X99168291Y-55860995D01*
X99168290Y-55860996D01*
X99107990Y-55951242D01*
X99031242Y-56027990D01*
X98985812Y-56058345D01*
X98940995Y-56088291D01*
X98840721Y-56129826D01*
X98734270Y-56151000D01*
X98625730Y-56151000D01*
X98519279Y-56129826D01*
X98419005Y-56088291D01*
X98374188Y-56058345D01*
X98328758Y-56027990D01*
X98252010Y-55951242D01*
X98191710Y-55860996D01*
X98191709Y-55860995D01*
X98150174Y-55760721D01*
X98129000Y-55654270D01*
X98129000Y-55545730D01*
X98150174Y-55439279D01*
X98191709Y-55339005D01*
X98252009Y-55248760D01*
X98252010Y-55248758D01*
X98328758Y-55172010D01*
X98419004Y-55111710D01*
X98419005Y-55111709D01*
X98519279Y-55070174D01*
X98625730Y-55049000D01*
X98734270Y-55049000D01*
X98840721Y-55070174D01*
X98840721Y-55070174D01*
G37*
G36*
X117840721Y-55070174D02*
G01*
X117940995Y-55111709D01*
X117940996Y-55111710D01*
X118031242Y-55172010D01*
X118107990Y-55248758D01*
X118107991Y-55248760D01*
X118168291Y-55339005D01*
X118209826Y-55439279D01*
X118231000Y-55545730D01*
X118231000Y-55654270D01*
X118209826Y-55760721D01*
X118168291Y-55860995D01*
X118168290Y-55860996D01*
X118107990Y-55951242D01*
X118031242Y-56027990D01*
X117985812Y-56058345D01*
X117940995Y-56088291D01*
X117840721Y-56129826D01*
X117734270Y-56151000D01*
X117625730Y-56151000D01*
X117519279Y-56129826D01*
X117419005Y-56088291D01*
X117374188Y-56058345D01*
X117328758Y-56027990D01*
X117252010Y-55951242D01*
X117191710Y-55860996D01*
X117191709Y-55860995D01*
X117150174Y-55760721D01*
X117129000Y-55654270D01*
X117129000Y-55545730D01*
X117150174Y-55439279D01*
X117191709Y-55339005D01*
X117252009Y-55248760D01*
X117252010Y-55248758D01*
X117328758Y-55172010D01*
X117419004Y-55111710D01*
X117419005Y-55111709D01*
X117519279Y-55070174D01*
X117625730Y-55049000D01*
X117734270Y-55049000D01*
X117840721Y-55070174D01*
X117840721Y-55070174D01*
G37*
G36*
X128280721Y-55070174D02*
G01*
X128380995Y-55111709D01*
X128380996Y-55111710D01*
X128471242Y-55172010D01*
X128547990Y-55248758D01*
X128547991Y-55248760D01*
X128608291Y-55339005D01*
X128649826Y-55439279D01*
X128671000Y-55545730D01*
X128671000Y-55654270D01*
X128649826Y-55760721D01*
X128608291Y-55860995D01*
X128608290Y-55860996D01*
X128547990Y-55951242D01*
X128471242Y-56027990D01*
X128425812Y-56058345D01*
X128380995Y-56088291D01*
X128280721Y-56129826D01*
X128174270Y-56151000D01*
X128065730Y-56151000D01*
X127959279Y-56129826D01*
X127859005Y-56088291D01*
X127814188Y-56058345D01*
X127768758Y-56027990D01*
X127692010Y-55951242D01*
X127631710Y-55860996D01*
X127631709Y-55860995D01*
X127590174Y-55760721D01*
X127569000Y-55654270D01*
X127569000Y-55545730D01*
X127590174Y-55439279D01*
X127631709Y-55339005D01*
X127692009Y-55248760D01*
X127692010Y-55248758D01*
X127768758Y-55172010D01*
X127859004Y-55111710D01*
X127859005Y-55111709D01*
X127959279Y-55070174D01*
X128065730Y-55049000D01*
X128174270Y-55049000D01*
X128280721Y-55070174D01*
X128280721Y-55070174D01*
G37*
G36*
X85498254Y-49427818D02*
G01*
X85871511Y-49582426D01*
X85871513Y-49582427D01*
X86207436Y-49806884D01*
X86493116Y-50092564D01*
X86717574Y-50428489D01*
X86872182Y-50801746D01*
X86951000Y-51197993D01*
X86951000Y-51602007D01*
X86872182Y-51998254D01*
X86742839Y-52310515D01*
X86717573Y-52371513D01*
X86493116Y-52707436D01*
X86207436Y-52993116D01*
X85871513Y-53217573D01*
X85871512Y-53217574D01*
X85871511Y-53217574D01*
X85498254Y-53372182D01*
X85102007Y-53451000D01*
X84697993Y-53451000D01*
X84301746Y-53372182D01*
X83928489Y-53217574D01*
X83928488Y-53217574D01*
X83928487Y-53217573D01*
X83592564Y-52993116D01*
X83306884Y-52707436D01*
X83082427Y-52371513D01*
X83057161Y-52310515D01*
X82927818Y-51998254D01*
X82849000Y-51602007D01*
X82849000Y-51197993D01*
X82927818Y-50801746D01*
X83082426Y-50428489D01*
X83306884Y-50092564D01*
X83592564Y-49806884D01*
X83928487Y-49582427D01*
X83928489Y-49582426D01*
X84301746Y-49427818D01*
X84697993Y-49349000D01*
X85102007Y-49349000D01*
X85498254Y-49427818D01*
X85498254Y-49427818D01*
G37*
G36*
X104498254Y-49427818D02*
G01*
X104871511Y-49582426D01*
X104871513Y-49582427D01*
X105207436Y-49806884D01*
X105493116Y-50092564D01*
X105717574Y-50428489D01*
X105872182Y-50801746D01*
X105951000Y-51197993D01*
X105951000Y-51602007D01*
X105872182Y-51998254D01*
X105742839Y-52310515D01*
X105717573Y-52371513D01*
X105493116Y-52707436D01*
X105207436Y-52993116D01*
X104871513Y-53217573D01*
X104871512Y-53217574D01*
X104871511Y-53217574D01*
X104498254Y-53372182D01*
X104102007Y-53451000D01*
X103697993Y-53451000D01*
X103301746Y-53372182D01*
X102928489Y-53217574D01*
X102928488Y-53217574D01*
X102928487Y-53217573D01*
X102592564Y-52993116D01*
X102306884Y-52707436D01*
X102082427Y-52371513D01*
X102057161Y-52310515D01*
X101927818Y-51998254D01*
X101849000Y-51602007D01*
X101849000Y-51197993D01*
X101927818Y-50801746D01*
X102082426Y-50428489D01*
X102306884Y-50092564D01*
X102592564Y-49806884D01*
X102928487Y-49582427D01*
X102928489Y-49582426D01*
X103301746Y-49427818D01*
X103697993Y-49349000D01*
X104102007Y-49349000D01*
X104498254Y-49427818D01*
X104498254Y-49427818D01*
G37*
G36*
X123498254Y-49427818D02*
G01*
X123871511Y-49582426D01*
X123871513Y-49582427D01*
X124207436Y-49806884D01*
X124493116Y-50092564D01*
X124717574Y-50428489D01*
X124872182Y-50801746D01*
X124951000Y-51197993D01*
X124951000Y-51602007D01*
X124872182Y-51998254D01*
X124742839Y-52310515D01*
X124717573Y-52371513D01*
X124493116Y-52707436D01*
X124207436Y-52993116D01*
X123871513Y-53217573D01*
X123871512Y-53217574D01*
X123871511Y-53217574D01*
X123498254Y-53372182D01*
X123102007Y-53451000D01*
X122697993Y-53451000D01*
X122301746Y-53372182D01*
X121928489Y-53217574D01*
X121928488Y-53217574D01*
X121928487Y-53217573D01*
X121592564Y-52993116D01*
X121306884Y-52707436D01*
X121082427Y-52371513D01*
X121057161Y-52310515D01*
X120927818Y-51998254D01*
X120849000Y-51602007D01*
X120849000Y-51197993D01*
X120927818Y-50801746D01*
X121082426Y-50428489D01*
X121306884Y-50092564D01*
X121592564Y-49806884D01*
X121928487Y-49582427D01*
X121928489Y-49582426D01*
X122301746Y-49427818D01*
X122697993Y-49349000D01*
X123102007Y-49349000D01*
X123498254Y-49427818D01*
X123498254Y-49427818D01*
G37*
G36*
X109691981Y-50437468D02*
G01*
X109874151Y-50512926D01*
X110038100Y-50622473D01*
X110177527Y-50761900D01*
X110287074Y-50925849D01*
X110362532Y-51108019D01*
X110401000Y-51301410D01*
X110401000Y-51498590D01*
X110362532Y-51691981D01*
X110287074Y-51874151D01*
X110177527Y-52038100D01*
X110038100Y-52177527D01*
X109874151Y-52287074D01*
X109691981Y-52362532D01*
X109595285Y-52381766D01*
X109498591Y-52401000D01*
X109301409Y-52401000D01*
X109204715Y-52381766D01*
X109108019Y-52362532D01*
X108982440Y-52310515D01*
X108958991Y-52303402D01*
X108934605Y-52301000D01*
X108891258Y-52301000D01*
X108866488Y-52296073D01*
X108717188Y-52266376D01*
X108553216Y-52198456D01*
X108405646Y-52099853D01*
X108280147Y-51974354D01*
X108181544Y-51826784D01*
X108113624Y-51662812D01*
X108079000Y-51488741D01*
X108079000Y-51311259D01*
X108113624Y-51137188D01*
X108181544Y-50973216D01*
X108280147Y-50825646D01*
X108405646Y-50700147D01*
X108553216Y-50601544D01*
X108717188Y-50533624D01*
X108866488Y-50503927D01*
X108891258Y-50499000D01*
X108934605Y-50499000D01*
X108958991Y-50496598D01*
X108982440Y-50489485D01*
X108987690Y-50487311D01*
X109108019Y-50437468D01*
X109204715Y-50418234D01*
X109301409Y-50399000D01*
X109498591Y-50399000D01*
X109691981Y-50437468D01*
X109691981Y-50437468D01*
G37*
G36*
X98691981Y-50437468D02*
G01*
X98812310Y-50487311D01*
X98817560Y-50489485D01*
X98841009Y-50496598D01*
X98865395Y-50499000D01*
X98908742Y-50499000D01*
X98933512Y-50503927D01*
X99082812Y-50533624D01*
X99246784Y-50601544D01*
X99394354Y-50700147D01*
X99519853Y-50825646D01*
X99618456Y-50973216D01*
X99686376Y-51137188D01*
X99721000Y-51311259D01*
X99721000Y-51488741D01*
X99686376Y-51662812D01*
X99618456Y-51826784D01*
X99519853Y-51974354D01*
X99394354Y-52099853D01*
X99246784Y-52198456D01*
X99082812Y-52266376D01*
X98933512Y-52296073D01*
X98908742Y-52301000D01*
X98865395Y-52301000D01*
X98841009Y-52303402D01*
X98817560Y-52310515D01*
X98691981Y-52362532D01*
X98595285Y-52381766D01*
X98498591Y-52401000D01*
X98301409Y-52401000D01*
X98204715Y-52381766D01*
X98108019Y-52362532D01*
X97925849Y-52287074D01*
X97761900Y-52177527D01*
X97622473Y-52038100D01*
X97512926Y-51874151D01*
X97437468Y-51691981D01*
X97399000Y-51498590D01*
X97399000Y-51301410D01*
X97437468Y-51108019D01*
X97512926Y-50925849D01*
X97622473Y-50761900D01*
X97761900Y-50622473D01*
X97925849Y-50512926D01*
X98108019Y-50437468D01*
X98204715Y-50418234D01*
X98301409Y-50399000D01*
X98498591Y-50399000D01*
X98691981Y-50437468D01*
X98691981Y-50437468D01*
G37*
G36*
X79691981Y-50437468D02*
G01*
X79812310Y-50487311D01*
X79817560Y-50489485D01*
X79841009Y-50496598D01*
X79865395Y-50499000D01*
X79908742Y-50499000D01*
X79933512Y-50503927D01*
X80082812Y-50533624D01*
X80246784Y-50601544D01*
X80394354Y-50700147D01*
X80519853Y-50825646D01*
X80618456Y-50973216D01*
X80686376Y-51137188D01*
X80721000Y-51311259D01*
X80721000Y-51488741D01*
X80686376Y-51662812D01*
X80618456Y-51826784D01*
X80519853Y-51974354D01*
X80394354Y-52099853D01*
X80246784Y-52198456D01*
X80082812Y-52266376D01*
X79933512Y-52296073D01*
X79908742Y-52301000D01*
X79865395Y-52301000D01*
X79841009Y-52303402D01*
X79817560Y-52310515D01*
X79691981Y-52362532D01*
X79595285Y-52381766D01*
X79498591Y-52401000D01*
X79301409Y-52401000D01*
X79204715Y-52381766D01*
X79108019Y-52362532D01*
X78925849Y-52287074D01*
X78761900Y-52177527D01*
X78622473Y-52038100D01*
X78512926Y-51874151D01*
X78437468Y-51691981D01*
X78399000Y-51498590D01*
X78399000Y-51301410D01*
X78437468Y-51108019D01*
X78512926Y-50925849D01*
X78622473Y-50761900D01*
X78761900Y-50622473D01*
X78925849Y-50512926D01*
X79108019Y-50437468D01*
X79204715Y-50418234D01*
X79301409Y-50399000D01*
X79498591Y-50399000D01*
X79691981Y-50437468D01*
X79691981Y-50437468D01*
G37*
G36*
X90691981Y-50437468D02*
G01*
X90874151Y-50512926D01*
X91038100Y-50622473D01*
X91177527Y-50761900D01*
X91287074Y-50925849D01*
X91362532Y-51108019D01*
X91401000Y-51301410D01*
X91401000Y-51498590D01*
X91362532Y-51691981D01*
X91287074Y-51874151D01*
X91177527Y-52038100D01*
X91038100Y-52177527D01*
X90874151Y-52287074D01*
X90691981Y-52362532D01*
X90595285Y-52381766D01*
X90498591Y-52401000D01*
X90301409Y-52401000D01*
X90204715Y-52381766D01*
X90108019Y-52362532D01*
X89982440Y-52310515D01*
X89958991Y-52303402D01*
X89934605Y-52301000D01*
X89891258Y-52301000D01*
X89866488Y-52296073D01*
X89717188Y-52266376D01*
X89553216Y-52198456D01*
X89405646Y-52099853D01*
X89280147Y-51974354D01*
X89181544Y-51826784D01*
X89113624Y-51662812D01*
X89079000Y-51488741D01*
X89079000Y-51311259D01*
X89113624Y-51137188D01*
X89181544Y-50973216D01*
X89280147Y-50825646D01*
X89405646Y-50700147D01*
X89553216Y-50601544D01*
X89717188Y-50533624D01*
X89866488Y-50503927D01*
X89891258Y-50499000D01*
X89934605Y-50499000D01*
X89958991Y-50496598D01*
X89982440Y-50489485D01*
X89987690Y-50487311D01*
X90108019Y-50437468D01*
X90204715Y-50418234D01*
X90301409Y-50399000D01*
X90498591Y-50399000D01*
X90691981Y-50437468D01*
X90691981Y-50437468D01*
G37*
G36*
X117691981Y-50437468D02*
G01*
X117812310Y-50487311D01*
X117817560Y-50489485D01*
X117841009Y-50496598D01*
X117865395Y-50499000D01*
X117908742Y-50499000D01*
X117933512Y-50503927D01*
X118082812Y-50533624D01*
X118246784Y-50601544D01*
X118394354Y-50700147D01*
X118519853Y-50825646D01*
X118618456Y-50973216D01*
X118686376Y-51137188D01*
X118721000Y-51311259D01*
X118721000Y-51488741D01*
X118686376Y-51662812D01*
X118618456Y-51826784D01*
X118519853Y-51974354D01*
X118394354Y-52099853D01*
X118246784Y-52198456D01*
X118082812Y-52266376D01*
X117933512Y-52296073D01*
X117908742Y-52301000D01*
X117865395Y-52301000D01*
X117841009Y-52303402D01*
X117817560Y-52310515D01*
X117691981Y-52362532D01*
X117595285Y-52381766D01*
X117498591Y-52401000D01*
X117301409Y-52401000D01*
X117204715Y-52381766D01*
X117108019Y-52362532D01*
X116925849Y-52287074D01*
X116761900Y-52177527D01*
X116622473Y-52038100D01*
X116512926Y-51874151D01*
X116437468Y-51691981D01*
X116399000Y-51498590D01*
X116399000Y-51301410D01*
X116437468Y-51108019D01*
X116512926Y-50925849D01*
X116622473Y-50761900D01*
X116761900Y-50622473D01*
X116925849Y-50512926D01*
X117108019Y-50437468D01*
X117204715Y-50418234D01*
X117301409Y-50399000D01*
X117498591Y-50399000D01*
X117691981Y-50437468D01*
X117691981Y-50437468D01*
G37*
G36*
X128691981Y-50437468D02*
G01*
X128874151Y-50512926D01*
X129038100Y-50622473D01*
X129177527Y-50761900D01*
X129287074Y-50925849D01*
X129362532Y-51108019D01*
X129401000Y-51301410D01*
X129401000Y-51498590D01*
X129362532Y-51691981D01*
X129287074Y-51874151D01*
X129177527Y-52038100D01*
X129038100Y-52177527D01*
X128874151Y-52287074D01*
X128691981Y-52362532D01*
X128595285Y-52381766D01*
X128498591Y-52401000D01*
X128301409Y-52401000D01*
X128204715Y-52381766D01*
X128108019Y-52362532D01*
X127982440Y-52310515D01*
X127958991Y-52303402D01*
X127934605Y-52301000D01*
X127891258Y-52301000D01*
X127866488Y-52296073D01*
X127717188Y-52266376D01*
X127553216Y-52198456D01*
X127405646Y-52099853D01*
X127280147Y-51974354D01*
X127181544Y-51826784D01*
X127113624Y-51662812D01*
X127079000Y-51488741D01*
X127079000Y-51311259D01*
X127113624Y-51137188D01*
X127181544Y-50973216D01*
X127280147Y-50825646D01*
X127405646Y-50700147D01*
X127553216Y-50601544D01*
X127717188Y-50533624D01*
X127866488Y-50503927D01*
X127891258Y-50499000D01*
X127934605Y-50499000D01*
X127958991Y-50496598D01*
X127982440Y-50489485D01*
X127987690Y-50487311D01*
X128108019Y-50437468D01*
X128204715Y-50418234D01*
X128301409Y-50399000D01*
X128498591Y-50399000D01*
X128691981Y-50437468D01*
X128691981Y-50437468D01*
G37*
G36*
X161124549Y-42271116D02*
G01*
X161235734Y-42293232D01*
X161445203Y-42379997D01*
X161633720Y-42505960D01*
X161794040Y-42666280D01*
X161920003Y-42854797D01*
X162006768Y-43064266D01*
X162051000Y-43286636D01*
X162051000Y-43513364D01*
X162006768Y-43735734D01*
X161920003Y-43945203D01*
X161794040Y-44133720D01*
X161633720Y-44294040D01*
X161445203Y-44420003D01*
X161235734Y-44506768D01*
X161124549Y-44528884D01*
X161013365Y-44551000D01*
X160786635Y-44551000D01*
X160675451Y-44528884D01*
X160564266Y-44506768D01*
X160354797Y-44420003D01*
X160166280Y-44294040D01*
X160005960Y-44133720D01*
X159879997Y-43945203D01*
X159793232Y-43735734D01*
X159749000Y-43513364D01*
X159749000Y-43286636D01*
X159793232Y-43064266D01*
X159879997Y-42854797D01*
X160005960Y-42666280D01*
X160166280Y-42505960D01*
X160354797Y-42379997D01*
X160564266Y-42293232D01*
X160675451Y-42271116D01*
X160786635Y-42249000D01*
X161013365Y-42249000D01*
X161124549Y-42271116D01*
X161124549Y-42271116D01*
G37*
G36*
X74124549Y-42271116D02*
G01*
X74235734Y-42293232D01*
X74445203Y-42379997D01*
X74633720Y-42505960D01*
X74794040Y-42666280D01*
X74920003Y-42854797D01*
X75006768Y-43064266D01*
X75051000Y-43286636D01*
X75051000Y-43513364D01*
X75006768Y-43735734D01*
X74920003Y-43945203D01*
X74794040Y-44133720D01*
X74633720Y-44294040D01*
X74445203Y-44420003D01*
X74235734Y-44506768D01*
X74124549Y-44528884D01*
X74013365Y-44551000D01*
X73786635Y-44551000D01*
X73675451Y-44528884D01*
X73564266Y-44506768D01*
X73354797Y-44420003D01*
X73166280Y-44294040D01*
X73005960Y-44133720D01*
X72879997Y-43945203D01*
X72793232Y-43735734D01*
X72749000Y-43513364D01*
X72749000Y-43286636D01*
X72793232Y-43064266D01*
X72879997Y-42854797D01*
X73005960Y-42666280D01*
X73166280Y-42505960D01*
X73354797Y-42379997D01*
X73564266Y-42293232D01*
X73675451Y-42271116D01*
X73786635Y-42249000D01*
X74013365Y-42249000D01*
X74124549Y-42271116D01*
X74124549Y-42271116D01*
G37*
M02*
