G04 #@! TF.GenerationSoftware,KiCad,Pcbnew,(5.1.4)-1*
G04 #@! TF.CreationDate,2019-11-23T21:45:35+09:00*
G04 #@! TF.ProjectId,sakure10m,73616b75-7265-4313-906d-2e6b69636164,rev?*
G04 #@! TF.SameCoordinates,Original*
G04 #@! TF.FileFunction,Legend,Top*
G04 #@! TF.FilePolarity,Positive*
%FSLAX46Y46*%
G04 Gerber Fmt 4.6, Leading zero omitted, Abs format (unit mm)*
G04 Created by KiCad (PCBNEW (5.1.4)-1) date 2019-11-23 21:45:35*
%MOMM*%
%LPD*%
G04 APERTURE LIST*
%ADD10C,0.300000*%
%ADD11C,0.150000*%
%ADD12C,0.125000*%
%ADD13C,0.120000*%
%ADD14C,2.302000*%
%ADD15O,1.702000X1.702000*%
%ADD16R,1.702000X1.702000*%
%ADD17C,2.102000*%
%ADD18C,1.102000*%
%ADD19C,1.802000*%
%ADD20C,2.002000*%
%ADD21C,4.102000*%
%ADD22R,1.626000X1.626000*%
G04 APERTURE END LIST*
D10*
X99023571Y-110732142D02*
X98880714Y-110803571D01*
X98595000Y-110803571D01*
X98452142Y-110732142D01*
X98380714Y-110589285D01*
X98380714Y-110017857D01*
X98452142Y-109875000D01*
X98595000Y-109803571D01*
X98880714Y-109803571D01*
X99023571Y-109875000D01*
X99095000Y-110017857D01*
X99095000Y-110160714D01*
X98380714Y-110303571D01*
X99737857Y-110803571D02*
X99737857Y-109803571D01*
X99737857Y-109946428D02*
X99809285Y-109875000D01*
X99952142Y-109803571D01*
X100166428Y-109803571D01*
X100309285Y-109875000D01*
X100380714Y-110017857D01*
X100380714Y-110803571D01*
X100380714Y-110017857D02*
X100452142Y-109875000D01*
X100595000Y-109803571D01*
X100809285Y-109803571D01*
X100952142Y-109875000D01*
X101023571Y-110017857D01*
X101023571Y-110803571D01*
X101737857Y-110803571D02*
X101737857Y-109303571D01*
X101880714Y-110232142D02*
X102309285Y-110803571D01*
X102309285Y-109803571D02*
X101737857Y-110375000D01*
X103523571Y-110732142D02*
X103380714Y-110803571D01*
X103095000Y-110803571D01*
X102952142Y-110732142D01*
X102880714Y-110589285D01*
X102880714Y-110017857D01*
X102952142Y-109875000D01*
X103095000Y-109803571D01*
X103380714Y-109803571D01*
X103523571Y-109875000D01*
X103595000Y-110017857D01*
X103595000Y-110160714D01*
X102880714Y-110303571D01*
X104809285Y-110732142D02*
X104666428Y-110803571D01*
X104380714Y-110803571D01*
X104237857Y-110732142D01*
X104166428Y-110589285D01*
X104166428Y-110017857D01*
X104237857Y-109875000D01*
X104380714Y-109803571D01*
X104666428Y-109803571D01*
X104809285Y-109875000D01*
X104880714Y-110017857D01*
X104880714Y-110160714D01*
X104166428Y-110303571D01*
X106309285Y-110803571D02*
X105452142Y-110803571D01*
X105880714Y-110803571D02*
X105880714Y-109303571D01*
X105737857Y-109517857D01*
X105595000Y-109660714D01*
X105452142Y-109732142D01*
X107237857Y-109303571D02*
X107380714Y-109303571D01*
X107523571Y-109375000D01*
X107595000Y-109446428D01*
X107666428Y-109589285D01*
X107737857Y-109875000D01*
X107737857Y-110232142D01*
X107666428Y-110517857D01*
X107595000Y-110660714D01*
X107523571Y-110732142D01*
X107380714Y-110803571D01*
X107237857Y-110803571D01*
X107095000Y-110732142D01*
X107023571Y-110660714D01*
X106952142Y-110517857D01*
X106880714Y-110232142D01*
X106880714Y-109875000D01*
X106952142Y-109589285D01*
X107023571Y-109446428D01*
X107095000Y-109375000D01*
X107237857Y-109303571D01*
X108380714Y-110803571D02*
X108380714Y-109803571D01*
X108380714Y-109946428D02*
X108452142Y-109875000D01*
X108595000Y-109803571D01*
X108809285Y-109803571D01*
X108952142Y-109875000D01*
X109023571Y-110017857D01*
X109023571Y-110803571D01*
X109023571Y-110017857D02*
X109095000Y-109875000D01*
X109237857Y-109803571D01*
X109452142Y-109803571D01*
X109595000Y-109875000D01*
X109666428Y-110017857D01*
X109666428Y-110803571D01*
X111380714Y-109803571D02*
X111737857Y-110803571D01*
X112095000Y-109803571D01*
X113237857Y-110732142D02*
X113095000Y-110803571D01*
X112809285Y-110803571D01*
X112666428Y-110732142D01*
X112595000Y-110589285D01*
X112595000Y-110017857D01*
X112666428Y-109875000D01*
X112809285Y-109803571D01*
X113095000Y-109803571D01*
X113237857Y-109875000D01*
X113309285Y-110017857D01*
X113309285Y-110160714D01*
X112595000Y-110303571D01*
X113952142Y-110803571D02*
X113952142Y-109803571D01*
X113952142Y-110089285D02*
X114023571Y-109946428D01*
X114095000Y-109875000D01*
X114237857Y-109803571D01*
X114380714Y-109803571D01*
X114809285Y-110732142D02*
X114952142Y-110803571D01*
X115237857Y-110803571D01*
X115380714Y-110732142D01*
X115452142Y-110589285D01*
X115452142Y-110517857D01*
X115380714Y-110375000D01*
X115237857Y-110303571D01*
X115023571Y-110303571D01*
X114880714Y-110232142D01*
X114809285Y-110089285D01*
X114809285Y-110017857D01*
X114880714Y-109875000D01*
X115023571Y-109803571D01*
X115237857Y-109803571D01*
X115380714Y-109875000D01*
X116095000Y-110803571D02*
X116095000Y-109803571D01*
X116095000Y-109303571D02*
X116023571Y-109375000D01*
X116095000Y-109446428D01*
X116166428Y-109375000D01*
X116095000Y-109303571D01*
X116095000Y-109446428D01*
X117023571Y-110803571D02*
X116880714Y-110732142D01*
X116809285Y-110660714D01*
X116737857Y-110517857D01*
X116737857Y-110089285D01*
X116809285Y-109946428D01*
X116880714Y-109875000D01*
X117023571Y-109803571D01*
X117237857Y-109803571D01*
X117380714Y-109875000D01*
X117452142Y-109946428D01*
X117523571Y-110089285D01*
X117523571Y-110517857D01*
X117452142Y-110660714D01*
X117380714Y-110732142D01*
X117237857Y-110803571D01*
X117023571Y-110803571D01*
X118166428Y-109803571D02*
X118166428Y-110803571D01*
X118166428Y-109946428D02*
X118237857Y-109875000D01*
X118380714Y-109803571D01*
X118595000Y-109803571D01*
X118737857Y-109875000D01*
X118809285Y-110017857D01*
X118809285Y-110803571D01*
X121452142Y-110803571D02*
X120595000Y-110803571D01*
X121023571Y-110803571D02*
X121023571Y-109303571D01*
X120880714Y-109517857D01*
X120737857Y-109660714D01*
X120595000Y-109732142D01*
X122095000Y-110660714D02*
X122166428Y-110732142D01*
X122095000Y-110803571D01*
X122023571Y-110732142D01*
X122095000Y-110660714D01*
X122095000Y-110803571D01*
X123095000Y-109303571D02*
X123237857Y-109303571D01*
X123380714Y-109375000D01*
X123452142Y-109446428D01*
X123523571Y-109589285D01*
X123595000Y-109875000D01*
X123595000Y-110232142D01*
X123523571Y-110517857D01*
X123452142Y-110660714D01*
X123380714Y-110732142D01*
X123237857Y-110803571D01*
X123095000Y-110803571D01*
X122952142Y-110732142D01*
X122880714Y-110660714D01*
X122809285Y-110517857D01*
X122737857Y-110232142D01*
X122737857Y-109875000D01*
X122809285Y-109589285D01*
X122880714Y-109446428D01*
X122952142Y-109375000D01*
X123095000Y-109303571D01*
X98452142Y-113353571D02*
X98452142Y-111853571D01*
X98809285Y-111853571D01*
X99023571Y-111925000D01*
X99166428Y-112067857D01*
X99237857Y-112210714D01*
X99309285Y-112496428D01*
X99309285Y-112710714D01*
X99237857Y-112996428D01*
X99166428Y-113139285D01*
X99023571Y-113282142D01*
X98809285Y-113353571D01*
X98452142Y-113353571D01*
X100523571Y-113282142D02*
X100380714Y-113353571D01*
X100095000Y-113353571D01*
X99952142Y-113282142D01*
X99880714Y-113139285D01*
X99880714Y-112567857D01*
X99952142Y-112425000D01*
X100095000Y-112353571D01*
X100380714Y-112353571D01*
X100523571Y-112425000D01*
X100595000Y-112567857D01*
X100595000Y-112710714D01*
X99880714Y-112853571D01*
X101166428Y-113282142D02*
X101309285Y-113353571D01*
X101595000Y-113353571D01*
X101737857Y-113282142D01*
X101809285Y-113139285D01*
X101809285Y-113067857D01*
X101737857Y-112925000D01*
X101595000Y-112853571D01*
X101380714Y-112853571D01*
X101237857Y-112782142D01*
X101166428Y-112639285D01*
X101166428Y-112567857D01*
X101237857Y-112425000D01*
X101380714Y-112353571D01*
X101595000Y-112353571D01*
X101737857Y-112425000D01*
X102452142Y-113353571D02*
X102452142Y-112353571D01*
X102452142Y-111853571D02*
X102380714Y-111925000D01*
X102452142Y-111996428D01*
X102523571Y-111925000D01*
X102452142Y-111853571D01*
X102452142Y-111996428D01*
X103809285Y-112353571D02*
X103809285Y-113567857D01*
X103737857Y-113710714D01*
X103666428Y-113782142D01*
X103523571Y-113853571D01*
X103309285Y-113853571D01*
X103166428Y-113782142D01*
X103809285Y-113282142D02*
X103666428Y-113353571D01*
X103380714Y-113353571D01*
X103237857Y-113282142D01*
X103166428Y-113210714D01*
X103095000Y-113067857D01*
X103095000Y-112639285D01*
X103166428Y-112496428D01*
X103237857Y-112425000D01*
X103380714Y-112353571D01*
X103666428Y-112353571D01*
X103809285Y-112425000D01*
X104523571Y-112353571D02*
X104523571Y-113353571D01*
X104523571Y-112496428D02*
X104595000Y-112425000D01*
X104737857Y-112353571D01*
X104952142Y-112353571D01*
X105095000Y-112425000D01*
X105166428Y-112567857D01*
X105166428Y-113353571D01*
X106452142Y-113282142D02*
X106309285Y-113353571D01*
X106023571Y-113353571D01*
X105880714Y-113282142D01*
X105809285Y-113139285D01*
X105809285Y-112567857D01*
X105880714Y-112425000D01*
X106023571Y-112353571D01*
X106309285Y-112353571D01*
X106452142Y-112425000D01*
X106523571Y-112567857D01*
X106523571Y-112710714D01*
X105809285Y-112853571D01*
X107809285Y-113353571D02*
X107809285Y-111853571D01*
X107809285Y-113282142D02*
X107666428Y-113353571D01*
X107380714Y-113353571D01*
X107237857Y-113282142D01*
X107166428Y-113210714D01*
X107095000Y-113067857D01*
X107095000Y-112639285D01*
X107166428Y-112496428D01*
X107237857Y-112425000D01*
X107380714Y-112353571D01*
X107666428Y-112353571D01*
X107809285Y-112425000D01*
X109666428Y-113353571D02*
X109666428Y-111853571D01*
X109666428Y-112425000D02*
X109809285Y-112353571D01*
X110095000Y-112353571D01*
X110237857Y-112425000D01*
X110309285Y-112496428D01*
X110380714Y-112639285D01*
X110380714Y-113067857D01*
X110309285Y-113210714D01*
X110237857Y-113282142D01*
X110095000Y-113353571D01*
X109809285Y-113353571D01*
X109666428Y-113282142D01*
X110880714Y-112353571D02*
X111237857Y-113353571D01*
X111595000Y-112353571D02*
X111237857Y-113353571D01*
X111095000Y-113710714D01*
X111023571Y-113782142D01*
X110880714Y-113853571D01*
X113309285Y-113353571D02*
X113309285Y-112353571D01*
X113309285Y-112496428D02*
X113380714Y-112425000D01*
X113523571Y-112353571D01*
X113737857Y-112353571D01*
X113880714Y-112425000D01*
X113952142Y-112567857D01*
X113952142Y-113353571D01*
X113952142Y-112567857D02*
X114023571Y-112425000D01*
X114166428Y-112353571D01*
X114380714Y-112353571D01*
X114523571Y-112425000D01*
X114595000Y-112567857D01*
X114595000Y-113353571D01*
X115309285Y-113353571D02*
X115309285Y-111853571D01*
X115452142Y-112782142D02*
X115880714Y-113353571D01*
X115880714Y-112353571D02*
X115309285Y-112925000D01*
X116380714Y-112353571D02*
X116737857Y-113353571D01*
X117095000Y-112353571D02*
X116737857Y-113353571D01*
X116595000Y-113710714D01*
X116523571Y-113782142D01*
X116380714Y-113853571D01*
X117523571Y-112353571D02*
X118309285Y-112353571D01*
X117523571Y-113353571D01*
X118309285Y-113353571D01*
X119166428Y-111853571D02*
X119309285Y-111853571D01*
X119452142Y-111925000D01*
X119523571Y-111996428D01*
X119595000Y-112139285D01*
X119666428Y-112425000D01*
X119666428Y-112782142D01*
X119595000Y-113067857D01*
X119523571Y-113210714D01*
X119452142Y-113282142D01*
X119309285Y-113353571D01*
X119166428Y-113353571D01*
X119023571Y-113282142D01*
X118952142Y-113210714D01*
X118880714Y-113067857D01*
X118809285Y-112782142D01*
X118809285Y-112425000D01*
X118880714Y-112139285D01*
X118952142Y-111996428D01*
X119023571Y-111925000D01*
X119166428Y-111853571D01*
X120523571Y-112496428D02*
X120380714Y-112425000D01*
X120309285Y-112353571D01*
X120237857Y-112210714D01*
X120237857Y-112139285D01*
X120309285Y-111996428D01*
X120380714Y-111925000D01*
X120523571Y-111853571D01*
X120809285Y-111853571D01*
X120952142Y-111925000D01*
X121023571Y-111996428D01*
X121095000Y-112139285D01*
X121095000Y-112210714D01*
X121023571Y-112353571D01*
X120952142Y-112425000D01*
X120809285Y-112496428D01*
X120523571Y-112496428D01*
X120380714Y-112567857D01*
X120309285Y-112639285D01*
X120237857Y-112782142D01*
X120237857Y-113067857D01*
X120309285Y-113210714D01*
X120380714Y-113282142D01*
X120523571Y-113353571D01*
X120809285Y-113353571D01*
X120952142Y-113282142D01*
X121023571Y-113210714D01*
X121095000Y-113067857D01*
X121095000Y-112782142D01*
X121023571Y-112639285D01*
X120952142Y-112567857D01*
X120809285Y-112496428D01*
D11*
X156800000Y-76150000D02*
X155790000Y-76150000D01*
X139000000Y-76150000D02*
X140000000Y-76150000D01*
X156800000Y-75150000D02*
X156800000Y-76150000D01*
X139000000Y-75100000D02*
X139000000Y-76150000D01*
X156800000Y-43100000D02*
X155850000Y-43100000D01*
X139000000Y-43100000D02*
X140000000Y-43100000D01*
X156800000Y-43100000D02*
X156800000Y-44100000D01*
X139000000Y-43100000D02*
X139000000Y-44100000D01*
X144150000Y-40200000D02*
X144150000Y-41500000D01*
X144150000Y-41500000D02*
X151650000Y-41500000D01*
X151650000Y-41500000D02*
X151650000Y-40200000D01*
X151650000Y-40200000D02*
X144150000Y-40200000D01*
X147400000Y-40550000D02*
X148400000Y-40550000D01*
X148400000Y-40550000D02*
X147900000Y-41200000D01*
X147900000Y-41200000D02*
X147400000Y-40550000D01*
X147550000Y-40700000D02*
X148250000Y-40700000D01*
X147650000Y-40850000D02*
X148150000Y-40850000D01*
X147750000Y-41000000D02*
X148050000Y-41000000D01*
X99351904Y-76732380D02*
X99351904Y-75732380D01*
X99590000Y-75732380D01*
X99732857Y-75780000D01*
X99828095Y-75875238D01*
X99875714Y-75970476D01*
X99923333Y-76160952D01*
X99923333Y-76303809D01*
X99875714Y-76494285D01*
X99828095Y-76589523D01*
X99732857Y-76684761D01*
X99590000Y-76732380D01*
X99351904Y-76732380D01*
X100828095Y-75732380D02*
X100351904Y-75732380D01*
X100304285Y-76208571D01*
X100351904Y-76160952D01*
X100447142Y-76113333D01*
X100685238Y-76113333D01*
X100780476Y-76160952D01*
X100828095Y-76208571D01*
X100875714Y-76303809D01*
X100875714Y-76541904D01*
X100828095Y-76637142D01*
X100780476Y-76684761D01*
X100685238Y-76732380D01*
X100447142Y-76732380D01*
X100351904Y-76684761D01*
X100304285Y-76637142D01*
D12*
X137242380Y-47239285D02*
X137019047Y-46882142D01*
X136859523Y-47239285D02*
X136859523Y-46489285D01*
X137114761Y-46489285D01*
X137178571Y-46525000D01*
X137210476Y-46560714D01*
X137242380Y-46632142D01*
X137242380Y-46739285D01*
X137210476Y-46810714D01*
X137178571Y-46846428D01*
X137114761Y-46882142D01*
X136859523Y-46882142D01*
X137497619Y-47025000D02*
X137816666Y-47025000D01*
X137433809Y-47239285D02*
X137657142Y-46489285D01*
X137880476Y-47239285D01*
X138040000Y-46489285D02*
X138199523Y-47239285D01*
X138327142Y-46703571D01*
X138454761Y-47239285D01*
X138614285Y-46489285D01*
X137194523Y-49075000D02*
X137130714Y-49039285D01*
X137035000Y-49039285D01*
X136939285Y-49075000D01*
X136875476Y-49146428D01*
X136843571Y-49217857D01*
X136811666Y-49360714D01*
X136811666Y-49467857D01*
X136843571Y-49610714D01*
X136875476Y-49682142D01*
X136939285Y-49753571D01*
X137035000Y-49789285D01*
X137098809Y-49789285D01*
X137194523Y-49753571D01*
X137226428Y-49717857D01*
X137226428Y-49467857D01*
X137098809Y-49467857D01*
X137513571Y-49789285D02*
X137513571Y-49039285D01*
X137896428Y-49789285D01*
X137896428Y-49039285D01*
X138215476Y-49789285D02*
X138215476Y-49039285D01*
X138375000Y-49039285D01*
X138470714Y-49075000D01*
X138534523Y-49146428D01*
X138566428Y-49217857D01*
X138598333Y-49360714D01*
X138598333Y-49467857D01*
X138566428Y-49610714D01*
X138534523Y-49682142D01*
X138470714Y-49753571D01*
X138375000Y-49789285D01*
X138215476Y-49789285D01*
X137338095Y-52339285D02*
X137114761Y-51982142D01*
X136955238Y-52339285D02*
X136955238Y-51589285D01*
X137210476Y-51589285D01*
X137274285Y-51625000D01*
X137306190Y-51660714D01*
X137338095Y-51732142D01*
X137338095Y-51839285D01*
X137306190Y-51910714D01*
X137274285Y-51946428D01*
X137210476Y-51982142D01*
X136955238Y-51982142D01*
X137593333Y-52303571D02*
X137689047Y-52339285D01*
X137848571Y-52339285D01*
X137912380Y-52303571D01*
X137944285Y-52267857D01*
X137976190Y-52196428D01*
X137976190Y-52125000D01*
X137944285Y-52053571D01*
X137912380Y-52017857D01*
X137848571Y-51982142D01*
X137720952Y-51946428D01*
X137657142Y-51910714D01*
X137625238Y-51875000D01*
X137593333Y-51803571D01*
X137593333Y-51732142D01*
X137625238Y-51660714D01*
X137657142Y-51625000D01*
X137720952Y-51589285D01*
X137880476Y-51589285D01*
X137976190Y-51625000D01*
X138167619Y-51589285D02*
X138550476Y-51589285D01*
X138359047Y-52339285D02*
X138359047Y-51589285D01*
X136811666Y-54039285D02*
X137035000Y-54789285D01*
X137258333Y-54039285D01*
X137864523Y-54717857D02*
X137832619Y-54753571D01*
X137736904Y-54789285D01*
X137673095Y-54789285D01*
X137577380Y-54753571D01*
X137513571Y-54682142D01*
X137481666Y-54610714D01*
X137449761Y-54467857D01*
X137449761Y-54360714D01*
X137481666Y-54217857D01*
X137513571Y-54146428D01*
X137577380Y-54075000D01*
X137673095Y-54039285D01*
X137736904Y-54039285D01*
X137832619Y-54075000D01*
X137864523Y-54110714D01*
X138534523Y-54717857D02*
X138502619Y-54753571D01*
X138406904Y-54789285D01*
X138343095Y-54789285D01*
X138247380Y-54753571D01*
X138183571Y-54682142D01*
X138151666Y-54610714D01*
X138119761Y-54467857D01*
X138119761Y-54360714D01*
X138151666Y-54217857D01*
X138183571Y-54146428D01*
X138247380Y-54075000D01*
X138343095Y-54039285D01*
X138406904Y-54039285D01*
X138502619Y-54075000D01*
X138534523Y-54110714D01*
X135619285Y-57275000D02*
X135938333Y-57275000D01*
X135555476Y-57489285D02*
X135778809Y-56739285D01*
X136002142Y-57489285D01*
X136161666Y-56739285D02*
X136576428Y-56739285D01*
X136353095Y-57025000D01*
X136448809Y-57025000D01*
X136512619Y-57060714D01*
X136544523Y-57096428D01*
X136576428Y-57167857D01*
X136576428Y-57346428D01*
X136544523Y-57417857D01*
X136512619Y-57453571D01*
X136448809Y-57489285D01*
X136257380Y-57489285D01*
X136193571Y-57453571D01*
X136161666Y-57417857D01*
X137342142Y-56703571D02*
X136767857Y-57667857D01*
X137788809Y-57096428D02*
X137565476Y-57096428D01*
X137565476Y-57489285D02*
X137565476Y-56739285D01*
X137884523Y-56739285D01*
X138426904Y-56989285D02*
X138426904Y-57489285D01*
X138267380Y-56703571D02*
X138107857Y-57239285D01*
X138522619Y-57239285D01*
X135619285Y-59775000D02*
X135938333Y-59775000D01*
X135555476Y-59989285D02*
X135778809Y-59239285D01*
X136002142Y-59989285D01*
X136193571Y-59310714D02*
X136225476Y-59275000D01*
X136289285Y-59239285D01*
X136448809Y-59239285D01*
X136512619Y-59275000D01*
X136544523Y-59310714D01*
X136576428Y-59382142D01*
X136576428Y-59453571D01*
X136544523Y-59560714D01*
X136161666Y-59989285D01*
X136576428Y-59989285D01*
X137342142Y-59203571D02*
X136767857Y-60167857D01*
X137788809Y-59596428D02*
X137565476Y-59596428D01*
X137565476Y-59989285D02*
X137565476Y-59239285D01*
X137884523Y-59239285D01*
X138458809Y-59239285D02*
X138139761Y-59239285D01*
X138107857Y-59596428D01*
X138139761Y-59560714D01*
X138203571Y-59525000D01*
X138363095Y-59525000D01*
X138426904Y-59560714D01*
X138458809Y-59596428D01*
X138490714Y-59667857D01*
X138490714Y-59846428D01*
X138458809Y-59917857D01*
X138426904Y-59953571D01*
X138363095Y-59989285D01*
X138203571Y-59989285D01*
X138139761Y-59953571D01*
X138107857Y-59917857D01*
X135619285Y-62275000D02*
X135938333Y-62275000D01*
X135555476Y-62489285D02*
X135778809Y-61739285D01*
X136002142Y-62489285D01*
X136576428Y-62489285D02*
X136193571Y-62489285D01*
X136385000Y-62489285D02*
X136385000Y-61739285D01*
X136321190Y-61846428D01*
X136257380Y-61917857D01*
X136193571Y-61953571D01*
X137342142Y-61703571D02*
X136767857Y-62667857D01*
X137788809Y-62096428D02*
X137565476Y-62096428D01*
X137565476Y-62489285D02*
X137565476Y-61739285D01*
X137884523Y-61739285D01*
X138426904Y-61739285D02*
X138299285Y-61739285D01*
X138235476Y-61775000D01*
X138203571Y-61810714D01*
X138139761Y-61917857D01*
X138107857Y-62060714D01*
X138107857Y-62346428D01*
X138139761Y-62417857D01*
X138171666Y-62453571D01*
X138235476Y-62489285D01*
X138363095Y-62489285D01*
X138426904Y-62453571D01*
X138458809Y-62417857D01*
X138490714Y-62346428D01*
X138490714Y-62167857D01*
X138458809Y-62096428D01*
X138426904Y-62060714D01*
X138363095Y-62025000D01*
X138235476Y-62025000D01*
X138171666Y-62060714D01*
X138139761Y-62096428D01*
X138107857Y-62167857D01*
X135619285Y-64825000D02*
X135938333Y-64825000D01*
X135555476Y-65039285D02*
X135778809Y-64289285D01*
X136002142Y-65039285D01*
X136353095Y-64289285D02*
X136416904Y-64289285D01*
X136480714Y-64325000D01*
X136512619Y-64360714D01*
X136544523Y-64432142D01*
X136576428Y-64575000D01*
X136576428Y-64753571D01*
X136544523Y-64896428D01*
X136512619Y-64967857D01*
X136480714Y-65003571D01*
X136416904Y-65039285D01*
X136353095Y-65039285D01*
X136289285Y-65003571D01*
X136257380Y-64967857D01*
X136225476Y-64896428D01*
X136193571Y-64753571D01*
X136193571Y-64575000D01*
X136225476Y-64432142D01*
X136257380Y-64360714D01*
X136289285Y-64325000D01*
X136353095Y-64289285D01*
X137342142Y-64253571D02*
X136767857Y-65217857D01*
X137788809Y-64646428D02*
X137565476Y-64646428D01*
X137565476Y-65039285D02*
X137565476Y-64289285D01*
X137884523Y-64289285D01*
X138075952Y-64289285D02*
X138522619Y-64289285D01*
X138235476Y-65039285D01*
X135922380Y-67589285D02*
X135539523Y-67589285D01*
X135730952Y-67589285D02*
X135730952Y-66839285D01*
X135667142Y-66946428D01*
X135603333Y-67017857D01*
X135539523Y-67053571D01*
X136528571Y-66839285D02*
X136209523Y-66839285D01*
X136177619Y-67196428D01*
X136209523Y-67160714D01*
X136273333Y-67125000D01*
X136432857Y-67125000D01*
X136496666Y-67160714D01*
X136528571Y-67196428D01*
X136560476Y-67267857D01*
X136560476Y-67446428D01*
X136528571Y-67517857D01*
X136496666Y-67553571D01*
X136432857Y-67589285D01*
X136273333Y-67589285D01*
X136209523Y-67553571D01*
X136177619Y-67517857D01*
X137326190Y-66803571D02*
X136751904Y-67767857D01*
X137772857Y-67196428D02*
X137868571Y-67232142D01*
X137900476Y-67267857D01*
X137932380Y-67339285D01*
X137932380Y-67446428D01*
X137900476Y-67517857D01*
X137868571Y-67553571D01*
X137804761Y-67589285D01*
X137549523Y-67589285D01*
X137549523Y-66839285D01*
X137772857Y-66839285D01*
X137836666Y-66875000D01*
X137868571Y-66910714D01*
X137900476Y-66982142D01*
X137900476Y-67053571D01*
X137868571Y-67125000D01*
X137836666Y-67160714D01*
X137772857Y-67196428D01*
X137549523Y-67196428D01*
X138570476Y-67589285D02*
X138187619Y-67589285D01*
X138379047Y-67589285D02*
X138379047Y-66839285D01*
X138315238Y-66946428D01*
X138251428Y-67017857D01*
X138187619Y-67053571D01*
X135922380Y-70139285D02*
X135539523Y-70139285D01*
X135730952Y-70139285D02*
X135730952Y-69389285D01*
X135667142Y-69496428D01*
X135603333Y-69567857D01*
X135539523Y-69603571D01*
X136496666Y-69639285D02*
X136496666Y-70139285D01*
X136337142Y-69353571D02*
X136177619Y-69889285D01*
X136592380Y-69889285D01*
X137326190Y-69353571D02*
X136751904Y-70317857D01*
X137772857Y-69746428D02*
X137868571Y-69782142D01*
X137900476Y-69817857D01*
X137932380Y-69889285D01*
X137932380Y-69996428D01*
X137900476Y-70067857D01*
X137868571Y-70103571D01*
X137804761Y-70139285D01*
X137549523Y-70139285D01*
X137549523Y-69389285D01*
X137772857Y-69389285D01*
X137836666Y-69425000D01*
X137868571Y-69460714D01*
X137900476Y-69532142D01*
X137900476Y-69603571D01*
X137868571Y-69675000D01*
X137836666Y-69710714D01*
X137772857Y-69746428D01*
X137549523Y-69746428D01*
X138155714Y-69389285D02*
X138570476Y-69389285D01*
X138347142Y-69675000D01*
X138442857Y-69675000D01*
X138506666Y-69710714D01*
X138538571Y-69746428D01*
X138570476Y-69817857D01*
X138570476Y-69996428D01*
X138538571Y-70067857D01*
X138506666Y-70103571D01*
X138442857Y-70139285D01*
X138251428Y-70139285D01*
X138187619Y-70103571D01*
X138155714Y-70067857D01*
X135922380Y-75189285D02*
X135539523Y-75189285D01*
X135730952Y-75189285D02*
X135730952Y-74439285D01*
X135667142Y-74546428D01*
X135603333Y-74617857D01*
X135539523Y-74653571D01*
X136337142Y-74439285D02*
X136400952Y-74439285D01*
X136464761Y-74475000D01*
X136496666Y-74510714D01*
X136528571Y-74582142D01*
X136560476Y-74725000D01*
X136560476Y-74903571D01*
X136528571Y-75046428D01*
X136496666Y-75117857D01*
X136464761Y-75153571D01*
X136400952Y-75189285D01*
X136337142Y-75189285D01*
X136273333Y-75153571D01*
X136241428Y-75117857D01*
X136209523Y-75046428D01*
X136177619Y-74903571D01*
X136177619Y-74725000D01*
X136209523Y-74582142D01*
X136241428Y-74510714D01*
X136273333Y-74475000D01*
X136337142Y-74439285D01*
X137326190Y-74403571D02*
X136751904Y-75367857D01*
X137772857Y-74796428D02*
X137868571Y-74832142D01*
X137900476Y-74867857D01*
X137932380Y-74939285D01*
X137932380Y-75046428D01*
X137900476Y-75117857D01*
X137868571Y-75153571D01*
X137804761Y-75189285D01*
X137549523Y-75189285D01*
X137549523Y-74439285D01*
X137772857Y-74439285D01*
X137836666Y-74475000D01*
X137868571Y-74510714D01*
X137900476Y-74582142D01*
X137900476Y-74653571D01*
X137868571Y-74725000D01*
X137836666Y-74760714D01*
X137772857Y-74796428D01*
X137549523Y-74796428D01*
X138506666Y-74439285D02*
X138379047Y-74439285D01*
X138315238Y-74475000D01*
X138283333Y-74510714D01*
X138219523Y-74617857D01*
X138187619Y-74760714D01*
X138187619Y-75046428D01*
X138219523Y-75117857D01*
X138251428Y-75153571D01*
X138315238Y-75189285D01*
X138442857Y-75189285D01*
X138506666Y-75153571D01*
X138538571Y-75117857D01*
X138570476Y-75046428D01*
X138570476Y-74867857D01*
X138538571Y-74796428D01*
X138506666Y-74760714D01*
X138442857Y-74725000D01*
X138315238Y-74725000D01*
X138251428Y-74760714D01*
X138219523Y-74796428D01*
X138187619Y-74867857D01*
X135922380Y-72689285D02*
X135539523Y-72689285D01*
X135730952Y-72689285D02*
X135730952Y-71939285D01*
X135667142Y-72046428D01*
X135603333Y-72117857D01*
X135539523Y-72153571D01*
X136496666Y-71939285D02*
X136369047Y-71939285D01*
X136305238Y-71975000D01*
X136273333Y-72010714D01*
X136209523Y-72117857D01*
X136177619Y-72260714D01*
X136177619Y-72546428D01*
X136209523Y-72617857D01*
X136241428Y-72653571D01*
X136305238Y-72689285D01*
X136432857Y-72689285D01*
X136496666Y-72653571D01*
X136528571Y-72617857D01*
X136560476Y-72546428D01*
X136560476Y-72367857D01*
X136528571Y-72296428D01*
X136496666Y-72260714D01*
X136432857Y-72225000D01*
X136305238Y-72225000D01*
X136241428Y-72260714D01*
X136209523Y-72296428D01*
X136177619Y-72367857D01*
X137326190Y-71903571D02*
X136751904Y-72867857D01*
X137772857Y-72296428D02*
X137868571Y-72332142D01*
X137900476Y-72367857D01*
X137932380Y-72439285D01*
X137932380Y-72546428D01*
X137900476Y-72617857D01*
X137868571Y-72653571D01*
X137804761Y-72689285D01*
X137549523Y-72689285D01*
X137549523Y-71939285D01*
X137772857Y-71939285D01*
X137836666Y-71975000D01*
X137868571Y-72010714D01*
X137900476Y-72082142D01*
X137900476Y-72153571D01*
X137868571Y-72225000D01*
X137836666Y-72260714D01*
X137772857Y-72296428D01*
X137549523Y-72296428D01*
X138187619Y-72010714D02*
X138219523Y-71975000D01*
X138283333Y-71939285D01*
X138442857Y-71939285D01*
X138506666Y-71975000D01*
X138538571Y-72010714D01*
X138570476Y-72082142D01*
X138570476Y-72153571D01*
X138538571Y-72260714D01*
X138155714Y-72689285D01*
X138570476Y-72689285D01*
X157372380Y-69696428D02*
X157595714Y-69696428D01*
X157691428Y-70089285D02*
X157372380Y-70089285D01*
X157372380Y-69339285D01*
X157691428Y-69339285D01*
X158265714Y-69339285D02*
X158138095Y-69339285D01*
X158074285Y-69375000D01*
X158042380Y-69410714D01*
X157978571Y-69517857D01*
X157946666Y-69660714D01*
X157946666Y-69946428D01*
X157978571Y-70017857D01*
X158010476Y-70053571D01*
X158074285Y-70089285D01*
X158201904Y-70089285D01*
X158265714Y-70053571D01*
X158297619Y-70017857D01*
X158329523Y-69946428D01*
X158329523Y-69767857D01*
X158297619Y-69696428D01*
X158265714Y-69660714D01*
X158201904Y-69625000D01*
X158074285Y-69625000D01*
X158010476Y-69660714D01*
X157978571Y-69696428D01*
X157946666Y-69767857D01*
X159095238Y-69303571D02*
X158520952Y-70267857D01*
X159254761Y-69339285D02*
X159701428Y-69339285D01*
X159414285Y-70089285D01*
X157340476Y-67539285D02*
X157340476Y-66789285D01*
X157500000Y-66789285D01*
X157595714Y-66825000D01*
X157659523Y-66896428D01*
X157691428Y-66967857D01*
X157723333Y-67110714D01*
X157723333Y-67217857D01*
X157691428Y-67360714D01*
X157659523Y-67432142D01*
X157595714Y-67503571D01*
X157500000Y-67539285D01*
X157340476Y-67539285D01*
X157946666Y-66789285D02*
X158393333Y-66789285D01*
X158106190Y-67539285D01*
X159127142Y-66753571D02*
X158552857Y-67717857D01*
X159637619Y-66789285D02*
X159510000Y-66789285D01*
X159446190Y-66825000D01*
X159414285Y-66860714D01*
X159350476Y-66967857D01*
X159318571Y-67110714D01*
X159318571Y-67396428D01*
X159350476Y-67467857D01*
X159382380Y-67503571D01*
X159446190Y-67539285D01*
X159573809Y-67539285D01*
X159637619Y-67503571D01*
X159669523Y-67467857D01*
X159701428Y-67396428D01*
X159701428Y-67217857D01*
X159669523Y-67146428D01*
X159637619Y-67110714D01*
X159573809Y-67075000D01*
X159446190Y-67075000D01*
X159382380Y-67110714D01*
X159350476Y-67146428D01*
X159318571Y-67217857D01*
X157494523Y-51725000D02*
X157430714Y-51689285D01*
X157335000Y-51689285D01*
X157239285Y-51725000D01*
X157175476Y-51796428D01*
X157143571Y-51867857D01*
X157111666Y-52010714D01*
X157111666Y-52117857D01*
X157143571Y-52260714D01*
X157175476Y-52332142D01*
X157239285Y-52403571D01*
X157335000Y-52439285D01*
X157398809Y-52439285D01*
X157494523Y-52403571D01*
X157526428Y-52367857D01*
X157526428Y-52117857D01*
X157398809Y-52117857D01*
X157813571Y-52439285D02*
X157813571Y-51689285D01*
X158196428Y-52439285D01*
X158196428Y-51689285D01*
X158515476Y-52439285D02*
X158515476Y-51689285D01*
X158675000Y-51689285D01*
X158770714Y-51725000D01*
X158834523Y-51796428D01*
X158866428Y-51867857D01*
X158898333Y-52010714D01*
X158898333Y-52117857D01*
X158866428Y-52260714D01*
X158834523Y-52332142D01*
X158770714Y-52403571D01*
X158675000Y-52439285D01*
X158515476Y-52439285D01*
X157494523Y-54175000D02*
X157430714Y-54139285D01*
X157335000Y-54139285D01*
X157239285Y-54175000D01*
X157175476Y-54246428D01*
X157143571Y-54317857D01*
X157111666Y-54460714D01*
X157111666Y-54567857D01*
X157143571Y-54710714D01*
X157175476Y-54782142D01*
X157239285Y-54853571D01*
X157335000Y-54889285D01*
X157398809Y-54889285D01*
X157494523Y-54853571D01*
X157526428Y-54817857D01*
X157526428Y-54567857D01*
X157398809Y-54567857D01*
X157813571Y-54889285D02*
X157813571Y-54139285D01*
X158196428Y-54889285D01*
X158196428Y-54139285D01*
X158515476Y-54889285D02*
X158515476Y-54139285D01*
X158675000Y-54139285D01*
X158770714Y-54175000D01*
X158834523Y-54246428D01*
X158866428Y-54317857D01*
X158898333Y-54460714D01*
X158898333Y-54567857D01*
X158866428Y-54710714D01*
X158834523Y-54782142D01*
X158770714Y-54853571D01*
X158675000Y-54889285D01*
X158515476Y-54889285D01*
X157216190Y-47289285D02*
X157216190Y-46539285D01*
X157375714Y-46539285D01*
X157471428Y-46575000D01*
X157535238Y-46646428D01*
X157567142Y-46717857D01*
X157599047Y-46860714D01*
X157599047Y-46967857D01*
X157567142Y-47110714D01*
X157535238Y-47182142D01*
X157471428Y-47253571D01*
X157375714Y-47289285D01*
X157216190Y-47289285D01*
X157822380Y-46539285D02*
X158237142Y-46539285D01*
X158013809Y-46825000D01*
X158109523Y-46825000D01*
X158173333Y-46860714D01*
X158205238Y-46896428D01*
X158237142Y-46967857D01*
X158237142Y-47146428D01*
X158205238Y-47217857D01*
X158173333Y-47253571D01*
X158109523Y-47289285D01*
X157918095Y-47289285D01*
X157854285Y-47253571D01*
X157822380Y-47217857D01*
X159002857Y-46503571D02*
X158428571Y-47467857D01*
X159130476Y-46539285D02*
X159513333Y-46539285D01*
X159321904Y-47289285D02*
X159321904Y-46539285D01*
X159672857Y-46539285D02*
X160119523Y-47289285D01*
X160119523Y-46539285D02*
X159672857Y-47289285D01*
X160502380Y-46539285D02*
X160566190Y-46539285D01*
X160630000Y-46575000D01*
X160661904Y-46610714D01*
X160693809Y-46682142D01*
X160725714Y-46825000D01*
X160725714Y-47003571D01*
X160693809Y-47146428D01*
X160661904Y-47217857D01*
X160630000Y-47253571D01*
X160566190Y-47289285D01*
X160502380Y-47289285D01*
X160438571Y-47253571D01*
X160406666Y-47217857D01*
X160374761Y-47146428D01*
X160342857Y-47003571D01*
X160342857Y-46825000D01*
X160374761Y-46682142D01*
X160406666Y-46610714D01*
X160438571Y-46575000D01*
X160502380Y-46539285D01*
X157340476Y-62439285D02*
X157340476Y-61689285D01*
X157500000Y-61689285D01*
X157595714Y-61725000D01*
X157659523Y-61796428D01*
X157691428Y-61867857D01*
X157723333Y-62010714D01*
X157723333Y-62117857D01*
X157691428Y-62260714D01*
X157659523Y-62332142D01*
X157595714Y-62403571D01*
X157500000Y-62439285D01*
X157340476Y-62439285D01*
X158297619Y-61939285D02*
X158297619Y-62439285D01*
X158138095Y-61653571D02*
X157978571Y-62189285D01*
X158393333Y-62189285D01*
X159127142Y-61653571D02*
X158552857Y-62617857D01*
X159637619Y-61939285D02*
X159637619Y-62439285D01*
X159478095Y-61653571D02*
X159318571Y-62189285D01*
X159733333Y-62189285D01*
X157166428Y-57503571D02*
X157262142Y-57539285D01*
X157421666Y-57539285D01*
X157485476Y-57503571D01*
X157517380Y-57467857D01*
X157549285Y-57396428D01*
X157549285Y-57325000D01*
X157517380Y-57253571D01*
X157485476Y-57217857D01*
X157421666Y-57182142D01*
X157294047Y-57146428D01*
X157230238Y-57110714D01*
X157198333Y-57075000D01*
X157166428Y-57003571D01*
X157166428Y-56932142D01*
X157198333Y-56860714D01*
X157230238Y-56825000D01*
X157294047Y-56789285D01*
X157453571Y-56789285D01*
X157549285Y-56825000D01*
X157836428Y-57539285D02*
X157836428Y-56789285D01*
X157995952Y-56789285D01*
X158091666Y-56825000D01*
X158155476Y-56896428D01*
X158187380Y-56967857D01*
X158219285Y-57110714D01*
X158219285Y-57217857D01*
X158187380Y-57360714D01*
X158155476Y-57432142D01*
X158091666Y-57503571D01*
X157995952Y-57539285D01*
X157836428Y-57539285D01*
X158474523Y-57325000D02*
X158793571Y-57325000D01*
X158410714Y-57539285D02*
X158634047Y-56789285D01*
X158857380Y-57539285D01*
X159559285Y-56753571D02*
X158985000Y-57717857D01*
X159782619Y-57539285D02*
X159782619Y-56789285D01*
X159942142Y-56789285D01*
X160037857Y-56825000D01*
X160101666Y-56896428D01*
X160133571Y-56967857D01*
X160165476Y-57110714D01*
X160165476Y-57217857D01*
X160133571Y-57360714D01*
X160101666Y-57432142D01*
X160037857Y-57503571D01*
X159942142Y-57539285D01*
X159782619Y-57539285D01*
X160803571Y-57539285D02*
X160420714Y-57539285D01*
X160612142Y-57539285D02*
X160612142Y-56789285D01*
X160548333Y-56896428D01*
X160484523Y-56967857D01*
X160420714Y-57003571D01*
X161569285Y-56753571D02*
X160995000Y-57717857D01*
X161760714Y-56860714D02*
X161792619Y-56825000D01*
X161856428Y-56789285D01*
X162015952Y-56789285D01*
X162079761Y-56825000D01*
X162111666Y-56860714D01*
X162143571Y-56932142D01*
X162143571Y-57003571D01*
X162111666Y-57110714D01*
X161728809Y-57539285D01*
X162143571Y-57539285D01*
X157182380Y-60003571D02*
X157278095Y-60039285D01*
X157437619Y-60039285D01*
X157501428Y-60003571D01*
X157533333Y-59967857D01*
X157565238Y-59896428D01*
X157565238Y-59825000D01*
X157533333Y-59753571D01*
X157501428Y-59717857D01*
X157437619Y-59682142D01*
X157310000Y-59646428D01*
X157246190Y-59610714D01*
X157214285Y-59575000D01*
X157182380Y-59503571D01*
X157182380Y-59432142D01*
X157214285Y-59360714D01*
X157246190Y-59325000D01*
X157310000Y-59289285D01*
X157469523Y-59289285D01*
X157565238Y-59325000D01*
X158235238Y-59967857D02*
X158203333Y-60003571D01*
X158107619Y-60039285D01*
X158043809Y-60039285D01*
X157948095Y-60003571D01*
X157884285Y-59932142D01*
X157852380Y-59860714D01*
X157820476Y-59717857D01*
X157820476Y-59610714D01*
X157852380Y-59467857D01*
X157884285Y-59396428D01*
X157948095Y-59325000D01*
X158043809Y-59289285D01*
X158107619Y-59289285D01*
X158203333Y-59325000D01*
X158235238Y-59360714D01*
X158841428Y-60039285D02*
X158522380Y-60039285D01*
X158522380Y-59289285D01*
X159543333Y-59253571D02*
X158969047Y-60217857D01*
X159766666Y-60039285D02*
X159766666Y-59289285D01*
X159926190Y-59289285D01*
X160021904Y-59325000D01*
X160085714Y-59396428D01*
X160117619Y-59467857D01*
X160149523Y-59610714D01*
X160149523Y-59717857D01*
X160117619Y-59860714D01*
X160085714Y-59932142D01*
X160021904Y-60003571D01*
X159926190Y-60039285D01*
X159766666Y-60039285D01*
X160564285Y-59289285D02*
X160628095Y-59289285D01*
X160691904Y-59325000D01*
X160723809Y-59360714D01*
X160755714Y-59432142D01*
X160787619Y-59575000D01*
X160787619Y-59753571D01*
X160755714Y-59896428D01*
X160723809Y-59967857D01*
X160691904Y-60003571D01*
X160628095Y-60039285D01*
X160564285Y-60039285D01*
X160500476Y-60003571D01*
X160468571Y-59967857D01*
X160436666Y-59896428D01*
X160404761Y-59753571D01*
X160404761Y-59575000D01*
X160436666Y-59432142D01*
X160468571Y-59360714D01*
X160500476Y-59325000D01*
X160564285Y-59289285D01*
X161553333Y-59253571D02*
X160979047Y-60217857D01*
X161712857Y-59289285D02*
X162127619Y-59289285D01*
X161904285Y-59575000D01*
X162000000Y-59575000D01*
X162063809Y-59610714D01*
X162095714Y-59646428D01*
X162127619Y-59717857D01*
X162127619Y-59896428D01*
X162095714Y-59967857D01*
X162063809Y-60003571D01*
X162000000Y-60039285D01*
X161808571Y-60039285D01*
X161744761Y-60003571D01*
X161712857Y-59967857D01*
X157723333Y-64917857D02*
X157691428Y-64953571D01*
X157595714Y-64989285D01*
X157531904Y-64989285D01*
X157436190Y-64953571D01*
X157372380Y-64882142D01*
X157340476Y-64810714D01*
X157308571Y-64667857D01*
X157308571Y-64560714D01*
X157340476Y-64417857D01*
X157372380Y-64346428D01*
X157436190Y-64275000D01*
X157531904Y-64239285D01*
X157595714Y-64239285D01*
X157691428Y-64275000D01*
X157723333Y-64310714D01*
X158297619Y-64239285D02*
X158170000Y-64239285D01*
X158106190Y-64275000D01*
X158074285Y-64310714D01*
X158010476Y-64417857D01*
X157978571Y-64560714D01*
X157978571Y-64846428D01*
X158010476Y-64917857D01*
X158042380Y-64953571D01*
X158106190Y-64989285D01*
X158233809Y-64989285D01*
X158297619Y-64953571D01*
X158329523Y-64917857D01*
X158361428Y-64846428D01*
X158361428Y-64667857D01*
X158329523Y-64596428D01*
X158297619Y-64560714D01*
X158233809Y-64525000D01*
X158106190Y-64525000D01*
X158042380Y-64560714D01*
X158010476Y-64596428D01*
X157978571Y-64667857D01*
X159127142Y-64203571D02*
X158552857Y-65167857D01*
X159669523Y-64239285D02*
X159350476Y-64239285D01*
X159318571Y-64596428D01*
X159350476Y-64560714D01*
X159414285Y-64525000D01*
X159573809Y-64525000D01*
X159637619Y-64560714D01*
X159669523Y-64596428D01*
X159701428Y-64667857D01*
X159701428Y-64846428D01*
X159669523Y-64917857D01*
X159637619Y-64953571D01*
X159573809Y-64989285D01*
X159414285Y-64989285D01*
X159350476Y-64953571D01*
X159318571Y-64917857D01*
X157563809Y-74746428D02*
X157659523Y-74782142D01*
X157691428Y-74817857D01*
X157723333Y-74889285D01*
X157723333Y-74996428D01*
X157691428Y-75067857D01*
X157659523Y-75103571D01*
X157595714Y-75139285D01*
X157340476Y-75139285D01*
X157340476Y-74389285D01*
X157563809Y-74389285D01*
X157627619Y-74425000D01*
X157659523Y-74460714D01*
X157691428Y-74532142D01*
X157691428Y-74603571D01*
X157659523Y-74675000D01*
X157627619Y-74710714D01*
X157563809Y-74746428D01*
X157340476Y-74746428D01*
X158329523Y-74389285D02*
X158010476Y-74389285D01*
X157978571Y-74746428D01*
X158010476Y-74710714D01*
X158074285Y-74675000D01*
X158233809Y-74675000D01*
X158297619Y-74710714D01*
X158329523Y-74746428D01*
X158361428Y-74817857D01*
X158361428Y-74996428D01*
X158329523Y-75067857D01*
X158297619Y-75103571D01*
X158233809Y-75139285D01*
X158074285Y-75139285D01*
X158010476Y-75103571D01*
X157978571Y-75067857D01*
X159127142Y-74353571D02*
X158552857Y-75317857D01*
X159382380Y-75139285D02*
X159510000Y-75139285D01*
X159573809Y-75103571D01*
X159605714Y-75067857D01*
X159669523Y-74960714D01*
X159701428Y-74817857D01*
X159701428Y-74532142D01*
X159669523Y-74460714D01*
X159637619Y-74425000D01*
X159573809Y-74389285D01*
X159446190Y-74389285D01*
X159382380Y-74425000D01*
X159350476Y-74460714D01*
X159318571Y-74532142D01*
X159318571Y-74710714D01*
X159350476Y-74782142D01*
X159382380Y-74817857D01*
X159446190Y-74853571D01*
X159573809Y-74853571D01*
X159637619Y-74817857D01*
X159669523Y-74782142D01*
X159701428Y-74710714D01*
X157136428Y-49839285D02*
X157136428Y-49089285D01*
X157295952Y-49089285D01*
X157391666Y-49125000D01*
X157455476Y-49196428D01*
X157487380Y-49267857D01*
X157519285Y-49410714D01*
X157519285Y-49517857D01*
X157487380Y-49660714D01*
X157455476Y-49732142D01*
X157391666Y-49803571D01*
X157295952Y-49839285D01*
X157136428Y-49839285D01*
X157774523Y-49160714D02*
X157806428Y-49125000D01*
X157870238Y-49089285D01*
X158029761Y-49089285D01*
X158093571Y-49125000D01*
X158125476Y-49160714D01*
X158157380Y-49232142D01*
X158157380Y-49303571D01*
X158125476Y-49410714D01*
X157742619Y-49839285D01*
X158157380Y-49839285D01*
X158923095Y-49053571D02*
X158348809Y-50017857D01*
X159529285Y-49839285D02*
X159305952Y-49482142D01*
X159146428Y-49839285D02*
X159146428Y-49089285D01*
X159401666Y-49089285D01*
X159465476Y-49125000D01*
X159497380Y-49160714D01*
X159529285Y-49232142D01*
X159529285Y-49339285D01*
X159497380Y-49410714D01*
X159465476Y-49446428D01*
X159401666Y-49482142D01*
X159146428Y-49482142D01*
X159752619Y-49089285D02*
X160199285Y-49839285D01*
X160199285Y-49089285D02*
X159752619Y-49839285D01*
X160805476Y-49839285D02*
X160422619Y-49839285D01*
X160614047Y-49839285D02*
X160614047Y-49089285D01*
X160550238Y-49196428D01*
X160486428Y-49267857D01*
X160422619Y-49303571D01*
X157563809Y-72246428D02*
X157659523Y-72282142D01*
X157691428Y-72317857D01*
X157723333Y-72389285D01*
X157723333Y-72496428D01*
X157691428Y-72567857D01*
X157659523Y-72603571D01*
X157595714Y-72639285D01*
X157340476Y-72639285D01*
X157340476Y-71889285D01*
X157563809Y-71889285D01*
X157627619Y-71925000D01*
X157659523Y-71960714D01*
X157691428Y-72032142D01*
X157691428Y-72103571D01*
X157659523Y-72175000D01*
X157627619Y-72210714D01*
X157563809Y-72246428D01*
X157340476Y-72246428D01*
X158297619Y-72139285D02*
X158297619Y-72639285D01*
X158138095Y-71853571D02*
X157978571Y-72389285D01*
X158393333Y-72389285D01*
X159127142Y-71853571D02*
X158552857Y-72817857D01*
X159446190Y-72210714D02*
X159382380Y-72175000D01*
X159350476Y-72139285D01*
X159318571Y-72067857D01*
X159318571Y-72032142D01*
X159350476Y-71960714D01*
X159382380Y-71925000D01*
X159446190Y-71889285D01*
X159573809Y-71889285D01*
X159637619Y-71925000D01*
X159669523Y-71960714D01*
X159701428Y-72032142D01*
X159701428Y-72067857D01*
X159669523Y-72139285D01*
X159637619Y-72175000D01*
X159573809Y-72210714D01*
X159446190Y-72210714D01*
X159382380Y-72246428D01*
X159350476Y-72282142D01*
X159318571Y-72353571D01*
X159318571Y-72496428D01*
X159350476Y-72567857D01*
X159382380Y-72603571D01*
X159446190Y-72639285D01*
X159573809Y-72639285D01*
X159637619Y-72603571D01*
X159669523Y-72567857D01*
X159701428Y-72496428D01*
X159701428Y-72353571D01*
X159669523Y-72282142D01*
X159637619Y-72246428D01*
X159573809Y-72210714D01*
D13*
X145403571Y-42789285D02*
X145403571Y-42039285D01*
X145653571Y-42575000D01*
X145903571Y-42039285D01*
X145903571Y-42789285D01*
X146260714Y-42789285D02*
X146260714Y-42289285D01*
X146260714Y-42039285D02*
X146225000Y-42075000D01*
X146260714Y-42110714D01*
X146296428Y-42075000D01*
X146260714Y-42039285D01*
X146260714Y-42110714D01*
X146939285Y-42753571D02*
X146867857Y-42789285D01*
X146725000Y-42789285D01*
X146653571Y-42753571D01*
X146617857Y-42717857D01*
X146582142Y-42646428D01*
X146582142Y-42432142D01*
X146617857Y-42360714D01*
X146653571Y-42325000D01*
X146725000Y-42289285D01*
X146867857Y-42289285D01*
X146939285Y-42325000D01*
X147260714Y-42789285D02*
X147260714Y-42289285D01*
X147260714Y-42432142D02*
X147296428Y-42360714D01*
X147332142Y-42325000D01*
X147403571Y-42289285D01*
X147475000Y-42289285D01*
X147832142Y-42789285D02*
X147760714Y-42753571D01*
X147725000Y-42717857D01*
X147689285Y-42646428D01*
X147689285Y-42432142D01*
X147725000Y-42360714D01*
X147760714Y-42325000D01*
X147832142Y-42289285D01*
X147939285Y-42289285D01*
X148010714Y-42325000D01*
X148046428Y-42360714D01*
X148082142Y-42432142D01*
X148082142Y-42646428D01*
X148046428Y-42717857D01*
X148010714Y-42753571D01*
X147939285Y-42789285D01*
X147832142Y-42789285D01*
X148403571Y-42039285D02*
X148403571Y-42646428D01*
X148439285Y-42717857D01*
X148475000Y-42753571D01*
X148546428Y-42789285D01*
X148689285Y-42789285D01*
X148760714Y-42753571D01*
X148796428Y-42717857D01*
X148832142Y-42646428D01*
X148832142Y-42039285D01*
X149153571Y-42753571D02*
X149260714Y-42789285D01*
X149439285Y-42789285D01*
X149510714Y-42753571D01*
X149546428Y-42717857D01*
X149582142Y-42646428D01*
X149582142Y-42575000D01*
X149546428Y-42503571D01*
X149510714Y-42467857D01*
X149439285Y-42432142D01*
X149296428Y-42396428D01*
X149225000Y-42360714D01*
X149189285Y-42325000D01*
X149153571Y-42253571D01*
X149153571Y-42182142D01*
X149189285Y-42110714D01*
X149225000Y-42075000D01*
X149296428Y-42039285D01*
X149475000Y-42039285D01*
X149582142Y-42075000D01*
X150153571Y-42396428D02*
X150260714Y-42432142D01*
X150296428Y-42467857D01*
X150332142Y-42539285D01*
X150332142Y-42646428D01*
X150296428Y-42717857D01*
X150260714Y-42753571D01*
X150189285Y-42789285D01*
X149903571Y-42789285D01*
X149903571Y-42039285D01*
X150153571Y-42039285D01*
X150225000Y-42075000D01*
X150260714Y-42110714D01*
X150296428Y-42182142D01*
X150296428Y-42253571D01*
X150260714Y-42325000D01*
X150225000Y-42360714D01*
X150153571Y-42396428D01*
X149903571Y-42396428D01*
%LPC*%
D14*
X141900000Y-78400000D03*
X160900000Y-78400000D03*
X160900000Y-114400000D03*
X73900000Y-114400000D03*
X73900000Y-43400000D03*
X160900000Y-43400000D03*
D15*
X115280000Y-101400000D03*
D16*
X122900000Y-101400000D03*
D17*
X80650000Y-110150000D03*
X87150000Y-110150000D03*
X87150000Y-114650000D03*
X80650000Y-114650000D03*
D15*
X115280000Y-97400000D03*
D16*
X122900000Y-97400000D03*
D15*
X96280000Y-97400000D03*
D16*
X103900000Y-97400000D03*
D15*
X77280000Y-97400000D03*
D16*
X84900000Y-97400000D03*
D15*
X96280000Y-78400000D03*
D16*
X103900000Y-78400000D03*
D15*
X96280000Y-59400000D03*
D16*
X103900000Y-59400000D03*
D15*
X115280000Y-78400000D03*
D16*
X122900000Y-78400000D03*
D15*
X77280000Y-78400000D03*
D16*
X84900000Y-78400000D03*
D15*
X115280000Y-59400000D03*
D16*
X122900000Y-59400000D03*
D15*
X77280000Y-59400000D03*
D16*
X84900000Y-59400000D03*
D18*
X117680000Y-93600000D03*
X128120000Y-93600000D03*
D19*
X117820000Y-89400000D03*
X127980000Y-89400000D03*
D20*
X128400000Y-89400000D03*
X117400000Y-89400000D03*
D21*
X122900000Y-89400000D03*
D22*
X155900000Y-90400000D03*
X155900000Y-87860000D03*
X155900000Y-85320000D03*
D18*
X79680000Y-55600000D03*
X90120000Y-55600000D03*
D19*
X79820000Y-51400000D03*
X89980000Y-51400000D03*
D20*
X90400000Y-51400000D03*
X79400000Y-51400000D03*
D21*
X84900000Y-51400000D03*
D18*
X98680000Y-93600000D03*
X109120000Y-93600000D03*
D19*
X98820000Y-89400000D03*
X108980000Y-89400000D03*
D20*
X109400000Y-89400000D03*
X98400000Y-89400000D03*
D21*
X103900000Y-89400000D03*
D18*
X79680000Y-74600000D03*
X90120000Y-74600000D03*
D19*
X79820000Y-70400000D03*
X89980000Y-70400000D03*
D20*
X90400000Y-70400000D03*
X79400000Y-70400000D03*
D21*
X84900000Y-70400000D03*
D18*
X79680000Y-93600000D03*
X90120000Y-93600000D03*
D19*
X79820000Y-89400000D03*
X89980000Y-89400000D03*
D20*
X90400000Y-89400000D03*
X79400000Y-89400000D03*
D21*
X84900000Y-89400000D03*
D18*
X117680000Y-74600000D03*
X128120000Y-74600000D03*
D19*
X117820000Y-70400000D03*
X127980000Y-70400000D03*
D20*
X128400000Y-70400000D03*
X117400000Y-70400000D03*
D21*
X122900000Y-70400000D03*
D18*
X117680000Y-55600000D03*
X128120000Y-55600000D03*
D19*
X117820000Y-51400000D03*
X127980000Y-51400000D03*
D20*
X128400000Y-51400000D03*
X117400000Y-51400000D03*
D21*
X122900000Y-51400000D03*
D18*
X98680000Y-74600000D03*
X109120000Y-74600000D03*
D19*
X98820000Y-70400000D03*
X108980000Y-70400000D03*
D20*
X109400000Y-70400000D03*
X98400000Y-70400000D03*
D21*
X103900000Y-70400000D03*
D18*
X98680000Y-55600000D03*
X109120000Y-55600000D03*
D19*
X98820000Y-51400000D03*
X108980000Y-51400000D03*
D20*
X109400000Y-51400000D03*
X98400000Y-51400000D03*
D21*
X103900000Y-51400000D03*
X150900000Y-103400000D03*
D20*
X147010913Y-107289087D03*
X154789087Y-99510913D03*
D19*
X154492102Y-99807898D03*
X147307898Y-106992102D03*
D18*
X157560946Y-102678751D03*
X150178751Y-110060946D03*
M02*
