M48
; DRILL file {KiCad (5.1.4)-1} date 2019/11/23 21:45:41
; FORMAT={3:3/ absolute / metric / suppress trailing zeros}
; #@! TF.CreationDate,2019-11-23T21:45:41+09:00
; #@! TF.GenerationSoftware,Kicad,Pcbnew,(5.1.4)-1
FMAT,2
METRIC,LZ
T1C0.300
T2C0.400
T3C0.800
T4C0.813
T5C1.000
T6C1.200
T7C1.000
T8C1.700
T9C1.900
T10C2.200
T11C4.000
%
G90
G05
T1
X0759Y-0494
X0759Y-0814
X0759Y-1064
X1129Y-1064
X1339Y-0454
X1339Y-0884
X1339Y-1064
T2
X149085Y-077698
X154493Y-087766
T3
X11528Y-0974
X1229Y-0974
X09628Y-0594
X1039Y-0594
X09628Y-0974
X1039Y-0974
X07728Y-0974
X0849Y-0974
X09628Y-0784
X1039Y-0784
X11528Y-0594
X1229Y-0594
X07728Y-0784
X0849Y-0784
X07728Y-0594
X0849Y-0594
X11528Y-0784
X1229Y-0784
X11528Y-1014
X1229Y-1014
T4
X140291Y-046922
X140291Y-049462
X140291Y-052002
X140291Y-054542
X140291Y-057082
X140291Y-059622
X140291Y-062162
X140291Y-064702
X140291Y-067242
X140291Y-069782
X140291Y-072322
X140291Y-074862
X155511Y-046922
X155511Y-049462
X155511Y-052002
X155511Y-054542
X155511Y-057082
X155511Y-059622
X155511Y-062162
X155511Y-064702
X155511Y-067242
X155511Y-069782
X155511Y-072322
X155511Y-074862
T6
X11909Y-06786
X1229Y-0645
X12544Y-06532
X128Y-0665
X10009Y-04886
X1039Y-0455
X10644Y-04632
X109Y-0475
X08109Y-04886
X0849Y-0455
X08744Y-04632
X09Y-0475
X11909Y-04886
X1229Y-0455
X12544Y-04632
X128Y-0475
X10009Y-08686
X1039Y-0835
X10644Y-08432
X109Y-0855
X11909Y-08686
X1229Y-0835
X12544Y-08432
X128Y-0855
X08109Y-08686
X0849Y-0835
X08744Y-08432
X09Y-0855
X10009Y-06786
X1039Y-0645
X10644Y-06532
X109Y-0665
X08109Y-06786
X0849Y-0645
X08744Y-06532
X09Y-0665
X14641Y-104298
X146728Y-099228
X149104Y-098012
X151749Y-097036
T7
X11768Y-0746
X12812Y-0746
X09868Y-0556
X10912Y-0556
X07968Y-0556
X09012Y-0556
X11768Y-0556
X12812Y-0556
X09868Y-0936
X10912Y-0936
X11768Y-0936
X12812Y-0936
X07968Y-0936
X09012Y-0936
X09868Y-0746
X10912Y-0746
X07968Y-0746
X09012Y-0746
X150179Y-110061
X157561Y-102679
T8
X07982Y-0514
X08998Y-0514
X11782Y-0514
X12798Y-0514
X09882Y-0894
X10898Y-0894
X11782Y-0894
X12798Y-0894
X07982Y-0894
X08998Y-0894
X09882Y-0704
X10898Y-0704
X07982Y-0704
X08998Y-0704
X147308Y-106992
X154492Y-099808
X11782Y-0704
X12798Y-0704
X09882Y-0514
X10898Y-0514
T9
X1174Y-0514
X1284Y-0514
X0984Y-0894
X1094Y-0894
X1174Y-0894
X1284Y-0894
X0794Y-0894
X0904Y-0894
X0984Y-0704
X1094Y-0704
X0794Y-0704
X0904Y-0704
X147011Y-107289
X154789Y-099511
X1174Y-0704
X1284Y-0704
X0984Y-0514
X1094Y-0514
X0794Y-0514
X0904Y-0514
T10
X0739Y-1144
X0739Y-0434
X1609Y-0434
X1419Y-0784
X1609Y-0784
X1609Y-1144
T11
X0849Y-0514
X1229Y-0514
X1039Y-0894
X1229Y-0894
X0849Y-0894
X1039Y-0704
X0849Y-0704
X1509Y-1034
X1229Y-0704
X1039Y-0514
T5
G00X08065Y-11035
M15
G01X08065Y-10995
M16
G05
G00X08065Y-11485
M15
G01X08065Y-11445
M16
G05
G00X08715Y-11035
M15
G01X08715Y-10995
M16
G05
G00X08715Y-11485
M15
G01X08715Y-11445
M16
G05
T0
M30
