  0
SECTION
  2
HEADER
  9
$ACADVER
  1
AC1014
  9
$HANDSEED
  5
FFFF
  9
$MEASUREMENT
 70
     1
  0
ENDSEC
  0
SECTION
  2
TABLES
  0
TABLE
  2
VPORT
  5
8
330
0
100
AcDbSymbolTable
 70
     4
  0
VPORT
  5
2E
330
8
100
AcDbSymbolTableRecord
100
AcDbViewportTableRecord
  2
*ACTIVE
 70
     0
 10
0.0
 20
0.0
 11
1.0
 21
1.0
 12
210.0
 22
148.5
 13
0.0
 23
0.0
 14
10.0
 24
10.0
 15
10.0
 25
10.0
 16
0.0
 26
0.0
 36
1.0
 17
0.0
 27
0.0
 37
0.0
 40
341.0
 41
1.24
 42
50.0
 43
0.0
 44
0.0
 50
0.0
 51
0.0
 71
     0
 72
   100
 73
     1
 74
     3
 75
     0
 76
     0
 77
     0
 78
     0
  0
ENDTAB
  0
TABLE
  2
LTYPE
  5
5
330
0
100
AcDbSymbolTable
 70
     1
  0
LTYPE
  5
14
330
5
100
AcDbSymbolTableRecord
100
AcDbLinetypeTableRecord
  2
BYBLOCK
 70
     0
  3

 72
    65
 73
     0
 40
0.0
  0
LTYPE
  5
15
330
5
100
AcDbSymbolTableRecord
100
AcDbLinetypeTableRecord
  2
BYLAYER
 70
     0
  3

 72
    65
 73
     0
 40
0.0
  0
LTYPE
  5
16
330
5
100
AcDbSymbolTableRecord
100
AcDbLinetypeTableRecord
  2
CONTINUOUS
 70
     0
  3
Solid line
 72
    65
 73
     0
 40
0.0
  0
ENDTAB
  0
TABLE
  2
LAYER
  5
2
100
AcDbSymbolTable
 70
2
  0
LAYER
  5
50
100
AcDbSymbolTableRecord
100
AcDbLayerTableRecord
  2
0
 70
0
  6
CONTINUOUS
  0
LAYER
  5
51
100
AcDbSymbolTableRecord
100
AcDbLayerTableRecord
  2
レイヤー_1
 70
0
  6
CONTINUOUS
  0
ENDTAB
  0
TABLE
  2
STYLE
  5
3
330
0
100
AcDbSymbolTable
 70
     1
  0
STYLE
  5
11
330
3
100
AcDbSymbolTableRecord
100
AcDbTextStyleTableRecord
  2
STANDARD
 70
     0
 40
0.0
 41
1.0
 50
0.0
 71
     0
 42
2.5
  3
txt
  4

  0
ENDTAB
  0
TABLE
  2
VIEW
  5
6
330
0
100
AcDbSymbolTable
 70
     0
  0
ENDTAB
  0
TABLE
  2
UCS
  5
7
330
0
100
AcDbSymbolTable
 70
     0
  0
ENDTAB
  0
TABLE
  2
APPID
  5
9
330
0
100
AcDbSymbolTable
 70
     2
  0
APPID
  5
12
330
9
100
AcDbSymbolTableRecord
100
AcDbRegAppTableRecord
  2
ACAD
 70
     0
  0
ENDTAB
  0
TABLE
  2
DIMSTYLE
  5
A
330
0
100
AcDbSymbolTable
 70
     1
  0
DIMSTYLE
105
27
330
A
100
AcDbSymbolTableRecord
100
AcDbDimStyleTableRecord
  2
ISO-25
 70
     0
  3

  4

  5

  6

  7

 40
1.0
 41
2.5
 42
0.625
 43
3.75
 44
1.25
 45
0.0
 46
0.0
 47
0.0
 48
0.0
140
2.5
141
2.5
142
0.0
143
0.03937007874016
144
1.0
145
0.0
146
1.0
147
0.625
 71
     0
 72
     0
 73
     0
 74
     0
 75
     0
 76
     0
 77
     1
 78
     8
170
     0
171
     3
172
     1
173
     0
174
     0
175
     0
176
     0
177
     0
178
     0
270
     2
271
     2
272
     2
273
     2
274
     3
340
11
275
     0
280
     0
281
     0
282
     0
283
     0
284
     8
285
     0
286
     0
287
     3
288
     0
  0
ENDTAB
  0
TABLE
  2
BLOCK_RECORD
  5
1
330
0
100
AcDbSymbolTable
 70
     1
  0
BLOCK_RECORD
  5
1F
330
1
100
AcDbSymbolTableRecord
100
AcDbBlockTableRecord
  2
*MODEL_SPACE
  0
BLOCK_RECORD
  5
1B
330
1
100
AcDbSymbolTableRecord
100
AcDbBlockTableRecord
  2
*PAPER_SPACE
  0
ENDTAB
  0
ENDSEC
  0
SECTION
  2
BLOCKS
  0
BLOCK
  5
20
330
1F
100
AcDbEntity
  8
0
100
AcDbBlockBegin
  2
*MODEL_SPACE
 70
     0
 10
0.0
 20
0.0
 30
0.0
  3
*MODEL_SPACE
  1

  0
ENDBLK
  5
21
330
1F
100
AcDbEntity
  8
0
100
AcDbBlockEnd
  0
BLOCK
  5
1C
330
1B
100
AcDbEntity
 67
     1
  8
0
100
AcDbBlockBegin
  2
*PAPER_SPACE
  1

  0
ENDBLK
  5
1D
330
1B
100
AcDbEntity
 67
     1
  8
0
100
AcDbBlockEnd
  0
ENDSEC
  0
SECTION
  2
ENTITIES
  0
SPLINE
  5
100
100
AcDbEntity
  8
レイヤー_1
 62
1
100
AcDbSpline
 70
8
 71
3
 72
8
 73
4
 74
0
 40
0
 40
0
 40
0
 40
0
 40
1
 40
1
 40
1
 40
1
 10
6.627154
 20
94.524979
 30
0.0
 10
6.627154
 20
94.131987
 30
0.0
 10
6.417495
 20
93.768847
 30
0.0
 10
6.077154
 20
93.572351
 30
0.0
  0
SPLINE
  5
101
100
AcDbEntity
  8
レイヤー_1
 62
1
100
AcDbSpline
 70
8
 71
3
 72
8
 73
4
 74
0
 40
0
 40
0
 40
0
 40
0
 40
1
 40
1
 40
1
 40
1
 10
6.077154
 20
93.572351
 30
0.0
 10
5.736812
 20
93.375855
 30
0.0
 10
5.317495
 20
93.375855
 30
0.0
 10
4.977153
 20
93.572351
 30
0.0
  0
SPLINE
  5
102
100
AcDbEntity
  8
レイヤー_1
 62
1
100
AcDbSpline
 70
8
 71
3
 72
8
 73
4
 74
0
 40
0
 40
0
 40
0
 40
0
 40
1
 40
1
 40
1
 40
1
 10
4.977153
 20
93.572351
 30
0.0
 10
4.636812
 20
93.768847
 30
0.0
 10
4.427153
 20
94.131987
 30
0.0
 10
4.427153
 20
94.524979
 30
0.0
  0
SPLINE
  5
103
100
AcDbEntity
  8
レイヤー_1
 62
1
100
AcDbSpline
 70
8
 71
3
 72
8
 73
4
 74
0
 40
0
 40
0
 40
0
 40
0
 40
1
 40
1
 40
1
 40
1
 10
4.427153
 20
94.524979
 30
0.0
 10
4.427153
 20
94.917971
 30
0.0
 10
4.636812
 20
95.281111
 30
0.0
 10
4.977153
 20
95.477607
 30
0.0
  0
SPLINE
  5
104
100
AcDbEntity
  8
レイヤー_1
 62
1
100
AcDbSpline
 70
8
 71
3
 72
8
 73
4
 74
0
 40
0
 40
0
 40
0
 40
0
 40
1
 40
1
 40
1
 40
1
 10
4.977153
 20
95.477607
 30
0.0
 10
5.317495
 20
95.674103
 30
0.0
 10
5.736812
 20
95.674103
 30
0.0
 10
6.077154
 20
95.477607
 30
0.0
  0
SPLINE
  5
105
100
AcDbEntity
  8
レイヤー_1
 62
1
100
AcDbSpline
 70
8
 71
3
 72
8
 73
4
 74
0
 40
0
 40
0
 40
0
 40
0
 40
1
 40
1
 40
1
 40
1
 10
6.077154
 20
95.477607
 30
0.0
 10
6.417495
 20
95.281111
 30
0.0
 10
6.627154
 20
94.917971
 30
0.0
 10
6.627154
 20
94.524979
 30
0.0
  0
SPLINE
  5
106
100
AcDbEntity
  8
レイヤー_1
 62
1
100
AcDbSpline
 70
8
 71
3
 72
8
 73
4
 74
0
 40
0
 40
0
 40
0
 40
0
 40
1
 40
1
 40
1
 40
1
 10
6.627154
 20
23.524994
 30
0.0
 10
6.627154
 20
23.132002
 30
0.0
 10
6.417495
 20
22.768862
 30
0.0
 10
6.077154
 20
22.572366
 30
0.0
  0
SPLINE
  5
107
100
AcDbEntity
  8
レイヤー_1
 62
1
100
AcDbSpline
 70
8
 71
3
 72
8
 73
4
 74
0
 40
0
 40
0
 40
0
 40
0
 40
1
 40
1
 40
1
 40
1
 10
6.077154
 20
22.572366
 30
0.0
 10
5.736812
 20
22.375870
 30
0.0
 10
5.317495
 20
22.375870
 30
0.0
 10
4.977153
 20
22.572366
 30
0.0
  0
SPLINE
  5
108
100
AcDbEntity
  8
レイヤー_1
 62
1
100
AcDbSpline
 70
8
 71
3
 72
8
 73
4
 74
0
 40
0
 40
0
 40
0
 40
0
 40
1
 40
1
 40
1
 40
1
 10
4.977153
 20
22.572366
 30
0.0
 10
4.636812
 20
22.768862
 30
0.0
 10
4.427153
 20
23.132002
 30
0.0
 10
4.427153
 20
23.524994
 30
0.0
  0
SPLINE
  5
109
100
AcDbEntity
  8
レイヤー_1
 62
1
100
AcDbSpline
 70
8
 71
3
 72
8
 73
4
 74
0
 40
0
 40
0
 40
0
 40
0
 40
1
 40
1
 40
1
 40
1
 10
4.427153
 20
23.524994
 30
0.0
 10
4.427153
 20
23.917986
 30
0.0
 10
4.636812
 20
24.281126
 30
0.0
 10
4.977153
 20
24.477622
 30
0.0
  0
SPLINE
  5
10a
100
AcDbEntity
  8
レイヤー_1
 62
1
100
AcDbSpline
 70
8
 71
3
 72
8
 73
4
 74
0
 40
0
 40
0
 40
0
 40
0
 40
1
 40
1
 40
1
 40
1
 10
4.977153
 20
24.477622
 30
0.0
 10
5.317495
 20
24.674118
 30
0.0
 10
5.736812
 20
24.674118
 30
0.0
 10
6.077154
 20
24.477622
 30
0.0
  0
SPLINE
  5
10b
100
AcDbEntity
  8
レイヤー_1
 62
1
100
AcDbSpline
 70
8
 71
3
 72
8
 73
4
 74
0
 40
0
 40
0
 40
0
 40
0
 40
1
 40
1
 40
1
 40
1
 10
6.077154
 20
24.477622
 30
0.0
 10
6.417495
 20
24.281126
 30
0.0
 10
6.627154
 20
23.917986
 30
0.0
 10
6.627154
 20
23.524994
 30
0.0
  0
LWPOLYLINE
  5
10c
100
AcDbEntity
  8
レイヤー_1
 62
1
100
AcDbPolyline
 90
1
 70
1
 10
6.627154
 20
94.524979
 30
0.0
  0
SPLINE
  5
10d
100
AcDbEntity
  8
レイヤー_1
 62
1
100
AcDbSpline
 70
8
 71
3
 72
8
 73
4
 74
0
 40
0
 40
0
 40
0
 40
0
 40
1
 40
1
 40
1
 40
1
 10
93.627112
 20
23.524994
 30
0.0
 10
93.627112
 20
23.132002
 30
0.0
 10
93.417453
 20
22.768862
 30
0.0
 10
93.077112
 20
22.572366
 30
0.0
  0
SPLINE
  5
10e
100
AcDbEntity
  8
レイヤー_1
 62
1
100
AcDbSpline
 70
8
 71
3
 72
8
 73
4
 74
0
 40
0
 40
0
 40
0
 40
0
 40
1
 40
1
 40
1
 40
1
 10
93.077112
 20
22.572366
 30
0.0
 10
92.736770
 20
22.375870
 30
0.0
 10
92.317453
 20
22.375870
 30
0.0
 10
91.977111
 20
22.572366
 30
0.0
  0
SPLINE
  5
10f
100
AcDbEntity
  8
レイヤー_1
 62
1
100
AcDbSpline
 70
8
 71
3
 72
8
 73
4
 74
0
 40
0
 40
0
 40
0
 40
0
 40
1
 40
1
 40
1
 40
1
 10
91.977111
 20
22.572366
 30
0.0
 10
91.636770
 20
22.768862
 30
0.0
 10
91.427111
 20
23.132002
 30
0.0
 10
91.427111
 20
23.524994
 30
0.0
  0
SPLINE
  5
110
100
AcDbEntity
  8
レイヤー_1
 62
1
100
AcDbSpline
 70
8
 71
3
 72
8
 73
4
 74
0
 40
0
 40
0
 40
0
 40
0
 40
1
 40
1
 40
1
 40
1
 10
91.427111
 20
23.524994
 30
0.0
 10
91.427111
 20
23.917986
 30
0.0
 10
91.636770
 20
24.281126
 30
0.0
 10
91.977111
 20
24.477622
 30
0.0
  0
SPLINE
  5
111
100
AcDbEntity
  8
レイヤー_1
 62
1
100
AcDbSpline
 70
8
 71
3
 72
8
 73
4
 74
0
 40
0
 40
0
 40
0
 40
0
 40
1
 40
1
 40
1
 40
1
 10
91.977111
 20
24.477622
 30
0.0
 10
92.317453
 20
24.674118
 30
0.0
 10
92.736770
 20
24.674118
 30
0.0
 10
93.077112
 20
24.477622
 30
0.0
  0
SPLINE
  5
112
100
AcDbEntity
  8
レイヤー_1
 62
1
100
AcDbSpline
 70
8
 71
3
 72
8
 73
4
 74
0
 40
0
 40
0
 40
0
 40
0
 40
1
 40
1
 40
1
 40
1
 10
93.077112
 20
24.477622
 30
0.0
 10
93.417453
 20
24.281126
 30
0.0
 10
93.627112
 20
23.917986
 30
0.0
 10
93.627112
 20
23.524994
 30
0.0
  0
LWPOLYLINE
  5
113
100
AcDbEntity
  8
レイヤー_1
 62
1
100
AcDbPolyline
 90
1
 70
1
 10
6.627154
 20
23.524994
 30
0.0
  0
SPLINE
  5
114
100
AcDbEntity
  8
レイヤー_1
 62
1
100
AcDbSpline
 70
8
 71
3
 72
8
 73
4
 74
0
 40
0
 40
0
 40
0
 40
0
 40
1
 40
1
 40
1
 40
1
 10
74.627147
 20
59.524922
 30
0.0
 10
74.627147
 20
59.131930
 30
0.0
 10
74.417488
 20
58.768790
 30
0.0
 10
74.077147
 20
58.572294
 30
0.0
  0
SPLINE
  5
115
100
AcDbEntity
  8
レイヤー_1
 62
1
100
AcDbSpline
 70
8
 71
3
 72
8
 73
4
 74
0
 40
0
 40
0
 40
0
 40
0
 40
1
 40
1
 40
1
 40
1
 10
74.077147
 20
58.572294
 30
0.0
 10
73.736806
 20
58.375798
 30
0.0
 10
73.317488
 20
58.375798
 30
0.0
 10
72.977147
 20
58.572294
 30
0.0
  0
SPLINE
  5
116
100
AcDbEntity
  8
レイヤー_1
 62
1
100
AcDbSpline
 70
8
 71
3
 72
8
 73
4
 74
0
 40
0
 40
0
 40
0
 40
0
 40
1
 40
1
 40
1
 40
1
 10
72.977147
 20
58.572294
 30
0.0
 10
72.636805
 20
58.768790
 30
0.0
 10
72.427147
 20
59.131930
 30
0.0
 10
72.427147
 20
59.524922
 30
0.0
  0
SPLINE
  5
117
100
AcDbEntity
  8
レイヤー_1
 62
1
100
AcDbSpline
 70
8
 71
3
 72
8
 73
4
 74
0
 40
0
 40
0
 40
0
 40
0
 40
1
 40
1
 40
1
 40
1
 10
72.427147
 20
59.524922
 30
0.0
 10
72.427147
 20
59.917914
 30
0.0
 10
72.636805
 20
60.281054
 30
0.0
 10
72.977147
 20
60.477550
 30
0.0
  0
SPLINE
  5
118
100
AcDbEntity
  8
レイヤー_1
 62
1
100
AcDbSpline
 70
8
 71
3
 72
8
 73
4
 74
0
 40
0
 40
0
 40
0
 40
0
 40
1
 40
1
 40
1
 40
1
 10
72.977147
 20
60.477550
 30
0.0
 10
73.317488
 20
60.674046
 30
0.0
 10
73.736806
 20
60.674046
 30
0.0
 10
74.077147
 20
60.477550
 30
0.0
  0
SPLINE
  5
119
100
AcDbEntity
  8
レイヤー_1
 62
1
100
AcDbSpline
 70
8
 71
3
 72
8
 73
4
 74
0
 40
0
 40
0
 40
0
 40
0
 40
1
 40
1
 40
1
 40
1
 10
74.077147
 20
60.477550
 30
0.0
 10
74.417488
 20
60.281054
 30
0.0
 10
74.627147
 20
59.917914
 30
0.0
 10
74.627147
 20
59.524922
 30
0.0
  0
LWPOLYLINE
  5
11a
100
AcDbEntity
  8
レイヤー_1
 62
1
100
AcDbPolyline
 90
1
 70
1
 10
93.627112
 20
23.524994
 30
0.0
  0
SPLINE
  5
11b
100
AcDbEntity
  8
レイヤー_1
 62
1
100
AcDbSpline
 70
8
 71
3
 72
8
 73
4
 74
0
 40
0
 40
0
 40
0
 40
0
 40
1
 40
1
 40
1
 40
1
 10
93.627112
 20
59.524922
 30
0.0
 10
93.627112
 20
59.131930
 30
0.0
 10
93.417453
 20
58.768790
 30
0.0
 10
93.077112
 20
58.572294
 30
0.0
  0
SPLINE
  5
11c
100
AcDbEntity
  8
レイヤー_1
 62
1
100
AcDbSpline
 70
8
 71
3
 72
8
 73
4
 74
0
 40
0
 40
0
 40
0
 40
0
 40
1
 40
1
 40
1
 40
1
 10
93.077112
 20
58.572294
 30
0.0
 10
92.736770
 20
58.375798
 30
0.0
 10
92.317453
 20
58.375798
 30
0.0
 10
91.977111
 20
58.572294
 30
0.0
  0
SPLINE
  5
11d
100
AcDbEntity
  8
レイヤー_1
 62
1
100
AcDbSpline
 70
8
 71
3
 72
8
 73
4
 74
0
 40
0
 40
0
 40
0
 40
0
 40
1
 40
1
 40
1
 40
1
 10
91.977111
 20
58.572294
 30
0.0
 10
91.636770
 20
58.768790
 30
0.0
 10
91.427111
 20
59.131930
 30
0.0
 10
91.427111
 20
59.524922
 30
0.0
  0
SPLINE
  5
11e
100
AcDbEntity
  8
レイヤー_1
 62
1
100
AcDbSpline
 70
8
 71
3
 72
8
 73
4
 74
0
 40
0
 40
0
 40
0
 40
0
 40
1
 40
1
 40
1
 40
1
 10
91.427111
 20
59.524922
 30
0.0
 10
91.427111
 20
59.917914
 30
0.0
 10
91.636770
 20
60.281054
 30
0.0
 10
91.977111
 20
60.477550
 30
0.0
  0
SPLINE
  5
11f
100
AcDbEntity
  8
レイヤー_1
 62
1
100
AcDbSpline
 70
8
 71
3
 72
8
 73
4
 74
0
 40
0
 40
0
 40
0
 40
0
 40
1
 40
1
 40
1
 40
1
 10
91.977111
 20
60.477550
 30
0.0
 10
92.317453
 20
60.674046
 30
0.0
 10
92.736770
 20
60.674046
 30
0.0
 10
93.077112
 20
60.477550
 30
0.0
  0
SPLINE
  5
120
100
AcDbEntity
  8
レイヤー_1
 62
1
100
AcDbSpline
 70
8
 71
3
 72
8
 73
4
 74
0
 40
0
 40
0
 40
0
 40
0
 40
1
 40
1
 40
1
 40
1
 10
93.077112
 20
60.477550
 30
0.0
 10
93.417453
 20
60.281054
 30
0.0
 10
93.627112
 20
59.917914
 30
0.0
 10
93.627112
 20
59.524922
 30
0.0
  0
LWPOLYLINE
  5
121
100
AcDbEntity
  8
レイヤー_1
 62
1
100
AcDbPolyline
 90
1
 70
1
 10
74.627147
 20
59.524922
 30
0.0
  0
SPLINE
  5
122
100
AcDbEntity
  8
レイヤー_1
 62
1
100
AcDbSpline
 70
8
 71
3
 72
8
 73
4
 74
0
 40
0
 40
0
 40
0
 40
0
 40
1
 40
1
 40
1
 40
1
 10
93.627112
 20
94.524979
 30
0.0
 10
93.627112
 20
94.131987
 30
0.0
 10
93.417453
 20
93.768847
 30
0.0
 10
93.077112
 20
93.572351
 30
0.0
  0
SPLINE
  5
123
100
AcDbEntity
  8
レイヤー_1
 62
1
100
AcDbSpline
 70
8
 71
3
 72
8
 73
4
 74
0
 40
0
 40
0
 40
0
 40
0
 40
1
 40
1
 40
1
 40
1
 10
93.077112
 20
93.572351
 30
0.0
 10
92.736770
 20
93.375855
 30
0.0
 10
92.317453
 20
93.375855
 30
0.0
 10
91.977111
 20
93.572351
 30
0.0
  0
SPLINE
  5
124
100
AcDbEntity
  8
レイヤー_1
 62
1
100
AcDbSpline
 70
8
 71
3
 72
8
 73
4
 74
0
 40
0
 40
0
 40
0
 40
0
 40
1
 40
1
 40
1
 40
1
 10
91.977111
 20
93.572351
 30
0.0
 10
91.636770
 20
93.768847
 30
0.0
 10
91.427111
 20
94.131987
 30
0.0
 10
91.427111
 20
94.524979
 30
0.0
  0
SPLINE
  5
125
100
AcDbEntity
  8
レイヤー_1
 62
1
100
AcDbSpline
 70
8
 71
3
 72
8
 73
4
 74
0
 40
0
 40
0
 40
0
 40
0
 40
1
 40
1
 40
1
 40
1
 10
91.427111
 20
94.524979
 30
0.0
 10
91.427111
 20
94.917971
 30
0.0
 10
91.636770
 20
95.281111
 30
0.0
 10
91.977111
 20
95.477607
 30
0.0
  0
SPLINE
  5
126
100
AcDbEntity
  8
レイヤー_1
 62
1
100
AcDbSpline
 70
8
 71
3
 72
8
 73
4
 74
0
 40
0
 40
0
 40
0
 40
0
 40
1
 40
1
 40
1
 40
1
 10
91.977111
 20
95.477607
 30
0.0
 10
92.317453
 20
95.674103
 30
0.0
 10
92.736770
 20
95.674103
 30
0.0
 10
93.077112
 20
95.477607
 30
0.0
  0
SPLINE
  5
127
100
AcDbEntity
  8
レイヤー_1
 62
1
100
AcDbSpline
 70
8
 71
3
 72
8
 73
4
 74
0
 40
0
 40
0
 40
0
 40
0
 40
1
 40
1
 40
1
 40
1
 10
93.077112
 20
95.477607
 30
0.0
 10
93.417453
 20
95.281111
 30
0.0
 10
93.627112
 20
94.917971
 30
0.0
 10
93.627112
 20
94.524979
 30
0.0
  0
LWPOLYLINE
  5
128
100
AcDbEntity
  8
レイヤー_1
 62
1
100
AcDbPolyline
 90
1
 70
1
 10
93.627112
 20
59.524922
 30
0.0
  0
LWPOLYLINE
  5
129
100
AcDbEntity
  8
レイヤー_1
 62
1
100
AcDbPolyline
 90
1
 70
1
 10
93.627112
 20
94.524979
 30
0.0
  0
SPLINE
  5
12a
100
AcDbEntity
  8
レイヤー_1
 62
1
100
AcDbSpline
 70
8
 71
3
 72
8
 73
4
 74
0
 40
0
 40
0
 40
0
 40
0
 40
1
 40
1
 40
1
 40
1
 10
1.527143
 20
21.524998
 30
0.0
 10
1.527146
 20
20.420431
 30
0.0
 10
2.422575
 20
19.525003
 30
0.0
 10
3.527142
 20
19.525002
 30
0.0
  0
LWPOLYLINE
  5
12b
100
AcDbEntity
  8
レイヤー_1
 62
1
100
AcDbPolyline
 90
2
 70
0
 10
1.525002
 20
21.527030
 30
0.0
 10
1.525002
 20
96.525610
 30
0.0
  0
SPLINE
  5
12c
100
AcDbEntity
  8
レイヤー_1
 62
1
100
AcDbSpline
 70
8
 71
3
 72
8
 73
4
 74
0
 40
0
 40
0
 40
0
 40
0
 40
1
 40
1
 40
1
 40
1
 10
94.527102
 20
19.525002
 30
0.0
 10
95.631669
 20
19.525005
 30
0.0
 10
96.527096
 20
20.420432
 30
0.0
 10
96.527098
 20
21.524998
 30
0.0
  0
LWPOLYLINE
  5
12d
100
AcDbEntity
  8
レイヤー_1
 62
1
100
AcDbPolyline
 90
2
 70
0
 10
3.526522
 20
19.525510
 30
0.0
 10
94.527102
 20
19.525510
 30
0.0
  0
SPLINE
  5
12e
100
AcDbEntity
  8
レイヤー_1
 62
1
100
AcDbSpline
 70
8
 71
3
 72
8
 73
4
 74
0
 40
0
 40
0
 40
0
 40
0
 40
1
 40
1
 40
1
 40
1
 10
96.527098
 20
96.524990
 30
0.0
 10
96.527097
 20
97.629557
 30
0.0
 10
95.631670
 20
98.524986
 30
0.0
 10
94.527102
 20
98.524989
 30
0.0
  0
LWPOLYLINE
  5
12f
100
AcDbEntity
  8
レイヤー_1
 62
1
100
AcDbPolyline
 90
2
 70
0
 10
96.526082
 20
96.525610
 30
0.0
 10
96.526082
 20
21.527030
 30
0.0
  0
SPLINE
  5
130
100
AcDbEntity
  8
レイヤー_1
 62
1
100
AcDbSpline
 70
8
 71
3
 72
8
 73
4
 74
0
 40
0
 40
0
 40
0
 40
0
 40
1
 40
1
 40
1
 40
1
 10
3.527142
 20
98.524989
 30
0.0
 10
2.422574
 20
98.524988
 30
0.0
 10
1.527145
 20
97.629559
 30
0.0
 10
1.527143
 20
96.524990
 30
0.0
  0
SPLINE
  5
131
100
AcDbEntity
  8
レイヤー_1
 62
2
100
AcDbSpline
 70
8
 71
3
 72
8
 73
4
 74
0
 40
0
 40
0
 40
0
 40
0
 40
1
 40
1
 40
1
 40
1
 10
37400.730001
 20
-32006.145001
 30
0.0
 10
37400.729448
 20
-31571.276056
 30
0.0
 10
37048.198946
 20
-31218.745105
 30
0.0
 10
36613.330001
 20
-31218.744001
 30
0.0
  0
SPLINE
  5
132
100
AcDbEntity
  8
レイヤー_1
 62
2
100
AcDbSpline
 70
8
 71
3
 72
8
 73
4
 74
0
 40
0
 40
0
 40
0
 40
0
 40
1
 40
1
 40
1
 40
1
 10
37400.731001
 20
-33187.248001
 30
0.0
 10
37400.730448
 20
-32752.379056
 30
0.0
 10
37048.199946
 20
-32399.848105
 30
0.0
 10
36613.331001
 20
-32399.847001
 30
0.0
  0
SPLINE
  5
133
100
AcDbEntity
  8
レイヤー_1
 62
2
100
AcDbSpline
 70
8
 71
3
 72
8
 73
4
 74
0
 40
0
 40
0
 40
0
 40
0
 40
1
 40
1
 40
1
 40
1
 10
37400.730001
 20
-35549.452001
 30
0.0
 10
37400.729448
 20
-35114.583056
 30
0.0
 10
37048.198946
 20
-34762.052105
 30
0.0
 10
36613.330001
 20
-34762.051001
 30
0.0
  0
SPLINE
  5
134
100
AcDbEntity
  8
レイヤー_1
 62
2
100
AcDbSpline
 70
8
 71
3
 72
8
 73
4
 74
0
 40
0
 40
0
 40
0
 40
0
 40
1
 40
1
 40
1
 40
1
 10
37400.730001
 20
-34368.350001
 30
0.0
 10
37400.729448
 20
-33933.481056
 30
0.0
 10
37048.198946
 20
-33580.950105
 30
0.0
 10
36613.330001
 20
-33580.949001
 30
0.0
  0
LWPOLYLINE
  5
135
100
AcDbEntity
  8
レイヤー_1
 62
1
100
AcDbPolyline
 90
2
 70
0
 10
3.526522
 20
98.527130
 30
0.0
 10
94.527102
 20
98.527130
 30
0.0
  0
ENDSEC
  0
SECTION
  2
OBJECTS
  0
DICTIONARY
  5
C
330
0
100
AcDbDictionary
  3
ACAD_GROUP
350
D
  3
ACAD_MLINESTYLE
350
17
  0
DICTIONARY
  5
D
330
C
100
AcDbDictionary
  0
DICTIONARY
  5
1A
330
C
100
AcDbDictionary
  0
DICTIONARY
  5
17
330
C
100
AcDbDictionary
  3
STANDARD
350
18
  0
DICTIONARY
  5
19
330
C
100
AcDbDictionary
  0
ENDSEC
  0
EOF
