  0
SECTION
  2
HEADER
  9
$ACADVER
  1
AC1014
  9
$HANDSEED
  5
FFFF
  9
$MEASUREMENT
 70
     1
  0
ENDSEC
  0
SECTION
  2
TABLES
  0
TABLE
  2
VPORT
  5
8
330
0
100
AcDbSymbolTable
 70
     4
  0
VPORT
  5
2E
330
8
100
AcDbSymbolTableRecord
100
AcDbViewportTableRecord
  2
*ACTIVE
 70
     0
 10
0.0
 20
0.0
 11
1.0
 21
1.0
 12
210.0
 22
148.5
 13
0.0
 23
0.0
 14
10.0
 24
10.0
 15
10.0
 25
10.0
 16
0.0
 26
0.0
 36
1.0
 17
0.0
 27
0.0
 37
0.0
 40
341.0
 41
1.24
 42
50.0
 43
0.0
 44
0.0
 50
0.0
 51
0.0
 71
     0
 72
   100
 73
     1
 74
     3
 75
     0
 76
     0
 77
     0
 78
     0
  0
ENDTAB
  0
TABLE
  2
LTYPE
  5
5
330
0
100
AcDbSymbolTable
 70
     1
  0
LTYPE
  5
14
330
5
100
AcDbSymbolTableRecord
100
AcDbLinetypeTableRecord
  2
BYBLOCK
 70
     0
  3

 72
    65
 73
     0
 40
0.0
  0
LTYPE
  5
15
330
5
100
AcDbSymbolTableRecord
100
AcDbLinetypeTableRecord
  2
BYLAYER
 70
     0
  3

 72
    65
 73
     0
 40
0.0
  0
LTYPE
  5
16
330
5
100
AcDbSymbolTableRecord
100
AcDbLinetypeTableRecord
  2
CONTINUOUS
 70
     0
  3
Solid line
 72
    65
 73
     0
 40
0.0
  0
ENDTAB
  0
TABLE
  2
LAYER
  5
2
100
AcDbSymbolTable
 70
2
  0
LAYER
  5
50
100
AcDbSymbolTableRecord
100
AcDbLayerTableRecord
  2
0
 70
0
  6
CONTINUOUS
  0
LAYER
  5
51
100
AcDbSymbolTableRecord
100
AcDbLayerTableRecord
  2
レイヤー_1
 70
0
  6
CONTINUOUS
  0
ENDTAB
  0
TABLE
  2
STYLE
  5
3
330
0
100
AcDbSymbolTable
 70
     1
  0
STYLE
  5
11
330
3
100
AcDbSymbolTableRecord
100
AcDbTextStyleTableRecord
  2
STANDARD
 70
     0
 40
0.0
 41
1.0
 50
0.0
 71
     0
 42
2.5
  3
txt
  4

  0
ENDTAB
  0
TABLE
  2
VIEW
  5
6
330
0
100
AcDbSymbolTable
 70
     0
  0
ENDTAB
  0
TABLE
  2
UCS
  5
7
330
0
100
AcDbSymbolTable
 70
     0
  0
ENDTAB
  0
TABLE
  2
APPID
  5
9
330
0
100
AcDbSymbolTable
 70
     2
  0
APPID
  5
12
330
9
100
AcDbSymbolTableRecord
100
AcDbRegAppTableRecord
  2
ACAD
 70
     0
  0
ENDTAB
  0
TABLE
  2
DIMSTYLE
  5
A
330
0
100
AcDbSymbolTable
 70
     1
  0
DIMSTYLE
105
27
330
A
100
AcDbSymbolTableRecord
100
AcDbDimStyleTableRecord
  2
ISO-25
 70
     0
  3

  4

  5

  6

  7

 40
1.0
 41
2.5
 42
0.625
 43
3.75
 44
1.25
 45
0.0
 46
0.0
 47
0.0
 48
0.0
140
2.5
141
2.5
142
0.0
143
0.03937007874016
144
1.0
145
0.0
146
1.0
147
0.625
 71
     0
 72
     0
 73
     0
 74
     0
 75
     0
 76
     0
 77
     1
 78
     8
170
     0
171
     3
172
     1
173
     0
174
     0
175
     0
176
     0
177
     0
178
     0
270
     2
271
     2
272
     2
273
     2
274
     3
340
11
275
     0
280
     0
281
     0
282
     0
283
     0
284
     8
285
     0
286
     0
287
     3
288
     0
  0
ENDTAB
  0
TABLE
  2
BLOCK_RECORD
  5
1
330
0
100
AcDbSymbolTable
 70
     1
  0
BLOCK_RECORD
  5
1F
330
1
100
AcDbSymbolTableRecord
100
AcDbBlockTableRecord
  2
*MODEL_SPACE
  0
BLOCK_RECORD
  5
1B
330
1
100
AcDbSymbolTableRecord
100
AcDbBlockTableRecord
  2
*PAPER_SPACE
  0
ENDTAB
  0
ENDSEC
  0
SECTION
  2
BLOCKS
  0
BLOCK
  5
20
330
1F
100
AcDbEntity
  8
0
100
AcDbBlockBegin
  2
*MODEL_SPACE
 70
     0
 10
0.0
 20
0.0
 30
0.0
  3
*MODEL_SPACE
  1

  0
ENDBLK
  5
21
330
1F
100
AcDbEntity
  8
0
100
AcDbBlockEnd
  0
BLOCK
  5
1C
330
1B
100
AcDbEntity
 67
     1
  8
0
100
AcDbBlockBegin
  2
*PAPER_SPACE
  1

  0
ENDBLK
  5
1D
330
1B
100
AcDbEntity
 67
     1
  8
0
100
AcDbBlockEnd
  0
ENDSEC
  0
SECTION
  2
ENTITIES
  0
SPLINE
  5
100
100
AcDbEntity
  8
レイヤー_1
 62
1
100
AcDbSpline
 70
8
 71
3
 72
8
 73
4
 74
0
 40
0
 40
0
 40
0
 40
0
 40
1
 40
1
 40
1
 40
1
 10
6.627154
 20
90.820789
 30
0.0
 10
6.627154
 20
90.427797
 30
0.0
 10
6.417495
 20
90.064657
 30
0.0
 10
6.077154
 20
89.868161
 30
0.0
  0
SPLINE
  5
101
100
AcDbEntity
  8
レイヤー_1
 62
1
100
AcDbSpline
 70
8
 71
3
 72
8
 73
4
 74
0
 40
0
 40
0
 40
0
 40
0
 40
1
 40
1
 40
1
 40
1
 10
6.077154
 20
89.868161
 30
0.0
 10
5.736812
 20
89.671665
 30
0.0
 10
5.317495
 20
89.671665
 30
0.0
 10
4.977153
 20
89.868161
 30
0.0
  0
SPLINE
  5
102
100
AcDbEntity
  8
レイヤー_1
 62
1
100
AcDbSpline
 70
8
 71
3
 72
8
 73
4
 74
0
 40
0
 40
0
 40
0
 40
0
 40
1
 40
1
 40
1
 40
1
 10
4.977153
 20
89.868161
 30
0.0
 10
4.636812
 20
90.064657
 30
0.0
 10
4.427153
 20
90.427797
 30
0.0
 10
4.427153
 20
90.820789
 30
0.0
  0
SPLINE
  5
103
100
AcDbEntity
  8
レイヤー_1
 62
1
100
AcDbSpline
 70
8
 71
3
 72
8
 73
4
 74
0
 40
0
 40
0
 40
0
 40
0
 40
1
 40
1
 40
1
 40
1
 10
4.427153
 20
90.820789
 30
0.0
 10
4.427153
 20
91.213781
 30
0.0
 10
4.636812
 20
91.576921
 30
0.0
 10
4.977153
 20
91.773417
 30
0.0
  0
SPLINE
  5
104
100
AcDbEntity
  8
レイヤー_1
 62
1
100
AcDbSpline
 70
8
 71
3
 72
8
 73
4
 74
0
 40
0
 40
0
 40
0
 40
0
 40
1
 40
1
 40
1
 40
1
 10
4.977153
 20
91.773417
 30
0.0
 10
5.317495
 20
91.969913
 30
0.0
 10
5.736812
 20
91.969913
 30
0.0
 10
6.077154
 20
91.773417
 30
0.0
  0
SPLINE
  5
105
100
AcDbEntity
  8
レイヤー_1
 62
1
100
AcDbSpline
 70
8
 71
3
 72
8
 73
4
 74
0
 40
0
 40
0
 40
0
 40
0
 40
1
 40
1
 40
1
 40
1
 10
6.077154
 20
91.773417
 30
0.0
 10
6.417495
 20
91.576921
 30
0.0
 10
6.627154
 20
91.213781
 30
0.0
 10
6.627154
 20
90.820789
 30
0.0
  0
SPLINE
  5
106
100
AcDbEntity
  8
レイヤー_1
 62
1
100
AcDbSpline
 70
8
 71
3
 72
8
 73
4
 74
0
 40
0
 40
0
 40
0
 40
0
 40
1
 40
1
 40
1
 40
1
 10
6.627154
 20
19.820804
 30
0.0
 10
6.627154
 20
19.427812
 30
0.0
 10
6.417495
 20
19.064672
 30
0.0
 10
6.077154
 20
18.868176
 30
0.0
  0
SPLINE
  5
107
100
AcDbEntity
  8
レイヤー_1
 62
1
100
AcDbSpline
 70
8
 71
3
 72
8
 73
4
 74
0
 40
0
 40
0
 40
0
 40
0
 40
1
 40
1
 40
1
 40
1
 10
6.077154
 20
18.868176
 30
0.0
 10
5.736812
 20
18.671680
 30
0.0
 10
5.317495
 20
18.671680
 30
0.0
 10
4.977153
 20
18.868176
 30
0.0
  0
SPLINE
  5
108
100
AcDbEntity
  8
レイヤー_1
 62
1
100
AcDbSpline
 70
8
 71
3
 72
8
 73
4
 74
0
 40
0
 40
0
 40
0
 40
0
 40
1
 40
1
 40
1
 40
1
 10
4.977153
 20
18.868176
 30
0.0
 10
4.636812
 20
19.064672
 30
0.0
 10
4.427153
 20
19.427812
 30
0.0
 10
4.427153
 20
19.820804
 30
0.0
  0
SPLINE
  5
109
100
AcDbEntity
  8
レイヤー_1
 62
1
100
AcDbSpline
 70
8
 71
3
 72
8
 73
4
 74
0
 40
0
 40
0
 40
0
 40
0
 40
1
 40
1
 40
1
 40
1
 10
4.427153
 20
19.820804
 30
0.0
 10
4.427153
 20
20.213796
 30
0.0
 10
4.636812
 20
20.576936
 30
0.0
 10
4.977153
 20
20.773432
 30
0.0
  0
SPLINE
  5
10a
100
AcDbEntity
  8
レイヤー_1
 62
1
100
AcDbSpline
 70
8
 71
3
 72
8
 73
4
 74
0
 40
0
 40
0
 40
0
 40
0
 40
1
 40
1
 40
1
 40
1
 10
4.977153
 20
20.773432
 30
0.0
 10
5.317495
 20
20.969928
 30
0.0
 10
5.736812
 20
20.969928
 30
0.0
 10
6.077154
 20
20.773432
 30
0.0
  0
SPLINE
  5
10b
100
AcDbEntity
  8
レイヤー_1
 62
1
100
AcDbSpline
 70
8
 71
3
 72
8
 73
4
 74
0
 40
0
 40
0
 40
0
 40
0
 40
1
 40
1
 40
1
 40
1
 10
6.077154
 20
20.773432
 30
0.0
 10
6.417495
 20
20.576936
 30
0.0
 10
6.627154
 20
20.213796
 30
0.0
 10
6.627154
 20
19.820804
 30
0.0
  0
LWPOLYLINE
  5
10c
100
AcDbEntity
  8
レイヤー_1
 62
1
100
AcDbPolyline
 90
1
 70
1
 10
6.627154
 20
90.820789
 30
0.0
  0
SPLINE
  5
10d
100
AcDbEntity
  8
レイヤー_1
 62
1
100
AcDbSpline
 70
8
 71
3
 72
8
 73
4
 74
0
 40
0
 40
0
 40
0
 40
0
 40
1
 40
1
 40
1
 40
1
 10
93.627112
 20
19.820804
 30
0.0
 10
93.627112
 20
19.427812
 30
0.0
 10
93.417453
 20
19.064672
 30
0.0
 10
93.077112
 20
18.868176
 30
0.0
  0
SPLINE
  5
10e
100
AcDbEntity
  8
レイヤー_1
 62
1
100
AcDbSpline
 70
8
 71
3
 72
8
 73
4
 74
0
 40
0
 40
0
 40
0
 40
0
 40
1
 40
1
 40
1
 40
1
 10
93.077112
 20
18.868176
 30
0.0
 10
92.736770
 20
18.671680
 30
0.0
 10
92.317453
 20
18.671680
 30
0.0
 10
91.977111
 20
18.868176
 30
0.0
  0
SPLINE
  5
10f
100
AcDbEntity
  8
レイヤー_1
 62
1
100
AcDbSpline
 70
8
 71
3
 72
8
 73
4
 74
0
 40
0
 40
0
 40
0
 40
0
 40
1
 40
1
 40
1
 40
1
 10
91.977111
 20
18.868176
 30
0.0
 10
91.636770
 20
19.064672
 30
0.0
 10
91.427111
 20
19.427812
 30
0.0
 10
91.427111
 20
19.820804
 30
0.0
  0
SPLINE
  5
110
100
AcDbEntity
  8
レイヤー_1
 62
1
100
AcDbSpline
 70
8
 71
3
 72
8
 73
4
 74
0
 40
0
 40
0
 40
0
 40
0
 40
1
 40
1
 40
1
 40
1
 10
91.427111
 20
19.820804
 30
0.0
 10
91.427111
 20
20.213796
 30
0.0
 10
91.636770
 20
20.576936
 30
0.0
 10
91.977111
 20
20.773432
 30
0.0
  0
SPLINE
  5
111
100
AcDbEntity
  8
レイヤー_1
 62
1
100
AcDbSpline
 70
8
 71
3
 72
8
 73
4
 74
0
 40
0
 40
0
 40
0
 40
0
 40
1
 40
1
 40
1
 40
1
 10
91.977111
 20
20.773432
 30
0.0
 10
92.317453
 20
20.969928
 30
0.0
 10
92.736770
 20
20.969928
 30
0.0
 10
93.077112
 20
20.773432
 30
0.0
  0
SPLINE
  5
112
100
AcDbEntity
  8
レイヤー_1
 62
1
100
AcDbSpline
 70
8
 71
3
 72
8
 73
4
 74
0
 40
0
 40
0
 40
0
 40
0
 40
1
 40
1
 40
1
 40
1
 10
93.077112
 20
20.773432
 30
0.0
 10
93.417453
 20
20.576936
 30
0.0
 10
93.627112
 20
20.213796
 30
0.0
 10
93.627112
 20
19.820804
 30
0.0
  0
LWPOLYLINE
  5
113
100
AcDbEntity
  8
レイヤー_1
 62
1
100
AcDbPolyline
 90
1
 70
1
 10
6.627154
 20
19.820804
 30
0.0
  0
SPLINE
  5
114
100
AcDbEntity
  8
レイヤー_1
 62
1
100
AcDbSpline
 70
8
 71
3
 72
8
 73
4
 74
0
 40
0
 40
0
 40
0
 40
0
 40
1
 40
1
 40
1
 40
1
 10
76.627148
 20
57.820731
 30
0.0
 10
76.627148
 20
57.427738
 30
0.0
 10
76.417490
 20
57.064598
 30
0.0
 10
76.077148
 20
56.868102
 30
0.0
  0
SPLINE
  5
115
100
AcDbEntity
  8
レイヤー_1
 62
1
100
AcDbSpline
 70
8
 71
3
 72
8
 73
4
 74
0
 40
0
 40
0
 40
0
 40
0
 40
1
 40
1
 40
1
 40
1
 10
76.077148
 20
56.868102
 30
0.0
 10
75.736807
 20
56.671606
 30
0.0
 10
75.317489
 20
56.671606
 30
0.0
 10
74.977148
 20
56.868102
 30
0.0
  0
SPLINE
  5
116
100
AcDbEntity
  8
レイヤー_1
 62
1
100
AcDbSpline
 70
8
 71
3
 72
8
 73
4
 74
0
 40
0
 40
0
 40
0
 40
0
 40
1
 40
1
 40
1
 40
1
 10
74.977148
 20
56.868102
 30
0.0
 10
74.636807
 20
57.064598
 30
0.0
 10
74.427148
 20
57.427738
 30
0.0
 10
74.427148
 20
57.820731
 30
0.0
  0
SPLINE
  5
117
100
AcDbEntity
  8
レイヤー_1
 62
1
100
AcDbSpline
 70
8
 71
3
 72
8
 73
4
 74
0
 40
0
 40
0
 40
0
 40
0
 40
1
 40
1
 40
1
 40
1
 10
74.427148
 20
57.820731
 30
0.0
 10
74.427148
 20
58.213723
 30
0.0
 10
74.636807
 20
58.576863
 30
0.0
 10
74.977148
 20
58.773359
 30
0.0
  0
SPLINE
  5
118
100
AcDbEntity
  8
レイヤー_1
 62
1
100
AcDbSpline
 70
8
 71
3
 72
8
 73
4
 74
0
 40
0
 40
0
 40
0
 40
0
 40
1
 40
1
 40
1
 40
1
 10
74.977148
 20
58.773359
 30
0.0
 10
75.317489
 20
58.969855
 30
0.0
 10
75.736807
 20
58.969855
 30
0.0
 10
76.077148
 20
58.773359
 30
0.0
  0
SPLINE
  5
119
100
AcDbEntity
  8
レイヤー_1
 62
1
100
AcDbSpline
 70
8
 71
3
 72
8
 73
4
 74
0
 40
0
 40
0
 40
0
 40
0
 40
1
 40
1
 40
1
 40
1
 10
76.077148
 20
58.773359
 30
0.0
 10
76.417490
 20
58.576863
 30
0.0
 10
76.627148
 20
58.213723
 30
0.0
 10
76.627148
 20
57.820731
 30
0.0
  0
LWPOLYLINE
  5
11a
100
AcDbEntity
  8
レイヤー_1
 62
1
100
AcDbPolyline
 90
1
 70
1
 10
93.627112
 20
19.820804
 30
0.0
  0
SPLINE
  5
11b
100
AcDbEntity
  8
レイヤー_1
 62
1
100
AcDbSpline
 70
8
 71
3
 72
8
 73
4
 74
0
 40
0
 40
0
 40
0
 40
0
 40
1
 40
1
 40
1
 40
1
 10
95.627113
 20
57.820731
 30
0.0
 10
95.627113
 20
57.427738
 30
0.0
 10
95.417454
 20
57.064598
 30
0.0
 10
95.077113
 20
56.868102
 30
0.0
  0
SPLINE
  5
11c
100
AcDbEntity
  8
レイヤー_1
 62
1
100
AcDbSpline
 70
8
 71
3
 72
8
 73
4
 74
0
 40
0
 40
0
 40
0
 40
0
 40
1
 40
1
 40
1
 40
1
 10
95.077113
 20
56.868102
 30
0.0
 10
94.736771
 20
56.671606
 30
0.0
 10
94.317454
 20
56.671606
 30
0.0
 10
93.977112
 20
56.868102
 30
0.0
  0
SPLINE
  5
11d
100
AcDbEntity
  8
レイヤー_1
 62
1
100
AcDbSpline
 70
8
 71
3
 72
8
 73
4
 74
0
 40
0
 40
0
 40
0
 40
0
 40
1
 40
1
 40
1
 40
1
 10
93.977112
 20
56.868102
 30
0.0
 10
93.636771
 20
57.064598
 30
0.0
 10
93.427112
 20
57.427738
 30
0.0
 10
93.427112
 20
57.820731
 30
0.0
  0
SPLINE
  5
11e
100
AcDbEntity
  8
レイヤー_1
 62
1
100
AcDbSpline
 70
8
 71
3
 72
8
 73
4
 74
0
 40
0
 40
0
 40
0
 40
0
 40
1
 40
1
 40
1
 40
1
 10
93.427112
 20
57.820731
 30
0.0
 10
93.427112
 20
58.213723
 30
0.0
 10
93.636771
 20
58.576863
 30
0.0
 10
93.977112
 20
58.773359
 30
0.0
  0
SPLINE
  5
11f
100
AcDbEntity
  8
レイヤー_1
 62
1
100
AcDbSpline
 70
8
 71
3
 72
8
 73
4
 74
0
 40
0
 40
0
 40
0
 40
0
 40
1
 40
1
 40
1
 40
1
 10
93.977112
 20
58.773359
 30
0.0
 10
94.317454
 20
58.969855
 30
0.0
 10
94.736771
 20
58.969855
 30
0.0
 10
95.077113
 20
58.773359
 30
0.0
  0
SPLINE
  5
120
100
AcDbEntity
  8
レイヤー_1
 62
1
100
AcDbSpline
 70
8
 71
3
 72
8
 73
4
 74
0
 40
0
 40
0
 40
0
 40
0
 40
1
 40
1
 40
1
 40
1
 10
95.077113
 20
58.773359
 30
0.0
 10
95.417454
 20
58.576863
 30
0.0
 10
95.627113
 20
58.213723
 30
0.0
 10
95.627113
 20
57.820731
 30
0.0
  0
LWPOLYLINE
  5
121
100
AcDbEntity
  8
レイヤー_1
 62
1
100
AcDbPolyline
 90
1
 70
1
 10
76.627148
 20
57.820731
 30
0.0
  0
SPLINE
  5
122
100
AcDbEntity
  8
レイヤー_1
 62
1
100
AcDbSpline
 70
8
 71
3
 72
8
 73
4
 74
0
 40
0
 40
0
 40
0
 40
0
 40
1
 40
1
 40
1
 40
1
 10
95.627113
 20
92.820789
 30
0.0
 10
95.627113
 20
92.427797
 30
0.0
 10
95.417454
 20
92.064657
 30
0.0
 10
95.077113
 20
91.868161
 30
0.0
  0
SPLINE
  5
123
100
AcDbEntity
  8
レイヤー_1
 62
1
100
AcDbSpline
 70
8
 71
3
 72
8
 73
4
 74
0
 40
0
 40
0
 40
0
 40
0
 40
1
 40
1
 40
1
 40
1
 10
95.077113
 20
91.868161
 30
0.0
 10
94.736771
 20
91.671664
 30
0.0
 10
94.317454
 20
91.671664
 30
0.0
 10
93.977112
 20
91.868161
 30
0.0
  0
SPLINE
  5
124
100
AcDbEntity
  8
レイヤー_1
 62
1
100
AcDbSpline
 70
8
 71
3
 72
8
 73
4
 74
0
 40
0
 40
0
 40
0
 40
0
 40
1
 40
1
 40
1
 40
1
 10
93.977112
 20
91.868161
 30
0.0
 10
93.636771
 20
92.064657
 30
0.0
 10
93.427112
 20
92.427797
 30
0.0
 10
93.427112
 20
92.820789
 30
0.0
  0
SPLINE
  5
125
100
AcDbEntity
  8
レイヤー_1
 62
1
100
AcDbSpline
 70
8
 71
3
 72
8
 73
4
 74
0
 40
0
 40
0
 40
0
 40
0
 40
1
 40
1
 40
1
 40
1
 10
93.427112
 20
92.820789
 30
0.0
 10
93.427112
 20
93.213781
 30
0.0
 10
93.636771
 20
93.576921
 30
0.0
 10
93.977112
 20
93.773417
 30
0.0
  0
SPLINE
  5
126
100
AcDbEntity
  8
レイヤー_1
 62
1
100
AcDbSpline
 70
8
 71
3
 72
8
 73
4
 74
0
 40
0
 40
0
 40
0
 40
0
 40
1
 40
1
 40
1
 40
1
 10
93.977112
 20
93.773417
 30
0.0
 10
94.317454
 20
93.969913
 30
0.0
 10
94.736771
 20
93.969913
 30
0.0
 10
95.077113
 20
93.773417
 30
0.0
  0
SPLINE
  5
127
100
AcDbEntity
  8
レイヤー_1
 62
1
100
AcDbSpline
 70
8
 71
3
 72
8
 73
4
 74
0
 40
0
 40
0
 40
0
 40
0
 40
1
 40
1
 40
1
 40
1
 10
95.077113
 20
93.773417
 30
0.0
 10
95.417454
 20
93.576921
 30
0.0
 10
95.627113
 20
93.213781
 30
0.0
 10
95.627113
 20
92.820789
 30
0.0
  0
LWPOLYLINE
  5
128
100
AcDbEntity
  8
レイヤー_1
 62
1
100
AcDbPolyline
 90
1
 70
1
 10
95.627113
 20
57.820731
 30
0.0
  0
SPLINE
  5
129
100
AcDbEntity
  8
レイヤー_1
 62
1
100
AcDbSpline
 70
8
 71
3
 72
8
 73
4
 74
0
 40
0
 40
0
 40
0
 40
0
 40
1
 40
1
 40
1
 40
1
 10
98.500000
 20
55.795810
 30
0.0
 10
98.499999
 20
54.691240
 30
0.0
 10
97.604568
 20
53.795811
 30
0.0
 10
96.499999
 20
53.795811
 30
0.0
  0
SPLINE
  5
12a
100
AcDbEntity
  8
レイヤー_1
 62
1
100
AcDbSpline
 70
8
 71
3
 72
8
 73
4
 74
0
 40
0
 40
0
 40
0
 40
0
 40
1
 40
1
 40
1
 40
1
 10
70.000001
 20
53.795811
 30
0.0
 10
68.895432
 20
53.795811
 30
0.0
 10
68.000002
 20
54.691240
 30
0.0
 10
68.000000
 20
55.795810
 30
0.0
  0
SPLINE
  5
12b
100
AcDbEntity
  8
レイヤー_1
 62
1
100
AcDbSpline
 70
8
 71
3
 72
8
 73
4
 74
0
 40
0
 40
0
 40
0
 40
0
 40
1
 40
1
 40
1
 40
1
 10
70.000001
 20
96.795808
 30
0.0
 10
68.895432
 20
96.795808
 30
0.0
 10
68.000001
 20
95.900378
 30
0.0
 10
68.000000
 20
94.795808
 30
0.0
  0
LWPOLYLINE
  5
12c
100
AcDbEntity
  8
レイヤー_1
 62
1
100
AcDbPolyline
 90
1
 70
1
 10
95.627113
 20
92.820789
 30
0.0
  0
LWPOLYLINE
  5
12d
100
AcDbEntity
  8
レイヤー_1
 62
1
100
AcDbPolyline
 90
3
 70
0
 10
68.000000
 20
94.795808
 30
0.0
 10
68.000000
 20
94.551268
 30
0.0
 10
68.000000
 20
55.795810
 30
0.0
  0
LWPOLYLINE
  5
12e
100
AcDbEntity
  8
レイヤー_1
 62
1
100
AcDbPolyline
 90
2
 70
0
 10
70.000001
 20
53.795811
 30
0.0
 10
96.499999
 20
53.795811
 30
0.0
  0
LWPOLYLINE
  5
12f
100
AcDbEntity
  8
レイヤー_1
 62
1
100
AcDbPolyline
 90
2
 70
0
 10
98.475662
 20
94.719658
 30
0.0
 10
98.500003
 20
55.795810
 30
0.0
  0
LWPOLYLINE
  5
130
100
AcDbEntity
  8
レイヤー_1
 62
1
100
AcDbPolyline
 90
2
 70
0
 10
82.560455
 20
41.155720
 30
0.0
 10
72.662075
 20
31.257340
 30
0.0
  0
LWPOLYLINE
  5
131
100
AcDbEntity
  8
レイヤー_1
 62
1
100
AcDbPolyline
 90
2
 70
0
 10
92.461375
 20
31.257340
 30
0.0
 10
82.560455
 20
41.155720
 30
0.0
  0
LWPOLYLINE
  5
132
100
AcDbEntity
  8
レイヤー_1
 62
1
100
AcDbPolyline
 90
2
 70
0
 10
82.560455
 20
21.356420
 30
0.0
 10
92.461375
 20
31.257340
 30
0.0
  0
LWPOLYLINE
  5
133
100
AcDbEntity
  8
レイヤー_1
 62
1
100
AcDbPolyline
 90
2
 70
0
 10
72.662075
 20
31.257340
 30
0.0
 10
82.560455
 20
21.356420
 30
0.0
  0
LWPOLYLINE
  5
134
100
AcDbEntity
  8
レイヤー_1
 62
1
100
AcDbPolyline
 90
2
 70
0
 10
61.559735
 20
52.258060
 30
0.0
 10
47.561795
 20
52.258060
 30
0.0
  0
LWPOLYLINE
  5
135
100
AcDbEntity
  8
レイヤー_1
 62
1
100
AcDbPolyline
 90
2
 70
0
 10
61.559735
 20
38.257580
 30
0.0
 10
61.559735
 20
52.258060
 30
0.0
  0
LWPOLYLINE
  5
136
100
AcDbEntity
  8
レイヤー_1
 62
1
100
AcDbPolyline
 90
2
 70
0
 10
47.561795
 20
38.257580
 30
0.0
 10
61.559735
 20
38.257580
 30
0.0
  0
LWPOLYLINE
  5
137
100
AcDbEntity
  8
レイヤー_1
 62
1
100
AcDbPolyline
 90
2
 70
0
 10
47.561795
 20
52.258060
 30
0.0
 10
47.561795
 20
38.257580
 30
0.0
  0
LWPOLYLINE
  5
138
100
AcDbEntity
  8
レイヤー_1
 62
1
100
AcDbPolyline
 90
2
 70
0
 10
42.560535
 20
52.258060
 30
0.0
 10
28.560055
 20
52.258060
 30
0.0
  0
LWPOLYLINE
  5
139
100
AcDbEntity
  8
レイヤー_1
 62
1
100
AcDbPolyline
 90
2
 70
0
 10
42.560535
 20
38.257580
 30
0.0
 10
42.560535
 20
52.258060
 30
0.0
  0
LWPOLYLINE
  5
13a
100
AcDbEntity
  8
レイヤー_1
 62
1
100
AcDbPolyline
 90
2
 70
0
 10
28.560055
 20
38.257580
 30
0.0
 10
42.560535
 20
38.257580
 30
0.0
  0
LWPOLYLINE
  5
13b
100
AcDbEntity
  8
レイヤー_1
 62
1
100
AcDbPolyline
 90
2
 70
0
 10
28.560055
 20
52.258060
 30
0.0
 10
28.560055
 20
38.257580
 30
0.0
  0
LWPOLYLINE
  5
13c
100
AcDbEntity
  8
レイヤー_1
 62
1
100
AcDbPolyline
 90
2
 70
0
 10
23.561335
 20
52.258060
 30
0.0
 10
9.560855
 20
52.258060
 30
0.0
  0
LWPOLYLINE
  5
13d
100
AcDbEntity
  8
レイヤー_1
 62
1
100
AcDbPolyline
 90
2
 70
0
 10
23.561335
 20
38.257580
 30
0.0
 10
23.561335
 20
52.258060
 30
0.0
  0
LWPOLYLINE
  5
13e
100
AcDbEntity
  8
レイヤー_1
 62
1
100
AcDbPolyline
 90
2
 70
0
 10
9.560855
 20
38.257580
 30
0.0
 10
23.561335
 20
38.257580
 30
0.0
  0
LWPOLYLINE
  5
13f
100
AcDbEntity
  8
レイヤー_1
 62
1
100
AcDbPolyline
 90
2
 70
0
 10
9.560855
 20
52.258060
 30
0.0
 10
9.560855
 20
38.257580
 30
0.0
  0
LWPOLYLINE
  5
140
100
AcDbEntity
  8
レイヤー_1
 62
1
100
AcDbPolyline
 90
2
 70
0
 10
61.559735
 20
71.257260
 30
0.0
 10
47.561795
 20
71.257260
 30
0.0
  0
LWPOLYLINE
  5
141
100
AcDbEntity
  8
レイヤー_1
 62
1
100
AcDbPolyline
 90
2
 70
0
 10
61.559735
 20
57.256780
 30
0.0
 10
61.559735
 20
71.257260
 30
0.0
  0
LWPOLYLINE
  5
142
100
AcDbEntity
  8
レイヤー_1
 62
1
100
AcDbPolyline
 90
2
 70
0
 10
47.561795
 20
57.256780
 30
0.0
 10
61.559735
 20
57.256780
 30
0.0
  0
LWPOLYLINE
  5
143
100
AcDbEntity
  8
レイヤー_1
 62
1
100
AcDbPolyline
 90
2
 70
0
 10
47.561795
 20
71.257260
 30
0.0
 10
47.561795
 20
57.256780
 30
0.0
  0
LWPOLYLINE
  5
144
100
AcDbEntity
  8
レイヤー_1
 62
1
100
AcDbPolyline
 90
2
 70
0
 10
42.560535
 20
71.257260
 30
0.0
 10
28.560055
 20
71.257260
 30
0.0
  0
LWPOLYLINE
  5
145
100
AcDbEntity
  8
レイヤー_1
 62
1
100
AcDbPolyline
 90
2
 70
0
 10
42.560535
 20
57.256780
 30
0.0
 10
42.560535
 20
71.257260
 30
0.0
  0
LWPOLYLINE
  5
146
100
AcDbEntity
  8
レイヤー_1
 62
1
100
AcDbPolyline
 90
2
 70
0
 10
28.560055
 20
57.256780
 30
0.0
 10
42.560535
 20
57.256780
 30
0.0
  0
LWPOLYLINE
  5
147
100
AcDbEntity
  8
レイヤー_1
 62
1
100
AcDbPolyline
 90
2
 70
0
 10
28.560055
 20
71.257260
 30
0.0
 10
28.560055
 20
57.256780
 30
0.0
  0
LWPOLYLINE
  5
148
100
AcDbEntity
  8
レイヤー_1
 62
1
100
AcDbPolyline
 90
2
 70
0
 10
23.561335
 20
71.257260
 30
0.0
 10
9.560855
 20
71.257260
 30
0.0
  0
LWPOLYLINE
  5
149
100
AcDbEntity
  8
レイヤー_1
 62
1
100
AcDbPolyline
 90
2
 70
0
 10
23.561335
 20
57.256780
 30
0.0
 10
23.561335
 20
71.257260
 30
0.0
  0
LWPOLYLINE
  5
14a
100
AcDbEntity
  8
レイヤー_1
 62
1
100
AcDbPolyline
 90
2
 70
0
 10
9.560855
 20
57.256780
 30
0.0
 10
23.561335
 20
57.256780
 30
0.0
  0
LWPOLYLINE
  5
14b
100
AcDbEntity
  8
レイヤー_1
 62
1
100
AcDbPolyline
 90
2
 70
0
 10
9.560855
 20
71.257260
 30
0.0
 10
9.560855
 20
57.256780
 30
0.0
  0
LWPOLYLINE
  5
14c
100
AcDbEntity
  8
レイヤー_1
 62
1
100
AcDbPolyline
 90
2
 70
0
 10
61.559735
 20
90.256460
 30
0.0
 10
47.561795
 20
90.256460
 30
0.0
  0
LWPOLYLINE
  5
14d
100
AcDbEntity
  8
レイヤー_1
 62
1
100
AcDbPolyline
 90
2
 70
0
 10
61.559735
 20
76.255980
 30
0.0
 10
61.559735
 20
90.256460
 30
0.0
  0
LWPOLYLINE
  5
14e
100
AcDbEntity
  8
レイヤー_1
 62
1
100
AcDbPolyline
 90
2
 70
0
 10
47.561795
 20
76.255980
 30
0.0
 10
61.559735
 20
76.255980
 30
0.0
  0
LWPOLYLINE
  5
14f
100
AcDbEntity
  8
レイヤー_1
 62
1
100
AcDbPolyline
 90
2
 70
0
 10
47.561795
 20
90.256460
 30
0.0
 10
47.561795
 20
76.255980
 30
0.0
  0
LWPOLYLINE
  5
150
100
AcDbEntity
  8
レイヤー_1
 62
1
100
AcDbPolyline
 90
2
 70
0
 10
42.560535
 20
90.256460
 30
0.0
 10
28.560055
 20
90.256460
 30
0.0
  0
LWPOLYLINE
  5
151
100
AcDbEntity
  8
レイヤー_1
 62
1
100
AcDbPolyline
 90
2
 70
0
 10
42.560535
 20
76.255980
 30
0.0
 10
42.560535
 20
90.256460
 30
0.0
  0
LWPOLYLINE
  5
152
100
AcDbEntity
  8
レイヤー_1
 62
1
100
AcDbPolyline
 90
2
 70
0
 10
28.560055
 20
76.255980
 30
0.0
 10
42.560535
 20
76.255980
 30
0.0
  0
LWPOLYLINE
  5
153
100
AcDbEntity
  8
レイヤー_1
 62
1
100
AcDbPolyline
 90
2
 70
0
 10
28.560055
 20
90.256460
 30
0.0
 10
28.560055
 20
76.255980
 30
0.0
  0
LWPOLYLINE
  5
154
100
AcDbEntity
  8
レイヤー_1
 62
1
100
AcDbPolyline
 90
2
 70
0
 10
23.561335
 20
90.256460
 30
0.0
 10
9.560855
 20
90.256460
 30
0.0
  0
LWPOLYLINE
  5
155
100
AcDbEntity
  8
レイヤー_1
 62
1
100
AcDbPolyline
 90
2
 70
0
 10
23.561335
 20
76.255980
 30
0.0
 10
23.561335
 20
90.256460
 30
0.0
  0
LWPOLYLINE
  5
156
100
AcDbEntity
  8
レイヤー_1
 62
1
100
AcDbPolyline
 90
2
 70
0
 10
9.560855
 20
76.255980
 30
0.0
 10
23.561335
 20
76.255980
 30
0.0
  0
SPLINE
  5
157
100
AcDbEntity
  8
レイヤー_1
 62
1
100
AcDbSpline
 70
8
 71
3
 72
8
 73
4
 74
0
 40
0
 40
0
 40
0
 40
0
 40
1
 40
1
 40
1
 40
1
 10
98.475662
 20
94.719658
 30
0.0
 10
98.475660
 20
95.824225
 30
0.0
 10
97.580233
 20
96.719654
 30
0.0
 10
96.475666
 20
96.719656
 30
0.0
  0
SPLINE
  5
158
100
AcDbEntity
  8
レイヤー_1
 62
1
100
AcDbSpline
 70
8
 71
3
 72
8
 73
4
 74
0
 40
0
 40
0
 40
0
 40
0
 40
1
 40
1
 40
1
 40
1
 10
94.527102
 20
15.820841
 30
0.0
 10
95.631669
 20
15.820844
 30
0.0
 10
96.527096
 20
16.716271
 30
0.0
 10
96.527098
 20
17.820837
 30
0.0
  0
SPLINE
  5
159
100
AcDbEntity
  8
レイヤー_1
 62
1
100
AcDbSpline
 70
8
 71
3
 72
8
 73
4
 74
0
 40
0
 40
0
 40
0
 40
0
 40
1
 40
1
 40
1
 40
1
 10
1.527143
 20
17.820837
 30
0.0
 10
1.527146
 20
16.716270
 30
0.0
 10
2.422575
 20
15.820843
 30
0.0
 10
3.527142
 20
15.820841
 30
0.0
  0
LWPOLYLINE
  5
15a
100
AcDbEntity
  8
レイヤー_1
 62
1
100
AcDbPolyline
 90
2
 70
0
 10
9.560855
 20
90.256460
 30
0.0
 10
9.560855
 20
76.255980
 30
0.0
  0
LWPOLYLINE
  5
15b
100
AcDbEntity
  8
レイヤー_1
 62
1
100
AcDbPolyline
 90
2
 70
0
 10
3.526522
 20
15.821349
 30
0.0
 10
94.527102
 20
15.821349
 30
0.0
  0
SPLINE
  5
15c
100
AcDbEntity
  8
レイヤー_1
 62
1
100
AcDbSpline
 70
8
 71
3
 72
8
 73
4
 74
0
 40
0
 40
0
 40
0
 40
0
 40
1
 40
1
 40
1
 40
1
 10
3.527142
 20
94.820822
 30
0.0
 10
2.422574
 20
94.820821
 30
0.0
 10
1.527145
 20
93.925392
 30
0.0
 10
1.527143
 20
92.820824
 30
0.0
  0
LWPOLYLINE
  5
15d
100
AcDbEntity
  8
レイヤー_1
 62
1
100
AcDbPolyline
 90
2
 70
0
 10
1.525002
 20
17.822869
 30
0.0
 10
1.525002
 20
92.821444
 30
0.0
  0
LWPOLYLINE
  5
15e
100
AcDbEntity
  8
レイヤー_1
 62
1
100
AcDbPolyline
 90
2
 70
0
 10
96.499999
 20
49.793255
 30
0.0
 10
96.526082
 20
17.822869
 30
0.0
  0
LWPOLYLINE
  5
15f
100
AcDbEntity
  8
レイヤー_1
 62
1
100
AcDbPolyline
 90
2
 70
0
 10
3.527142
 20
94.820822
 30
0.0
 10
64.000001
 20
94.795810
 30
0.0
  0
SPLINE
  5
160
100
AcDbEntity
  8
レイヤー_1
 62
1
100
AcDbSpline
 70
8
 71
3
 72
8
 73
4
 74
0
 40
0
 40
0
 40
0
 40
0
 40
1
 40
1
 40
1
 40
1
 10
96.499997
 20
49.795815
 30
0.0
 10
96.499994
 20
50.900381
 30
0.0
 10
95.604567
 20
51.795808
 30
0.0
 10
94.500001
 20
51.795811
 30
0.0
  0
SPLINE
  5
161
100
AcDbEntity
  8
レイヤー_1
 62
1
100
AcDbSpline
 70
8
 71
3
 72
8
 73
4
 74
0
 40
0
 40
0
 40
0
 40
0
 40
1
 40
1
 40
1
 40
1
 10
66.000000
 20
92.795810
 30
0.0
 10
65.999999
 20
93.900379
 30
0.0
 10
65.104569
 20
94.795809
 30
0.0
 10
64.000000
 20
94.795810
 30
0.0
  0
SPLINE
  5
162
100
AcDbEntity
  8
レイヤー_1
 62
1
100
AcDbSpline
 70
8
 71
3
 72
8
 73
4
 74
0
 40
0
 40
0
 40
0
 40
0
 40
1
 40
1
 40
1
 40
1
 10
68.000000
 20
51.795810
 30
0.0
 10
66.895431
 20
51.795811
 30
0.0
 10
66.000001
 20
52.691241
 30
0.0
 10
66.000000
 20
53.795810
 30
0.0
  0
LWPOLYLINE
  5
163
100
AcDbEntity
  8
レイヤー_1
 62
1
100
AcDbPolyline
 90
2
 70
0
 10
70.000001
 20
96.795808
 30
0.0
 10
96.411983
 20
96.820073
 30
0.0
  0
LWPOLYLINE
  5
164
100
AcDbEntity
  8
レイヤー_1
 62
1
100
AcDbPolyline
 90
3
 70
0
 10
66.000000
 20
92.795810
 30
0.0
 10
66.000000
 20
92.551270
 30
0.0
 10
66.000000
 20
53.795810
 30
0.0
  0
LWPOLYLINE
  5
165
100
AcDbEntity
  8
レイヤー_1
 62
1
100
AcDbPolyline
 90
2
 70
0
 10
68.000000
 20
51.795810
 30
0.0
 10
94.500000
 20
51.795810
 30
0.0
  0
ENDSEC
  0
SECTION
  2
OBJECTS
  0
DICTIONARY
  5
C
330
0
100
AcDbDictionary
  3
ACAD_GROUP
350
D
  3
ACAD_MLINESTYLE
350
17
  0
DICTIONARY
  5
D
330
C
100
AcDbDictionary
  0
DICTIONARY
  5
1A
330
C
100
AcDbDictionary
  0
DICTIONARY
  5
17
330
C
100
AcDbDictionary
  3
STANDARD
350
18
  0
DICTIONARY
  5
19
330
C
100
AcDbDictionary
  0
ENDSEC
  0
EOF
