  0
SECTION
  2
HEADER
  9
$ACADVER
  1
AC1014
  9
$HANDSEED
  5
FFFF
  9
$MEASUREMENT
 70
     1
  0
ENDSEC
  0
SECTION
  2
TABLES
  0
TABLE
  2
VPORT
  5
8
330
0
100
AcDbSymbolTable
 70
     4
  0
VPORT
  5
2E
330
8
100
AcDbSymbolTableRecord
100
AcDbViewportTableRecord
  2
*ACTIVE
 70
     0
 10
0.0
 20
0.0
 11
1.0
 21
1.0
 12
210.0
 22
148.5
 13
0.0
 23
0.0
 14
10.0
 24
10.0
 15
10.0
 25
10.0
 16
0.0
 26
0.0
 36
1.0
 17
0.0
 27
0.0
 37
0.0
 40
341.0
 41
1.24
 42
50.0
 43
0.0
 44
0.0
 50
0.0
 51
0.0
 71
     0
 72
   100
 73
     1
 74
     3
 75
     0
 76
     0
 77
     0
 78
     0
  0
ENDTAB
  0
TABLE
  2
LTYPE
  5
5
330
0
100
AcDbSymbolTable
 70
     1
  0
LTYPE
  5
14
330
5
100
AcDbSymbolTableRecord
100
AcDbLinetypeTableRecord
  2
BYBLOCK
 70
     0
  3

 72
    65
 73
     0
 40
0.0
  0
LTYPE
  5
15
330
5
100
AcDbSymbolTableRecord
100
AcDbLinetypeTableRecord
  2
BYLAYER
 70
     0
  3

 72
    65
 73
     0
 40
0.0
  0
LTYPE
  5
16
330
5
100
AcDbSymbolTableRecord
100
AcDbLinetypeTableRecord
  2
CONTINUOUS
 70
     0
  3
Solid line
 72
    65
 73
     0
 40
0.0
  0
ENDTAB
  0
TABLE
  2
LAYER
  5
2
100
AcDbSymbolTable
 70
3
  0
LAYER
  5
50
100
AcDbSymbolTableRecord
100
AcDbLayerTableRecord
  2
0
 70
0
  6
CONTINUOUS
  0
LAYER
  5
51
100
AcDbSymbolTableRecord
100
AcDbLayerTableRecord
  2
レイヤー_1
 70
0
  6
CONTINUOUS
  0
LAYER
  5
52
100
AcDbSymbolTableRecord
100
AcDbLayerTableRecord
  2
レイヤー_2
 70
0
  6
CONTINUOUS
  0
ENDTAB
  0
TABLE
  2
STYLE
  5
3
330
0
100
AcDbSymbolTable
 70
     1
  0
STYLE
  5
11
330
3
100
AcDbSymbolTableRecord
100
AcDbTextStyleTableRecord
  2
STANDARD
 70
     0
 40
0.0
 41
1.0
 50
0.0
 71
     0
 42
2.5
  3
txt
  4

  0
ENDTAB
  0
TABLE
  2
VIEW
  5
6
330
0
100
AcDbSymbolTable
 70
     0
  0
ENDTAB
  0
TABLE
  2
UCS
  5
7
330
0
100
AcDbSymbolTable
 70
     0
  0
ENDTAB
  0
TABLE
  2
APPID
  5
9
330
0
100
AcDbSymbolTable
 70
     2
  0
APPID
  5
12
330
9
100
AcDbSymbolTableRecord
100
AcDbRegAppTableRecord
  2
ACAD
 70
     0
  0
ENDTAB
  0
TABLE
  2
DIMSTYLE
  5
A
330
0
100
AcDbSymbolTable
 70
     1
  0
DIMSTYLE
105
27
330
A
100
AcDbSymbolTableRecord
100
AcDbDimStyleTableRecord
  2
ISO-25
 70
     0
  3

  4

  5

  6

  7

 40
1.0
 41
2.5
 42
0.625
 43
3.75
 44
1.25
 45
0.0
 46
0.0
 47
0.0
 48
0.0
140
2.5
141
2.5
142
0.0
143
0.03937007874016
144
1.0
145
0.0
146
1.0
147
0.625
 71
     0
 72
     0
 73
     0
 74
     0
 75
     0
 76
     0
 77
     1
 78
     8
170
     0
171
     3
172
     1
173
     0
174
     0
175
     0
176
     0
177
     0
178
     0
270
     2
271
     2
272
     2
273
     2
274
     3
340
11
275
     0
280
     0
281
     0
282
     0
283
     0
284
     8
285
     0
286
     0
287
     3
288
     0
  0
ENDTAB
  0
TABLE
  2
BLOCK_RECORD
  5
1
330
0
100
AcDbSymbolTable
 70
     1
  0
BLOCK_RECORD
  5
1F
330
1
100
AcDbSymbolTableRecord
100
AcDbBlockTableRecord
  2
*MODEL_SPACE
  0
BLOCK_RECORD
  5
1B
330
1
100
AcDbSymbolTableRecord
100
AcDbBlockTableRecord
  2
*PAPER_SPACE
  0
ENDTAB
  0
ENDSEC
  0
SECTION
  2
BLOCKS
  0
BLOCK
  5
20
330
1F
100
AcDbEntity
  8
0
100
AcDbBlockBegin
  2
*MODEL_SPACE
 70
     0
 10
0.0
 20
0.0
 30
0.0
  3
*MODEL_SPACE
  1

  0
ENDBLK
  5
21
330
1F
100
AcDbEntity
  8
0
100
AcDbBlockEnd
  0
BLOCK
  5
1C
330
1B
100
AcDbEntity
 67
     1
  8
0
100
AcDbBlockBegin
  2
*PAPER_SPACE
  1

  0
ENDBLK
  5
1D
330
1B
100
AcDbEntity
 67
     1
  8
0
100
AcDbBlockEnd
  0
ENDSEC
  0
SECTION
  2
ENTITIES
  0
LWPOLYLINE
  5
100
100
AcDbEntity
  8
レイヤー_1
 62
7
100
AcDbPolyline
 90
2
 70
0
 10
108.999600
 20
224.799300
 30
0.0
 10
99.101220
 20
214.900920
 30
0.0
  0
LWPOLYLINE
  5
101
100
AcDbEntity
  8
レイヤー_1
 62
7
100
AcDbPolyline
 90
2
 70
0
 10
118.897980
 20
214.900920
 30
0.0
 10
108.999600
 20
224.799300
 30
0.0
  0
LWPOLYLINE
  5
102
100
AcDbEntity
  8
レイヤー_1
 62
7
100
AcDbPolyline
 90
2
 70
0
 10
108.999600
 20
205.000000
 30
0.0
 10
118.897980
 20
214.900920
 30
0.0
  0
LWPOLYLINE
  5
103
100
AcDbEntity
  8
レイヤー_1
 62
7
100
AcDbPolyline
 90
2
 70
0
 10
99.101220
 20
214.900920
 30
0.0
 10
108.999600
 20
205.000000
 30
0.0
  0
LWPOLYLINE
  5
104
100
AcDbEntity
  8
レイヤー_1
 62
7
100
AcDbPolyline
 90
2
 70
0
 10
87.998880
 20
235.901640
 30
0.0
 10
73.998400
 20
235.901640
 30
0.0
  0
LWPOLYLINE
  5
105
100
AcDbEntity
  8
レイヤー_1
 62
7
100
AcDbPolyline
 90
2
 70
0
 10
87.998880
 20
221.901160
 30
0.0
 10
87.998880
 20
235.901640
 30
0.0
  0
LWPOLYLINE
  5
106
100
AcDbEntity
  8
レイヤー_1
 62
7
100
AcDbPolyline
 90
2
 70
0
 10
73.998400
 20
221.901160
 30
0.0
 10
87.998880
 20
221.901160
 30
0.0
  0
LWPOLYLINE
  5
107
100
AcDbEntity
  8
レイヤー_1
 62
7
100
AcDbPolyline
 90
2
 70
0
 10
73.998400
 20
235.901640
 30
0.0
 10
73.998400
 20
221.901160
 30
0.0
  0
LWPOLYLINE
  5
108
100
AcDbEntity
  8
レイヤー_1
 62
7
100
AcDbPolyline
 90
2
 70
0
 10
68.999680
 20
235.901640
 30
0.0
 10
54.999200
 20
235.901640
 30
0.0
  0
LWPOLYLINE
  5
109
100
AcDbEntity
  8
レイヤー_1
 62
7
100
AcDbPolyline
 90
2
 70
0
 10
68.999680
 20
221.901160
 30
0.0
 10
68.999680
 20
235.901640
 30
0.0
  0
LWPOLYLINE
  5
10a
100
AcDbEntity
  8
レイヤー_1
 62
7
100
AcDbPolyline
 90
2
 70
0
 10
54.999200
 20
221.901160
 30
0.0
 10
68.999680
 20
221.901160
 30
0.0
  0
LWPOLYLINE
  5
10b
100
AcDbEntity
  8
レイヤー_1
 62
7
100
AcDbPolyline
 90
2
 70
0
 10
54.999200
 20
235.901640
 30
0.0
 10
54.999200
 20
221.901160
 30
0.0
  0
LWPOLYLINE
  5
10c
100
AcDbEntity
  8
レイヤー_1
 62
7
100
AcDbPolyline
 90
2
 70
0
 10
50.000480
 20
235.901640
 30
0.0
 10
36.000000
 20
235.901640
 30
0.0
  0
LWPOLYLINE
  5
10d
100
AcDbEntity
  8
レイヤー_1
 62
7
100
AcDbPolyline
 90
2
 70
0
 10
50.000480
 20
221.901160
 30
0.0
 10
50.000480
 20
235.901640
 30
0.0
  0
LWPOLYLINE
  5
10e
100
AcDbEntity
  8
レイヤー_1
 62
7
100
AcDbPolyline
 90
2
 70
0
 10
36.000000
 20
221.901160
 30
0.0
 10
50.000480
 20
221.901160
 30
0.0
  0
LWPOLYLINE
  5
10f
100
AcDbEntity
  8
レイヤー_1
 62
7
100
AcDbPolyline
 90
2
 70
0
 10
36.000000
 20
235.901640
 30
0.0
 10
36.000000
 20
221.901160
 30
0.0
  0
LWPOLYLINE
  5
110
100
AcDbEntity
  8
レイヤー_1
 62
7
100
AcDbPolyline
 90
2
 70
0
 10
87.998880
 20
254.900840
 30
0.0
 10
73.998400
 20
254.900840
 30
0.0
  0
LWPOLYLINE
  5
111
100
AcDbEntity
  8
レイヤー_1
 62
7
100
AcDbPolyline
 90
2
 70
0
 10
87.998880
 20
240.900360
 30
0.0
 10
87.998880
 20
254.900840
 30
0.0
  0
LWPOLYLINE
  5
112
100
AcDbEntity
  8
レイヤー_1
 62
7
100
AcDbPolyline
 90
2
 70
0
 10
73.998400
 20
240.900360
 30
0.0
 10
87.998880
 20
240.900360
 30
0.0
  0
LWPOLYLINE
  5
113
100
AcDbEntity
  8
レイヤー_1
 62
7
100
AcDbPolyline
 90
2
 70
0
 10
73.998400
 20
254.900840
 30
0.0
 10
73.998400
 20
240.900360
 30
0.0
  0
LWPOLYLINE
  5
114
100
AcDbEntity
  8
レイヤー_1
 62
7
100
AcDbPolyline
 90
2
 70
0
 10
68.999680
 20
254.900840
 30
0.0
 10
54.999200
 20
254.900840
 30
0.0
  0
LWPOLYLINE
  5
115
100
AcDbEntity
  8
レイヤー_1
 62
7
100
AcDbPolyline
 90
2
 70
0
 10
68.999680
 20
240.900360
 30
0.0
 10
68.999680
 20
254.900840
 30
0.0
  0
LWPOLYLINE
  5
116
100
AcDbEntity
  8
レイヤー_1
 62
7
100
AcDbPolyline
 90
2
 70
0
 10
54.999200
 20
240.900360
 30
0.0
 10
68.999680
 20
240.900360
 30
0.0
  0
LWPOLYLINE
  5
117
100
AcDbEntity
  8
レイヤー_1
 62
7
100
AcDbPolyline
 90
2
 70
0
 10
54.999200
 20
254.900840
 30
0.0
 10
54.999200
 20
240.900360
 30
0.0
  0
LWPOLYLINE
  5
118
100
AcDbEntity
  8
レイヤー_1
 62
7
100
AcDbPolyline
 90
2
 70
0
 10
50.000480
 20
254.900840
 30
0.0
 10
36.000000
 20
254.900840
 30
0.0
  0
LWPOLYLINE
  5
119
100
AcDbEntity
  8
レイヤー_1
 62
7
100
AcDbPolyline
 90
2
 70
0
 10
50.000480
 20
240.900360
 30
0.0
 10
50.000480
 20
254.900840
 30
0.0
  0
LWPOLYLINE
  5
11a
100
AcDbEntity
  8
レイヤー_1
 62
7
100
AcDbPolyline
 90
2
 70
0
 10
36.000000
 20
240.900360
 30
0.0
 10
50.000480
 20
240.900360
 30
0.0
  0
LWPOLYLINE
  5
11b
100
AcDbEntity
  8
レイヤー_1
 62
7
100
AcDbPolyline
 90
2
 70
0
 10
36.000000
 20
254.900840
 30
0.0
 10
36.000000
 20
240.900360
 30
0.0
  0
LWPOLYLINE
  5
11c
100
AcDbEntity
  8
レイヤー_1
 62
7
100
AcDbPolyline
 90
2
 70
0
 10
87.998880
 20
273.900040
 30
0.0
 10
73.998400
 20
273.900040
 30
0.0
  0
LWPOLYLINE
  5
11d
100
AcDbEntity
  8
レイヤー_1
 62
7
100
AcDbPolyline
 90
2
 70
0
 10
87.998880
 20
259.899560
 30
0.0
 10
87.998880
 20
273.900040
 30
0.0
  0
LWPOLYLINE
  5
11e
100
AcDbEntity
  8
レイヤー_1
 62
7
100
AcDbPolyline
 90
2
 70
0
 10
73.998400
 20
259.899560
 30
0.0
 10
87.998880
 20
259.899560
 30
0.0
  0
LWPOLYLINE
  5
11f
100
AcDbEntity
  8
レイヤー_1
 62
7
100
AcDbPolyline
 90
2
 70
0
 10
73.998400
 20
273.900040
 30
0.0
 10
73.998400
 20
259.899560
 30
0.0
  0
LWPOLYLINE
  5
120
100
AcDbEntity
  8
レイヤー_1
 62
7
100
AcDbPolyline
 90
2
 70
0
 10
68.999680
 20
273.900040
 30
0.0
 10
54.999200
 20
273.900040
 30
0.0
  0
LWPOLYLINE
  5
121
100
AcDbEntity
  8
レイヤー_1
 62
7
100
AcDbPolyline
 90
2
 70
0
 10
68.999680
 20
259.899560
 30
0.0
 10
68.999680
 20
273.900040
 30
0.0
  0
LWPOLYLINE
  5
122
100
AcDbEntity
  8
レイヤー_1
 62
7
100
AcDbPolyline
 90
2
 70
0
 10
54.999200
 20
259.899560
 30
0.0
 10
68.999680
 20
259.899560
 30
0.0
  0
LWPOLYLINE
  5
123
100
AcDbEntity
  8
レイヤー_1
 62
7
100
AcDbPolyline
 90
2
 70
0
 10
54.999200
 20
273.900040
 30
0.0
 10
54.999200
 20
259.899560
 30
0.0
  0
LWPOLYLINE
  5
124
100
AcDbEntity
  8
レイヤー_1
 62
7
100
AcDbPolyline
 90
2
 70
0
 10
50.000480
 20
273.900040
 30
0.0
 10
36.000000
 20
273.900040
 30
0.0
  0
LWPOLYLINE
  5
125
100
AcDbEntity
  8
レイヤー_1
 62
7
100
AcDbPolyline
 90
2
 70
0
 10
50.000480
 20
259.899560
 30
0.0
 10
50.000480
 20
273.900040
 30
0.0
  0
LWPOLYLINE
  5
126
100
AcDbEntity
  8
レイヤー_1
 62
7
100
AcDbPolyline
 90
2
 70
0
 10
36.000000
 20
259.899560
 30
0.0
 10
50.000480
 20
259.899560
 30
0.0
  0
SPLINE
  5
127
100
AcDbEntity
  8
レイヤー_1
 62
7
100
AcDbSpline
 70
8
 71
3
 72
8
 73
4
 74
0
 40
0
 40
0
 40
0
 40
0
 40
1
 40
1
 40
1
 40
1
 10
122.999995
 20
277.000000
 30
0.0
 10
122.999993
 20
278.104566
 30
0.0
 10
122.104566
 20
278.999993
 30
0.0
 10
120.999999
 20
278.999996
 30
0.0
  0
SPLINE
  5
128
100
AcDbEntity
  8
レイヤー_1
 62
7
100
AcDbSpline
 70
8
 71
3
 72
8
 73
4
 74
0
 40
0
 40
0
 40
0
 40
0
 40
1
 40
1
 40
1
 40
1
 10
120.999999
 20
199.999900
 30
0.0
 10
122.104566
 20
199.999903
 30
0.0
 10
122.999993
 20
200.895330
 30
0.0
 10
122.999995
 20
201.999896
 30
0.0
  0
SPLINE
  5
129
100
AcDbEntity
  8
レイヤー_1
 62
7
100
AcDbSpline
 70
8
 71
3
 72
8
 73
4
 74
0
 40
0
 40
0
 40
0
 40
0
 40
1
 40
1
 40
1
 40
1
 10
28.000000
 20
201.999896
 30
0.0
 10
28.000003
 20
200.895330
 30
0.0
 10
28.895430
 20
199.999903
 30
0.0
 10
29.999996
 20
199.999900
 30
0.0
  0
LWPOLYLINE
  5
12a
100
AcDbEntity
  8
レイヤー_1
 62
7
100
AcDbPolyline
 90
2
 70
0
 10
36.000000
 20
273.900040
 30
0.0
 10
36.000000
 20
259.899560
 30
0.0
  0
LWPOLYLINE
  5
12b
100
AcDbEntity
  8
レイヤー_1
 62
7
100
AcDbPolyline
 90
2
 70
0
 10
30.000001
 20
200.000408
 30
0.0
 10
121.000002
 20
200.000408
 30
0.0
  0
SPLINE
  5
12c
100
AcDbEntity
  8
レイヤー_1
 62
7
100
AcDbSpline
 70
8
 71
3
 72
8
 73
4
 74
0
 40
0
 40
0
 40
0
 40
0
 40
1
 40
1
 40
1
 40
1
 10
29.999996
 20
278.999996
 30
0.0
 10
28.895430
 20
278.999993
 30
0.0
 10
28.000003
 20
278.104566
 30
0.0
 10
28.000000
 20
277.000000
 30
0.0
  0
LWPOLYLINE
  5
12d
100
AcDbEntity
  8
レイヤー_1
 62
7
100
AcDbPolyline
 90
2
 70
0
 10
28.000000
 20
202.000000
 30
0.0
 10
28.000000
 20
276.998580
 30
0.0
  0
LWPOLYLINE
  5
12e
100
AcDbEntity
  8
レイヤー_1
 62
7
100
AcDbPolyline
 90
3
 70
0
 10
123.000001
 20
277.000000
 30
0.0
 10
123.000001
 20
212.821871
 30
0.0
 10
123.000001
 20
202.000000
 30
0.0
  0
SPLINE
  5
12f
100
AcDbEntity
  8
レイヤー_1
 62
7
100
AcDbSpline
 70
8
 71
3
 72
8
 73
4
 74
0
 40
0
 40
0
 40
0
 40
0
 40
1
 40
1
 40
1
 40
1
 10
33.099999
 20
275.000000
 30
0.0
 10
33.099999
 20
274.607008
 30
0.0
 10
32.890341
 20
274.243868
 30
0.0
 10
32.549999
 20
274.047372
 30
0.0
  0
SPLINE
  5
130
100
AcDbEntity
  8
レイヤー_1
 62
7
100
AcDbSpline
 70
8
 71
3
 72
8
 73
4
 74
0
 40
0
 40
0
 40
0
 40
0
 40
1
 40
1
 40
1
 40
1
 10
32.549999
 20
274.047372
 30
0.0
 10
32.209658
 20
273.850876
 30
0.0
 10
31.790341
 20
273.850876
 30
0.0
 10
31.449999
 20
274.047372
 30
0.0
  0
SPLINE
  5
131
100
AcDbEntity
  8
レイヤー_1
 62
7
100
AcDbSpline
 70
8
 71
3
 72
8
 73
4
 74
0
 40
0
 40
0
 40
0
 40
0
 40
1
 40
1
 40
1
 40
1
 10
31.449999
 20
274.047372
 30
0.0
 10
31.109658
 20
274.243868
 30
0.0
 10
30.899999
 20
274.607008
 30
0.0
 10
30.899999
 20
275.000000
 30
0.0
  0
SPLINE
  5
132
100
AcDbEntity
  8
レイヤー_1
 62
7
100
AcDbSpline
 70
8
 71
3
 72
8
 73
4
 74
0
 40
0
 40
0
 40
0
 40
0
 40
1
 40
1
 40
1
 40
1
 10
30.899999
 20
275.000000
 30
0.0
 10
30.899999
 20
275.392992
 30
0.0
 10
31.109658
 20
275.756132
 30
0.0
 10
31.449999
 20
275.952628
 30
0.0
  0
SPLINE
  5
133
100
AcDbEntity
  8
レイヤー_1
 62
7
100
AcDbSpline
 70
8
 71
3
 72
8
 73
4
 74
0
 40
0
 40
0
 40
0
 40
0
 40
1
 40
1
 40
1
 40
1
 10
31.449999
 20
275.952628
 30
0.0
 10
31.790341
 20
276.149124
 30
0.0
 10
32.209658
 20
276.149124
 30
0.0
 10
32.549999
 20
275.952628
 30
0.0
  0
SPLINE
  5
134
100
AcDbEntity
  8
レイヤー_1
 62
7
100
AcDbSpline
 70
8
 71
3
 72
8
 73
4
 74
0
 40
0
 40
0
 40
0
 40
0
 40
1
 40
1
 40
1
 40
1
 10
32.549999
 20
275.952628
 30
0.0
 10
32.890341
 20
275.756132
 30
0.0
 10
33.099999
 20
275.392992
 30
0.0
 10
33.099999
 20
275.000000
 30
0.0
  0
LWPOLYLINE
  5
135
100
AcDbEntity
  8
レイヤー_1
 62
7
100
AcDbPolyline
 90
2
 70
0
 10
30.000001
 20
279.000001
 30
0.0
 10
121.000002
 20
279.000001
 30
0.0
  0
SPLINE
  5
136
100
AcDbEntity
  8
レイヤー_1
 62
7
100
AcDbSpline
 70
8
 71
3
 72
8
 73
4
 74
0
 40
0
 40
0
 40
0
 40
0
 40
1
 40
1
 40
1
 40
1
 10
33.099998
 20
203.999999
 30
0.0
 10
33.099998
 20
203.607007
 30
0.0
 10
32.890339
 20
203.243868
 30
0.0
 10
32.549998
 20
203.047372
 30
0.0
  0
SPLINE
  5
137
100
AcDbEntity
  8
レイヤー_1
 62
7
100
AcDbSpline
 70
8
 71
3
 72
8
 73
4
 74
0
 40
0
 40
0
 40
0
 40
0
 40
1
 40
1
 40
1
 40
1
 10
32.549998
 20
203.047372
 30
0.0
 10
32.209657
 20
202.850876
 30
0.0
 10
31.790340
 20
202.850876
 30
0.0
 10
31.449999
 20
203.047372
 30
0.0
  0
SPLINE
  5
138
100
AcDbEntity
  8
レイヤー_1
 62
7
100
AcDbSpline
 70
8
 71
3
 72
8
 73
4
 74
0
 40
0
 40
0
 40
0
 40
0
 40
1
 40
1
 40
1
 40
1
 10
31.449999
 20
203.047372
 30
0.0
 10
31.109658
 20
203.243868
 30
0.0
 10
30.900000
 20
203.607007
 30
0.0
 10
30.900000
 20
203.999999
 30
0.0
  0
SPLINE
  5
139
100
AcDbEntity
  8
レイヤー_1
 62
7
100
AcDbSpline
 70
8
 71
3
 72
8
 73
4
 74
0
 40
0
 40
0
 40
0
 40
0
 40
1
 40
1
 40
1
 40
1
 10
30.900000
 20
203.999999
 30
0.0
 10
30.900000
 20
204.392991
 30
0.0
 10
31.109658
 20
204.756130
 30
0.0
 10
31.449999
 20
204.952626
 30
0.0
  0
SPLINE
  5
13a
100
AcDbEntity
  8
レイヤー_1
 62
7
100
AcDbSpline
 70
8
 71
3
 72
8
 73
4
 74
0
 40
0
 40
0
 40
0
 40
0
 40
1
 40
1
 40
1
 40
1
 10
31.449999
 20
204.952626
 30
0.0
 10
31.790340
 20
205.149122
 30
0.0
 10
32.209657
 20
205.149122
 30
0.0
 10
32.549998
 20
204.952626
 30
0.0
  0
SPLINE
  5
13b
100
AcDbEntity
  8
レイヤー_1
 62
7
100
AcDbSpline
 70
8
 71
3
 72
8
 73
4
 74
0
 40
0
 40
0
 40
0
 40
0
 40
1
 40
1
 40
1
 40
1
 10
32.549998
 20
204.952626
 30
0.0
 10
32.890339
 20
204.756130
 30
0.0
 10
33.099998
 20
204.392991
 30
0.0
 10
33.099998
 20
203.999999
 30
0.0
  0
LWPOLYLINE
  5
13c
100
AcDbEntity
  8
レイヤー_1
 62
7
100
AcDbPolyline
 90
1
 70
1
 10
33.099999
 20
275.000000
 30
0.0
  0
SPLINE
  5
13d
100
AcDbEntity
  8
レイヤー_1
 62
7
100
AcDbSpline
 70
8
 71
3
 72
8
 73
4
 74
0
 40
0
 40
0
 40
0
 40
0
 40
1
 40
1
 40
1
 40
1
 10
120.099998
 20
203.999999
 30
0.0
 10
120.099998
 20
203.607007
 30
0.0
 10
119.890339
 20
203.243868
 30
0.0
 10
119.549999
 20
203.047372
 30
0.0
  0
SPLINE
  5
13e
100
AcDbEntity
  8
レイヤー_1
 62
7
100
AcDbSpline
 70
8
 71
3
 72
8
 73
4
 74
0
 40
0
 40
0
 40
0
 40
0
 40
1
 40
1
 40
1
 40
1
 10
119.549999
 20
203.047372
 30
0.0
 10
119.209658
 20
202.850876
 30
0.0
 10
118.790340
 20
202.850876
 30
0.0
 10
118.450000
 20
203.047372
 30
0.0
  0
SPLINE
  5
13f
100
AcDbEntity
  8
レイヤー_1
 62
7
100
AcDbSpline
 70
8
 71
3
 72
8
 73
4
 74
0
 40
0
 40
0
 40
0
 40
0
 40
1
 40
1
 40
1
 40
1
 10
118.450000
 20
203.047372
 30
0.0
 10
118.109659
 20
203.243868
 30
0.0
 10
117.900000
 20
203.607007
 30
0.0
 10
117.900000
 20
203.999999
 30
0.0
  0
SPLINE
  5
140
100
AcDbEntity
  8
レイヤー_1
 62
7
100
AcDbSpline
 70
8
 71
3
 72
8
 73
4
 74
0
 40
0
 40
0
 40
0
 40
0
 40
1
 40
1
 40
1
 40
1
 10
117.900000
 20
203.999999
 30
0.0
 10
117.900000
 20
204.392991
 30
0.0
 10
118.109659
 20
204.756130
 30
0.0
 10
118.450000
 20
204.952626
 30
0.0
  0
SPLINE
  5
141
100
AcDbEntity
  8
レイヤー_1
 62
7
100
AcDbSpline
 70
8
 71
3
 72
8
 73
4
 74
0
 40
0
 40
0
 40
0
 40
0
 40
1
 40
1
 40
1
 40
1
 10
118.450000
 20
204.952626
 30
0.0
 10
118.790340
 20
205.149122
 30
0.0
 10
119.209658
 20
205.149122
 30
0.0
 10
119.549999
 20
204.952626
 30
0.0
  0
SPLINE
  5
142
100
AcDbEntity
  8
レイヤー_1
 62
7
100
AcDbSpline
 70
8
 71
3
 72
8
 73
4
 74
0
 40
0
 40
0
 40
0
 40
0
 40
1
 40
1
 40
1
 40
1
 10
119.549999
 20
204.952626
 30
0.0
 10
119.890339
 20
204.756130
 30
0.0
 10
120.099998
 20
204.392991
 30
0.0
 10
120.099998
 20
203.999999
 30
0.0
  0
LWPOLYLINE
  5
143
100
AcDbEntity
  8
レイヤー_1
 62
7
100
AcDbPolyline
 90
1
 70
1
 10
33.099998
 20
203.999999
 30
0.0
  0
SPLINE
  5
144
100
AcDbEntity
  8
レイヤー_1
 62
7
100
AcDbSpline
 70
8
 71
3
 72
8
 73
4
 74
0
 40
0
 40
0
 40
0
 40
0
 40
1
 40
1
 40
1
 40
1
 10
120.099998
 20
274.999997
 30
0.0
 10
120.099998
 20
274.607006
 30
0.0
 10
119.890339
 20
274.243866
 30
0.0
 10
119.549999
 20
274.047370
 30
0.0
  0
SPLINE
  5
145
100
AcDbEntity
  8
レイヤー_1
 62
7
100
AcDbSpline
 70
8
 71
3
 72
8
 73
4
 74
0
 40
0
 40
0
 40
0
 40
0
 40
1
 40
1
 40
1
 40
1
 10
119.549999
 20
274.047370
 30
0.0
 10
119.209658
 20
273.850874
 30
0.0
 10
118.790340
 20
273.850874
 30
0.0
 10
118.450000
 20
274.047370
 30
0.0
  0
SPLINE
  5
146
100
AcDbEntity
  8
レイヤー_1
 62
7
100
AcDbSpline
 70
8
 71
3
 72
8
 73
4
 74
0
 40
0
 40
0
 40
0
 40
0
 40
1
 40
1
 40
1
 40
1
 10
118.450000
 20
274.047370
 30
0.0
 10
118.109659
 20
274.243866
 30
0.0
 10
117.900000
 20
274.607006
 30
0.0
 10
117.900000
 20
274.999997
 30
0.0
  0
SPLINE
  5
147
100
AcDbEntity
  8
レイヤー_1
 62
7
100
AcDbSpline
 70
8
 71
3
 72
8
 73
4
 74
0
 40
0
 40
0
 40
0
 40
0
 40
1
 40
1
 40
1
 40
1
 10
117.900000
 20
274.999997
 30
0.0
 10
117.900000
 20
275.392989
 30
0.0
 10
118.109659
 20
275.756129
 30
0.0
 10
118.450000
 20
275.952625
 30
0.0
  0
SPLINE
  5
148
100
AcDbEntity
  8
レイヤー_1
 62
7
100
AcDbSpline
 70
8
 71
3
 72
8
 73
4
 74
0
 40
0
 40
0
 40
0
 40
0
 40
1
 40
1
 40
1
 40
1
 10
118.450000
 20
275.952625
 30
0.0
 10
118.790340
 20
276.149120
 30
0.0
 10
119.209658
 20
276.149120
 30
0.0
 10
119.549999
 20
275.952625
 30
0.0
  0
SPLINE
  5
149
100
AcDbEntity
  8
レイヤー_1
 62
7
100
AcDbSpline
 70
8
 71
3
 72
8
 73
4
 74
0
 40
0
 40
0
 40
0
 40
0
 40
1
 40
1
 40
1
 40
1
 10
119.549999
 20
275.952625
 30
0.0
 10
119.890339
 20
275.756129
 30
0.0
 10
120.099998
 20
275.392989
 30
0.0
 10
120.099998
 20
274.999997
 30
0.0
  0
LWPOLYLINE
  5
14a
100
AcDbEntity
  8
レイヤー_1
 62
7
100
AcDbPolyline
 90
1
 70
1
 10
120.099998
 20
203.999999
 30
0.0
  0
SPLINE
  5
14b
100
AcDbEntity
  8
レイヤー_1
 62
7
100
AcDbSpline
 70
8
 71
3
 72
8
 73
4
 74
0
 40
0
 40
0
 40
0
 40
0
 40
1
 40
1
 40
1
 40
1
 10
120.099998
 20
239.999997
 30
0.0
 10
120.099998
 20
239.607006
 30
0.0
 10
119.890339
 20
239.243866
 30
0.0
 10
119.549999
 20
239.047370
 30
0.0
  0
SPLINE
  5
14c
100
AcDbEntity
  8
レイヤー_1
 62
7
100
AcDbSpline
 70
8
 71
3
 72
8
 73
4
 74
0
 40
0
 40
0
 40
0
 40
0
 40
1
 40
1
 40
1
 40
1
 10
119.549999
 20
239.047370
 30
0.0
 10
119.209658
 20
238.850874
 30
0.0
 10
118.790340
 20
238.850874
 30
0.0
 10
118.450000
 20
239.047370
 30
0.0
  0
SPLINE
  5
14d
100
AcDbEntity
  8
レイヤー_1
 62
7
100
AcDbSpline
 70
8
 71
3
 72
8
 73
4
 74
0
 40
0
 40
0
 40
0
 40
0
 40
1
 40
1
 40
1
 40
1
 10
118.450000
 20
239.047370
 30
0.0
 10
118.109659
 20
239.243866
 30
0.0
 10
117.900000
 20
239.607006
 30
0.0
 10
117.900000
 20
239.999997
 30
0.0
  0
SPLINE
  5
14e
100
AcDbEntity
  8
レイヤー_1
 62
7
100
AcDbSpline
 70
8
 71
3
 72
8
 73
4
 74
0
 40
0
 40
0
 40
0
 40
0
 40
1
 40
1
 40
1
 40
1
 10
117.900000
 20
239.999997
 30
0.0
 10
117.900000
 20
240.392989
 30
0.0
 10
118.109659
 20
240.756129
 30
0.0
 10
118.450000
 20
240.952625
 30
0.0
  0
SPLINE
  5
14f
100
AcDbEntity
  8
レイヤー_1
 62
7
100
AcDbSpline
 70
8
 71
3
 72
8
 73
4
 74
0
 40
0
 40
0
 40
0
 40
0
 40
1
 40
1
 40
1
 40
1
 10
118.450000
 20
240.952625
 30
0.0
 10
118.790340
 20
241.149120
 30
0.0
 10
119.209658
 20
241.149120
 30
0.0
 10
119.549999
 20
240.952625
 30
0.0
  0
SPLINE
  5
150
100
AcDbEntity
  8
レイヤー_1
 62
7
100
AcDbSpline
 70
8
 71
3
 72
8
 73
4
 74
0
 40
0
 40
0
 40
0
 40
0
 40
1
 40
1
 40
1
 40
1
 10
119.549999
 20
240.952625
 30
0.0
 10
119.890339
 20
240.756129
 30
0.0
 10
120.099998
 20
240.392989
 30
0.0
 10
120.099998
 20
239.999997
 30
0.0
  0
LWPOLYLINE
  5
151
100
AcDbEntity
  8
レイヤー_1
 62
7
100
AcDbPolyline
 90
1
 70
1
 10
120.099998
 20
274.999997
 30
0.0
  0
SPLINE
  5
152
100
AcDbEntity
  8
レイヤー_1
 62
7
100
AcDbSpline
 70
8
 71
3
 72
8
 73
4
 74
0
 40
0
 40
0
 40
0
 40
0
 40
1
 40
1
 40
1
 40
1
 10
101.099999
 20
240.000000
 30
0.0
 10
101.099999
 20
239.607008
 30
0.0
 10
100.890341
 20
239.243868
 30
0.0
 10
100.549999
 20
239.047372
 30
0.0
  0
SPLINE
  5
153
100
AcDbEntity
  8
レイヤー_1
 62
7
100
AcDbSpline
 70
8
 71
3
 72
8
 73
4
 74
0
 40
0
 40
0
 40
0
 40
0
 40
1
 40
1
 40
1
 40
1
 10
100.549999
 20
239.047372
 30
0.0
 10
100.209658
 20
238.850876
 30
0.0
 10
99.790341
 20
238.850876
 30
0.0
 10
99.449999
 20
239.047372
 30
0.0
  0
SPLINE
  5
154
100
AcDbEntity
  8
レイヤー_1
 62
7
100
AcDbSpline
 70
8
 71
3
 72
8
 73
4
 74
0
 40
0
 40
0
 40
0
 40
0
 40
1
 40
1
 40
1
 40
1
 10
99.449999
 20
239.047372
 30
0.0
 10
99.109658
 20
239.243868
 30
0.0
 10
98.899999
 20
239.607008
 30
0.0
 10
98.899999
 20
240.000000
 30
0.0
  0
SPLINE
  5
155
100
AcDbEntity
  8
レイヤー_1
 62
7
100
AcDbSpline
 70
8
 71
3
 72
8
 73
4
 74
0
 40
0
 40
0
 40
0
 40
0
 40
1
 40
1
 40
1
 40
1
 10
98.899999
 20
240.000000
 30
0.0
 10
98.899999
 20
240.392992
 30
0.0
 10
99.109658
 20
240.756132
 30
0.0
 10
99.449999
 20
240.952628
 30
0.0
  0
SPLINE
  5
156
100
AcDbEntity
  8
レイヤー_1
 62
7
100
AcDbSpline
 70
8
 71
3
 72
8
 73
4
 74
0
 40
0
 40
0
 40
0
 40
0
 40
1
 40
1
 40
1
 40
1
 10
99.449999
 20
240.952628
 30
0.0
 10
99.790341
 20
241.149124
 30
0.0
 10
100.209658
 20
241.149124
 30
0.0
 10
100.549999
 20
240.952628
 30
0.0
  0
SPLINE
  5
157
100
AcDbEntity
  8
レイヤー_1
 62
7
100
AcDbSpline
 70
8
 71
3
 72
8
 73
4
 74
0
 40
0
 40
0
 40
0
 40
0
 40
1
 40
1
 40
1
 40
1
 10
100.549999
 20
240.952628
 30
0.0
 10
100.890341
 20
240.756132
 30
0.0
 10
101.099999
 20
240.392992
 30
0.0
 10
101.099999
 20
240.000000
 30
0.0
  0
LWPOLYLINE
  5
158
100
AcDbEntity
  8
レイヤー_1
 62
7
100
AcDbPolyline
 90
1
 70
1
 10
120.099998
 20
239.999997
 30
0.0
  0
LWPOLYLINE
  5
159
100
AcDbEntity
  8
レイヤー_1
 62
7
100
AcDbPolyline
 90
1
 70
1
 10
101.099999
 20
240.000000
 30
0.0
  0
ENDSEC
  0
SECTION
  2
OBJECTS
  0
DICTIONARY
  5
C
330
0
100
AcDbDictionary
  3
ACAD_GROUP
350
D
  3
ACAD_MLINESTYLE
350
17
  0
DICTIONARY
  5
D
330
C
100
AcDbDictionary
  0
DICTIONARY
  5
1A
330
C
100
AcDbDictionary
  0
DICTIONARY
  5
17
330
C
100
AcDbDictionary
  3
STANDARD
350
18
  0
DICTIONARY
  5
19
330
C
100
AcDbDictionary
  0
ENDSEC
  0
EOF
